# Blender 3.3.0
# www.blender.org
mtllib board.mtl
o board
v -3.392177 3.116980 0.178083
v -1.280394 3.116980 0.178082
v -1.280394 2.184875 0.178083
v -3.392177 2.184875 0.178083
v -3.392177 3.116980 -0.127201
v -1.280394 3.116980 -0.127202
v -1.280394 2.184875 -0.127201
v -3.392177 2.184875 -0.127201
vn -0.0000 -0.0000 1.0000
vn -0.0000 -0.0000 -1.0000
vt 1.000000 0.509064
vt -0.000187 0.509064
vt 0.000037 0.067681
vt 1.000000 0.067681
vt 0.000037 0.509064
vt 1.000000 0.509064
vt 1.000000 0.067681
vt 0.000037 0.067681
s 0
usemtl マテリアル
f 3/3/1 1/1/1 4/4/1
f 3/3/1 2/2/1 1/1/1
f 8/8/2 6/6/2 7/7/2
f 8/8/2 5/5/2 6/6/2
