# Blender 4.0.1
# www.blender.org
mtllib body.mtl
o body
v 0.223361 0.712698 -0.198782
v 0.223636 1.341585 -0.199017
v 0.223052 0.712843 0.194797
v 0.223293 1.341430 0.195017
v -0.223361 0.712698 -0.198782
v -0.223636 1.341585 -0.199017
v -0.223052 0.712843 0.194797
v -0.223293 1.341430 0.195017
v 0.181277 0.998559 -0.161739
v 0.180925 0.998626 0.157596
v -0.180925 0.998626 0.157596
v -0.181277 0.998559 -0.161739
v 0.232990 1.221343 -0.207250
v 0.232602 1.221376 0.203238
v -0.232602 1.221376 0.203238
v -0.232990 1.221343 -0.207250
v 0.240839 0.833155 0.210507
v -0.240839 0.833155 0.210507
v -0.241228 0.833181 -0.214506
v 0.241228 0.833181 -0.214506
v 0.000000 0.673796 0.268451
v 0.000000 1.377492 0.265820
v 0.000000 0.673420 -0.359366
v 0.000000 1.377880 -0.270041
v 0.000000 0.988033 -0.250725
v 0.000000 0.988185 0.246162
v 0.000000 1.213224 -0.291985
v 0.000000 1.213316 0.287635
v 0.000000 0.840895 0.314252
v 0.000000 0.840980 -0.331401
v -0.137839 1.364993 0.241280
v -0.138911 0.687197 -0.246711
v -0.121478 0.991569 0.212380
v -0.146901 1.216215 0.257285
v -0.156924 0.837966 0.274992
v -0.138614 0.687475 0.242647
v -0.138162 1.365284 -0.245392
v -0.121873 0.991450 -0.216719
v -0.147292 1.216149 -0.261464
v -0.157355 0.838023 -0.279175
v 0.138614 0.687475 0.242647
v 0.138162 1.365284 -0.245392
v 0.121873 0.991450 -0.216719
v 0.147292 1.216149 -0.261464
v 0.157355 0.838023 -0.279175
v 0.137839 1.364993 0.241280
v 0.138911 0.687197 -0.246711
v 0.121478 0.991569 0.212380
v 0.146901 1.216215 0.257285
v 0.156924 0.837966 0.274992
v 0.284349 0.684141 -0.001759
v 0.303896 1.377686 -0.001730
v -0.284349 0.684141 -0.001759
v -0.303896 1.377686 -0.001730
v -0.264072 0.977367 -0.001791
v 0.264072 0.977367 -0.001791
v -0.328713 1.213270 -0.001694
v 0.328713 1.213270 -0.001694
v 0.324295 0.838654 -0.001696
v -0.324295 0.838654 -0.001696
v 0.000000 0.543131 -0.001281
v -0.152514 1.495732 -0.001386
v -0.217601 0.613505 -0.001519
v 0.217601 0.613505 -0.001519
v 0.152514 1.495732 -0.001386
v 0.276860 1.365525 0.117692
v -0.265122 0.693143 0.112608
v 0.235318 0.984883 0.099703
v 0.295233 1.216094 0.125647
v 0.296597 0.836829 0.126239
v 0.265122 0.693143 0.112608
v -0.276860 1.365525 0.117692
v -0.235318 0.984883 0.099703
v -0.295233 1.216094 0.125647
v -0.296597 0.836829 0.126239
v 0.000000 1.470272 0.218519
v 0.000000 0.603026 0.195958
v -0.121828 1.461956 0.091181
v -0.187138 0.642034 0.159880
v 0.187138 0.642034 0.159880
v 0.121828 1.461956 0.091181
v 0.264628 0.693375 -0.118445
v -0.276163 1.365211 -0.123510
v -0.234602 0.985082 -0.105254
v -0.294388 1.216165 -0.131518
v -0.295905 0.836784 -0.132183
v 0.000000 1.496662 -0.127749
v 0.000000 0.604210 -0.202087
v -0.120814 1.461069 -0.097262
v -0.186444 0.642683 -0.165997
v 0.186444 0.642683 -0.165997
v 0.120814 1.461069 -0.097262
v 0.276163 1.365211 -0.123510
v -0.264628 0.693375 -0.118445
v 0.234602 0.985082 -0.105254
v 0.294388 1.216165 -0.131518
v 0.295905 0.836784 -0.132183
v -0.201652 1.422399 0.172438
v -0.252218 1.467888 -0.001435
v 0.201652 1.422399 0.172438
v 0.252218 1.467888 -0.001435
v 0.000000 1.498333 0.121928
v -0.200579 1.421434 -0.178428
v 0.200579 1.421434 -0.178428
v 0.000000 1.468333 -0.224237
v 0.038724 1.548220 0.071176
v -0.038724 1.548220 0.071176
v 0.000000 1.517193 0.121881
v -0.041131 1.560216 0.038871
v 0.041131 1.560216 0.038871
v 0.041137 1.559848 -0.041332
v -0.041137 1.559848 -0.041332
v 0.098101 1.543713 -0.038255
v 0.098032 1.543601 0.035388
v 0.152514 1.514568 -0.001432
v -0.098101 1.543713 -0.038255
v -0.152514 1.514568 -0.001432
v -0.098032 1.543601 0.035388
v -0.038757 1.547063 -0.077357
v 0.038757 1.547063 -0.077357
v 0.000000 1.515530 -0.127796
v -0.121828 1.480803 0.091134
v -0.093890 1.544223 0.063071
v 0.093890 1.544223 0.063071
v 0.121828 1.480803 0.091134
v -0.092770 1.543115 -0.069354
v -0.120814 1.479923 -0.097309
v 0.092770 1.543115 -0.069354
v 0.120814 1.479923 -0.097309
vn 0.8922 -0.0787 0.4448
vn 0.6530 0.2197 0.7248
vn 0.6685 -0.0896 0.7383
vn -0.3897 -0.0691 0.9183
vn -0.6530 0.2197 0.7248
vn -0.6685 -0.0896 0.7383
vn -0.8914 -0.0789 -0.4464
vn -0.6533 0.2193 -0.7246
vn -0.6681 -0.0893 -0.7387
vn 0.3907 -0.0687 -0.9179
vn 0.6533 0.2193 -0.7246
vn 0.6681 -0.0893 -0.7387
vn -0.4685 -0.7717 -0.4301
vn -0.6817 -0.3700 -0.6312
vn -0.4597 -0.4962 -0.7366
vn 0.4931 0.6734 -0.5508
vn 0.3474 0.3192 -0.8817
vn 0.4720 0.1060 -0.8752
vn 0.6945 0.0694 -0.7161
vn 0.7305 0.1086 -0.6742
vn -0.8745 0.1006 -0.4745
vn -0.7305 0.1086 -0.6742
vn -0.9201 0.0925 -0.3807
vn -0.4411 0.1059 0.8912
vn -0.6947 0.0695 0.7159
vn -0.7305 0.1088 0.6741
vn 0.8753 0.1005 0.4730
vn 0.7305 0.1088 0.6741
vn 0.9207 0.0921 0.3792
vn 0.4782 0.1320 -0.8683
vn -0.6945 0.0694 -0.7161
vn -0.4684 0.1228 0.8750
vn 0.6947 0.0695 0.7159
vn 0.6813 -0.3703 0.6314
vn 0.8249 -0.4633 0.3238
vn -0.6813 -0.3703 0.6314
vn -0.3602 -0.4950 0.7907
vn -0.8240 -0.4641 -0.3250
vn 0.6817 -0.3700 -0.6312
vn 0.4597 -0.4962 -0.7366
vn -0.0000 0.2189 -0.9757
vn -0.0000 -0.4189 -0.9080
vn 0.3602 -0.4950 0.7907
vn -0.0000 0.0895 0.9960
vn -0.0000 -0.5066 0.8622
vn 0.4684 0.1228 0.8750
vn -0.0000 -0.0412 0.9992
vn -0.0000 0.1358 0.9907
vn -0.4782 0.1320 -0.8683
vn -0.0000 -0.0406 -0.9992
vn -0.0000 0.1734 -0.9849
vn 0.4411 0.1059 0.8912
vn -0.4720 0.1060 -0.8752
vn -0.0000 0.7895 -0.6138
vn -0.3474 0.3192 -0.8817
vn -0.4931 0.6734 -0.5508
vn -0.0000 -0.9227 -0.3854
vn 0.4685 -0.7717 -0.4301
vn -0.3907 -0.0687 -0.9179
vn 0.3473 0.3199 0.8815
vn 0.3897 -0.0691 0.9183
vn -0.8493 0.3293 -0.4125
vn -0.3473 0.3199 0.8815
vn 0.8240 -0.4641 -0.3250
vn -0.0000 0.2990 -0.9543
vn -0.8388 0.5444 0.0018
vn -0.6815 0.2410 0.6910
vn -0.8984 0.4392 0.0007
vn 0.5326 -0.8464 -0.0001
vn 0.8816 -0.4720 -0.0006
vn -0.4701 -0.7719 0.4280
vn -0.0000 -1.0000 0.0001
vn -0.0000 -0.8671 0.4982
vn -0.8508 0.3275 0.4109
vn -0.6041 0.7969 0.0001
vn -0.9456 0.3254 -0.0009
vn 0.4701 -0.7719 0.4280
vn 0.1134 0.9817 -0.1527
vn 0.5055 0.7266 -0.4653
vn 0.1471 0.8323 -0.5344
vn -0.8249 -0.4633 0.3238
vn -0.9969 0.0789 -0.0004
vn -0.8816 -0.4720 -0.0006
vn 0.9969 0.0789 -0.0004
vn 0.8745 0.1006 -0.4745
vn 0.9978 -0.0666 -0.0006
vn 0.9953 0.0972 -0.0007
vn -0.8753 0.1005 0.4730
vn -0.9978 -0.0666 -0.0006
vn -0.9953 0.0972 -0.0007
vn 0.9201 0.0925 -0.3807
vn -0.9207 0.0921 0.3792
vn 0.8508 0.3275 0.4109
vn 0.6041 0.7969 0.0001
vn 0.4959 0.6736 0.5481
vn -0.5326 -0.8464 -0.0001
vn -0.8922 -0.0787 0.4448
vn 0.8493 0.3293 -0.4125
vn 0.8914 -0.0789 -0.4464
vn -0.0000 0.7917 0.6110
vn -0.4959 0.6736 0.5481
vn -0.0000 0.3001 0.9539
vn 0.8388 0.5444 0.0018
vn 0.6815 0.2410 0.6910
vn 0.4822 0.7086 0.5150
vn -0.4822 0.7086 0.5150
vn -0.0000 0.5748 0.8183
vn -0.4824 0.7072 -0.5168
vn 0.4824 0.7072 -0.5168
vn -0.0000 0.5721 -0.8202
vn -0.0000 0.4558 0.8901
vn -0.1134 0.9817 -0.1527
vn -0.5055 0.7266 -0.4653
vn -0.5126 0.8465 -0.1435
vn 0.6817 0.2389 -0.6915
vn 0.8984 0.4392 0.0007
vn -0.6817 0.2389 -0.6915
vn -0.0000 0.4495 -0.8933
vn 0.5195 0.7300 0.4442
vn 0.1139 0.9813 0.1551
vn 0.1476 0.8302 0.5375
vn -0.1476 0.8302 0.5375
vn -0.1139 0.9813 0.1551
vn 0.5126 0.8465 -0.1435
vn 0.5210 0.8440 0.1272
vn -0.5210 0.8440 0.1272
vn -0.1471 0.8323 -0.5344
vn -0.5195 0.7300 0.4442
vn 0.9456 0.3254 -0.0009
vt 0.251579 0.229784
vt 0.251956 0.229232
vt 0.251985 0.229731
vt 0.227017 0.938977
vt 0.227454 0.938452
vt 0.227468 0.938925
vt 0.166104 0.229309
vt 0.166536 0.228812
vt 0.166507 0.229312
vt 0.168235 0.229262
vt 0.168451 0.228695
vt 0.168502 0.229190
vt 0.166610 0.231650
vt 0.166515 0.231390
vt 0.166964 0.231498
vt 0.168317 0.228363
vt 0.168172 0.228645
vt 0.168298 0.230819
vt 0.168189 0.230092
vt 0.168537 0.230783
vt 0.166303 0.230227
vt 0.166472 0.230909
vt 0.166085 0.230865
vt 0.227016 0.940486
vt 0.227428 0.939893
vt 0.227491 0.940483
vt 0.251605 0.230696
vt 0.252041 0.231331
vt 0.251620 0.231343
vt 0.799825 0.455724
vt 0.800394 0.455337
vt 0.800423 0.455701
vt 0.166636 0.230188
vt 0.227066 0.939932
vt 0.251920 0.230611
vt 0.252023 0.231813
vt 0.251636 0.231913
vt 0.227479 0.940992
vt 0.227051 0.941129
vt 0.166189 0.231437
vt 0.751593 0.315341
vt 0.752107 0.315259
vt 0.751864 0.315651
vt 0.167697 0.230870
vt 0.167606 0.231532
vt 0.226092 0.941337
vt 0.226361 0.940568
vt 0.226498 0.941272
vt 0.226225 0.940114
vt 0.226421 0.939080
vt 0.226549 0.940015
vt 0.166992 0.230230
vt 0.167661 0.229329
vt 0.167577 0.230231
vt 0.073961 0.940599
vt 0.074577 0.941153
vt 0.074159 0.941256
vt 0.166950 0.230902
vt 0.167544 0.228247
vt 0.166988 0.228717
vt 0.166599 0.228468
vt 0.751992 0.316409
vt 0.752274 0.315538
vt 0.166974 0.229340
vt 0.226071 0.938599
vt 0.225999 0.939197
vt 0.166172 0.228689
vt 0.751593 0.316892
vt 0.751642 0.316279
vt 0.227025 0.938392
vt 0.073683 0.939222
vt 0.074067 0.939695
vt 0.073712 0.939721
vt 0.752482 0.315138
vt 0.073647 0.940601
vt 0.073768 0.941321
vt 0.073751 0.941803
vt 0.074082 0.941861
vt 0.168154 0.231425
vt 0.168036 0.230166
vt 0.167626 0.228643
vt 0.893696 0.486911
vt 0.893643 0.487278
vt 0.893622 0.486896
vt 0.753385 0.315239
vt 0.752979 0.315513
vt 0.752967 0.315115
vt 0.753182 0.317353
vt 0.752843 0.316585
vt 0.753549 0.316588
vt 0.486572 0.307659
vt 0.487139 0.307628
vt 0.487027 0.307897
vt 0.753549 0.315681
vt 0.166436 0.382413
vt 0.166581 0.382199
vt 0.166571 0.382456
vt 0.406133 0.231102
vt 0.406659 0.230541
vt 0.406527 0.231195
vt 0.250742 0.231893
vt 0.251078 0.231341
vt 0.251162 0.231952
vt 0.250813 0.230678
vt 0.251029 0.229806
vt 0.251164 0.230736
vt 0.406055 0.229954
vt 0.406659 0.229024
vt 0.406445 0.230026
vt 0.250621 0.231321
vt 0.406197 0.230489
vt 0.251563 0.229159
vt 0.251132 0.228714
vt 0.251896 0.228885
vt 0.406298 0.231531
vt 0.405730 0.231338
vt 0.406132 0.228373
vt 0.406179 0.228958
vt 0.250631 0.229140
vt 0.250585 0.229763
vt 0.405727 0.228462
vt 0.405740 0.228935
vt 0.405752 0.231003
vt 0.405324 0.231139
vt 0.252277 0.229088
vt 0.405764 0.230493
vt 0.405701 0.229903
vt 0.486227 0.306894
vt 0.486532 0.306244
vt 0.486471 0.307239
vt 0.753775 0.315870
vt 0.405713 0.228165
vt 0.404981 0.231613
vt 0.404771 0.231282
vt 0.251957 0.232080
vt 0.486520 0.305616
vt 0.486284 0.306227
vt 0.250430 0.229200
vt 0.250395 0.229698
vt 0.250395 0.231297
vt 0.799767 0.454841
vt 0.800423 0.454992
vt 0.752304 0.314789
vt 0.724297 0.455693
vt 0.724254 0.456105
vt 0.724176 0.456109
vt 0.751909 0.317203
vt 0.166053 0.228197
vt 0.165829 0.228580
vt 0.165723 0.230795
vt 0.165889 0.231418
vt 0.165717 0.229261
vt 0.165986 0.230211
vt 0.250540 0.228859
vt 0.752553 0.317457
vt 0.751964 0.317502
vt 0.486905 0.306935
vt 0.487164 0.305806
vt 0.487675 0.305290
vt 0.487587 0.305743
vt 0.486935 0.306329
vt 0.486899 0.305369
vt 0.487656 0.307115
vt 0.487263 0.307157
vt 0.487913 0.305995
vt 0.488295 0.305717
vt 0.488295 0.306677
vt 0.487929 0.306573
vt 0.487870 0.307577
vt 0.893536 0.487777
vt 0.893643 0.488141
vt 0.893461 0.487762
vt 0.893717 0.487294
vt 0.166367 0.382798
vt 0.166427 0.383067
vt 0.166298 0.383068
vt 0.724254 0.455378
vt 0.724374 0.455689
vt 0.946505 0.066896
vt 0.946554 0.067474
vt 0.946428 0.066890
vt 0.946554 0.066437
vt 0.946631 0.066443
vt 0.166049 0.382090
vt 0.166113 0.382350
vt 0.165973 0.382341
vt 0.946427 0.067779
vt 0.946631 0.067479
vt 0.165909 0.382703
vt 0.165717 0.382494
vt 0.166044 0.382736
vt 0.166460 0.382149
vt 0.166163 0.382093
vt 0.166339 0.381876
vt 0.166086 0.383305
vt 0.166001 0.383011
vt 0.166506 0.382819
vt 0.166722 0.382688
vt 0.165717 0.383101
vt 0.165893 0.382969
vt 0.724527 0.455918
vt 0.724532 0.456032
vt 0.165919 0.381960
vt 0.946255 0.067465
vt 0.946350 0.067774
vt 0.724529 0.455633
vt 0.946266 0.066806
vt 0.946277 0.066590
vt 0.946266 0.067139
vt 0.168537 0.228544
vt 0.799722 0.455268
vt 0.751933 0.315002
vt 0.225930 0.940722
vt 0.074298 0.940543
vt 0.226477 0.938430
vt 0.074004 0.939078
vt 0.251054 0.229116
vt 0.406566 0.228378
vt 0.753755 0.316520
vt 0.405298 0.228402
vt 0.252354 0.231871
vt 0.250683 0.230586
vt 0.752410 0.317655
vt 0.893717 0.488157
vt 0.724176 0.455381
vt 0.946277 0.067386
vt 0.724530 0.455522
s 1
usemtl マテリアル.001
f 69/1/1 4/2/2 14/3/3
f 34/4/4 8/5/5 15/6/6
f 85/7/7 6/8/8 16/9/9
f 44/10/10 2/11/11 13/12/12
f 90/13/13 5/14/14 32/15/15
f 104/16/16 2/11/11 42/17/17
f 45/18/18 9/19/19 20/20/20
f 84/21/21 19/22/22 86/23/23
f 35/24/24 11/25/25 18/26/26
f 68/27/27 17/28/28 70/29/29
f 44/30/10 9/31/19 43/32/30
f 85/7/7 12/33/31 84/21/21
f 34/4/4 11/25/25 33/34/32
f 69/1/1 10/35/33 68/27/27
f 70/29/29 3/36/34 71/37/35
f 35/24/24 7/38/36 36/39/37
f 86/23/23 5/14/14 94/40/38
f 45/41/18 1/42/39 47/43/40
f 32/15/15 30/44/41 23/45/42
f 41/46/43 29/47/44 21/48/45
f 48/49/46 28/50/47 26/51/48
f 38/52/49 27/53/50 25/54/51
f 48/55/46 29/56/44 50/57/52
f 38/52/49 30/44/41 40/58/53
f 105/59/54 37/60/55 103/61/56
f 88/62/57 47/43/40 91/63/58
f 37/60/55 27/53/50 39/64/59
f 46/65/60 28/50/47 49/66/61
f 6/8/8 39/64/59 16/9/9
f 103/61/56 6/8/8 83/67/62
f 12/33/31 40/58/53 19/22/22
f 12/33/31 39/64/59 38/52/49
f 5/14/14 40/58/53 32/15/15
f 29/47/44 36/39/37 21/48/45
f 28/50/47 33/34/32 26/51/48
f 29/47/44 33/34/32 35/24/24
f 88/62/57 32/68/15 23/69/42
f 28/50/47 31/70/63 34/4/4
f 4/71/2 49/72/61 14/73/3
f 91/63/58 1/42/39 82/74/64
f 10/75/33 50/57/52 17/76/28
f 10/75/33 49/72/61 48/55/46
f 3/77/34 50/57/52 41/78/43
f 30/44/41 47/79/40 23/45/42
f 27/53/50 43/80/30 25/54/51
f 30/44/41 43/80/30 45/18/18
f 105/59/54 42/17/17 24/81/65
f 27/53/50 42/17/17 44/10/10
f 62/82/66 122/83/67 117/84/68
f 71/85/35 64/86/69 51/87/70
f 79/88/71 61/89/72 77/90/73
f 72/91/74 99/92/75 54/93/76
f 80/94/77 61/89/72 64/86/69
f 111/95/78 128/96/79 120/97/80
f 67/98/81 60/99/82 53/100/83
f 82/101/64 59/102/84 51/103/70
f 95/104/85 58/105/86 56/106/87
f 73/107/88 57/108/89 55/109/90
f 97/110/91 56/106/87 59/102/84
f 75/111/92 55/109/90 60/99/82
f 66/112/93 101/113/94 100/114/95
f 67/98/81 63/115/96 79/116/71
f 72/117/74 57/108/89 74/118/97
f 93/119/98 58/105/86 96/120/99
f 8/121/5 74/118/97 15/122/6
f 7/123/36 79/116/71 36/124/37
f 4/2/2 100/114/95 46/125/60
f 18/126/26 73/107/88 75/111/92
f 11/127/25 74/118/97 73/107/88
f 7/123/36 75/111/92 67/98/81
f 31/128/63 76/129/100 98/130/101
f 41/131/43 77/90/73 80/94/77
f 8/121/5 98/132/101 72/117/74
f 36/124/37 77/133/73 21/134/45
f 3/36/34 80/135/77 71/37/35
f 46/136/60 76/129/100 22/137/102
f 59/102/84 71/37/35 51/103/70
f 58/105/86 68/27/27 56/106/87
f 56/106/87 70/29/29 59/102/84
f 58/105/86 66/112/93 69/1/1
f 2/138/11 96/120/99 13/139/12
f 20/140/20 95/104/85 97/110/91
f 9/31/19 96/141/99 95/142/85
f 1/42/39 97/143/91 82/74/64
f 65/144/103 125/145/104 81/146/105
f 64/86/69 82/74/64 51/87/70
f 61/89/72 90/147/13 88/62/57
f 99/148/75 83/67/62 54/149/76
f 61/89/72 91/63/58 64/86/69
f 60/150/82 94/40/38 53/151/83
f 57/152/89 84/21/21 55/153/90
f 55/153/90 86/23/23 60/150/82
f 101/113/94 93/119/98 104/154/16
f 63/155/96 94/156/38 90/147/13
f 57/152/89 83/67/62 85/7/7
f 78/157/106 99/92/75 98/130/101
f 81/158/105 101/159/94 65/160/103
f 78/157/106 76/129/100 102/161/107
f 81/158/105 76/129/100 100/162/95
f 89/163/108 99/92/75 62/164/66
f 92/165/109 101/159/94 104/166/16
f 92/165/109 105/167/54 87/168/110
f 89/163/108 105/167/54 103/169/56
f 102/170/107 125/171/104 108/172/111
f 102/170/107 122/83/67 78/173/106
f 112/174/112 126/175/113 116/176/114
f 65/144/103 129/177/115 115/178/116
f 87/179/110 127/180/117 121/181/118
f 87/179/110 129/182/115 92/183/109
f 124/184/119 110/185/120 106/186/121
f 62/187/66 127/180/117 89/188/108
f 106/186/121 107/189/122 108/190/111
f 110/185/120 112/174/112 109/191/123
f 113/192/124 114/193/125 115/194/116
f 116/176/114 117/195/68 118/196/126
f 119/197/127 120/97/80 121/198/118
f 106/186/121 109/191/123 107/189/122
f 111/95/78 114/193/125 113/192/124
f 112/174/112 118/196/126 109/191/123
f 120/97/80 112/174/112 111/95/78
f 118/196/126 122/199/67 123/200/128
f 125/145/104 114/201/125 124/202/119
f 107/189/122 122/199/67 108/190/111
f 106/186/121 125/203/104 124/184/119
f 116/204/114 127/180/117 117/205/68
f 129/177/115 113/206/124 115/178/116
f 129/182/115 120/207/80 128/208/79
f 127/180/117 119/209/127 121/181/118
f 123/200/128 109/191/123 118/196/126
f 69/1/1 66/112/93 4/2/2
f 34/4/4 31/70/63 8/5/5
f 85/7/7 83/67/62 6/8/8
f 44/10/10 42/17/17 2/11/11
f 90/13/13 94/40/38 5/14/14
f 104/16/16 93/210/98 2/11/11
f 45/18/18 43/80/30 9/19/19
f 84/21/21 12/33/31 19/22/22
f 35/24/24 33/34/32 11/25/25
f 68/27/27 10/35/33 17/28/28
f 44/30/10 13/211/12 9/31/19
f 85/7/7 16/9/9 12/33/31
f 34/4/4 15/6/6 11/25/25
f 69/1/1 14/3/3 10/35/33
f 70/29/29 17/28/28 3/36/34
f 35/24/24 18/26/26 7/38/36
f 86/23/23 19/22/22 5/14/14
f 45/41/18 20/212/20 1/42/39
f 32/15/15 40/58/53 30/44/41
f 41/46/43 50/213/52 29/47/44
f 48/49/46 49/66/61 28/50/47
f 38/52/49 39/64/59 27/53/50
f 48/55/46 26/214/48 29/56/44
f 38/52/49 25/54/51 30/44/41
f 105/59/54 24/81/65 37/60/55
f 88/62/57 23/69/42 47/43/40
f 37/60/55 24/81/65 27/53/50
f 46/65/60 22/215/102 28/50/47
f 6/8/8 37/60/55 39/64/59
f 103/61/56 37/60/55 6/8/8
f 12/33/31 38/52/49 40/58/53
f 12/33/31 16/9/9 39/64/59
f 5/14/14 19/22/22 40/58/53
f 29/47/44 35/24/24 36/39/37
f 28/50/47 34/4/4 33/34/32
f 29/47/44 26/51/48 33/34/32
f 88/62/57 90/147/13 32/68/15
f 28/50/47 22/215/102 31/70/63
f 4/71/2 46/216/60 49/72/61
f 91/63/58 47/43/40 1/42/39
f 10/75/33 48/55/46 50/57/52
f 10/75/33 14/73/3 49/72/61
f 3/77/34 17/76/28 50/57/52
f 30/44/41 45/18/18 47/79/40
f 27/53/50 44/10/10 43/80/30
f 30/44/41 25/54/51 43/80/30
f 105/59/54 104/16/16 42/17/17
f 27/53/50 24/81/65 42/17/17
f 62/82/66 78/173/106 122/83/67
f 71/85/35 80/94/77 64/86/69
f 79/88/71 63/155/96 61/89/72
f 72/91/74 98/130/101 99/92/75
f 80/94/77 77/90/73 61/89/72
f 111/95/78 113/192/124 128/96/79
f 67/98/81 75/111/92 60/99/82
f 82/101/64 97/110/91 59/102/84
f 95/104/85 96/120/99 58/105/86
f 73/107/88 74/118/97 57/108/89
f 97/110/91 95/104/85 56/106/87
f 75/111/92 73/107/88 55/109/90
f 66/112/93 52/217/129 101/113/94
f 67/98/81 53/100/83 63/115/96
f 72/117/74 54/218/76 57/108/89
f 93/119/98 52/217/129 58/105/86
f 8/121/5 72/117/74 74/118/97
f 7/123/36 67/98/81 79/116/71
f 4/2/2 66/112/93 100/114/95
f 18/126/26 11/127/25 73/107/88
f 11/127/25 15/122/6 74/118/97
f 7/123/36 18/126/26 75/111/92
f 31/128/63 22/137/102 76/129/100
f 41/131/43 21/219/45 77/90/73
f 8/121/5 31/220/63 98/132/101
f 36/124/37 79/116/71 77/133/73
f 3/36/34 41/221/43 80/135/77
f 46/136/60 100/162/95 76/129/100
f 59/102/84 70/29/29 71/37/35
f 58/105/86 69/1/1 68/27/27
f 56/106/87 68/27/27 70/29/29
f 58/105/86 52/217/129 66/112/93
f 2/138/11 93/119/98 96/120/99
f 20/140/20 9/222/19 95/104/85
f 9/31/19 13/211/12 96/141/99
f 1/42/39 20/212/20 97/143/91
f 65/144/103 115/178/116 125/145/104
f 64/86/69 91/63/58 82/74/64
f 61/89/72 63/155/96 90/147/13
f 99/148/75 103/61/56 83/67/62
f 61/89/72 88/62/57 91/63/58
f 60/150/82 86/23/23 94/40/38
f 57/152/89 85/7/7 84/21/21
f 55/153/90 84/21/21 86/23/23
f 101/113/94 52/217/129 93/119/98
f 63/155/96 53/223/83 94/156/38
f 57/152/89 54/149/76 83/67/62
f 78/157/106 62/164/66 99/92/75
f 81/158/105 100/162/95 101/159/94
f 78/157/106 98/130/101 76/129/100
f 81/158/105 102/161/107 76/129/100
f 89/163/108 103/169/56 99/92/75
f 92/165/109 65/160/103 101/159/94
f 92/165/109 104/166/16 105/167/54
f 89/163/108 87/168/110 105/167/54
f 102/170/107 81/224/105 125/171/104
f 102/170/107 108/172/111 122/83/67
f 112/174/112 119/197/127 126/175/113
f 65/144/103 92/225/109 129/177/115
f 87/179/110 89/188/108 127/180/117
f 87/179/110 121/181/118 129/182/115
f 124/184/119 114/193/125 110/185/120
f 62/187/66 117/205/68 127/180/117
f 110/185/120 111/95/78 112/174/112
f 106/186/121 110/185/120 109/191/123
f 111/95/78 110/185/120 114/193/125
f 112/174/112 116/176/114 118/196/126
f 120/97/80 119/197/127 112/174/112
f 118/196/126 117/195/68 122/199/67
f 125/145/104 115/178/116 114/201/125
f 107/189/122 123/200/128 122/199/67
f 106/186/121 108/190/111 125/203/104
f 116/204/114 126/226/113 127/180/117
f 129/177/115 128/227/79 113/206/124
f 129/182/115 121/181/118 120/207/80
f 127/180/117 126/226/113 119/209/127
f 123/200/128 107/189/122 109/191/123
