# Blender 3.3.1
# www.blender.org
mtllib leftfoot.mtl
o leftfoot
v 0.051187 0.058782 -0.068798
v 0.051187 0.070560 0.075049
v 0.204660 0.058782 -0.068798
v 0.204660 0.070560 0.075049
v 0.033940 -0.111382 -0.071138
v 0.033940 -0.096957 0.105039
v 0.221906 -0.096957 0.105039
v 0.221906 -0.111382 -0.071138
v 0.039315 -0.060849 -0.070204
v 0.039315 -0.047248 0.095897
v 0.216531 -0.047248 0.095897
v 0.216531 -0.060849 -0.070204
v 0.081711 -0.462228 0.001629
v 0.174135 -0.462228 0.001629
v 0.174135 -0.470203 -0.095774
v 0.081711 -0.470203 -0.095774
v 0.127923 0.135013 0.086045
v 0.127923 0.120588 -0.090132
v 0.127923 -0.114370 -0.107625
v 0.127923 -0.093969 0.141526
v 0.127923 -0.007767 -0.103114
v 0.127923 0.010480 0.119734
v 0.127923 -0.462881 0.018432
v 0.127923 -0.473582 -0.112247
v 0.033940 0.127800 -0.002043
v 0.170301 0.127800 -0.002043
v 0.260835 -0.104170 0.016950
v -0.004989 -0.104170 0.016950
v 0.246803 0.001357 0.008310
v -0.042798 0.001357 0.008310
v 0.065924 -0.468232 -0.046907
v 0.189923 -0.468232 -0.046907
v 0.127923 0.153022 -0.004109
v 0.099961 -0.584732 -0.068343
v 0.099961 -0.577825 0.016010
v 0.180002 -0.584732 -0.068343
v 0.180002 -0.577825 0.016010
v 0.096924 -0.512160 -0.006172
v 0.189348 -0.512160 -0.006172
v 0.189348 -0.520136 -0.103574
v 0.096924 -0.520136 -0.103574
v 0.139982 -0.579346 0.025677
v 0.139982 -0.587805 -0.077634
v 0.143136 -0.512814 0.010632
v 0.143136 -0.523514 -0.120047
v 0.090966 -0.583575 -0.025978
v 0.188997 -0.583575 -0.025978
v 0.081136 -0.518164 -0.054708
v 0.205136 -0.518164 -0.054708
v 0.139982 -0.588760 -0.025554
v 0.133380 -0.510123 0.229676
v 0.136417 -0.575788 0.251858
v 0.176438 -0.577308 0.261525
v 0.225804 -0.510123 0.229676
v 0.216458 -0.575788 0.251858
v 0.179592 -0.510776 0.246480
v 0.418404 -0.524956 -0.010493
v 0.409058 -0.590620 0.011689
v 0.418052 -0.596371 -0.030299
v 0.418404 -0.532931 -0.107895
v 0.409058 -0.597527 -0.072664
v 0.434192 -0.530959 -0.059029
v -0.116137 -0.598041 -0.024397
v -0.116268 -0.599198 -0.066762
v -0.119305 -0.526626 -0.004591
v -0.116268 -0.592291 0.017591
v -0.119305 -0.534602 -0.101993
v -0.118857 -0.532630 -0.053127
v 0.199346 -0.564537 0.185984
v 0.205299 -0.522716 0.171857
v 0.148370 -0.564537 0.185984
v 0.173858 -0.565505 0.192141
v 0.175867 -0.523132 0.182558
v 0.146436 -0.522716 0.171857
v 0.314045 -0.529536 -0.029920
v 0.308984 -0.565094 -0.017908
v 0.308984 -0.568835 -0.063587
v 0.314045 -0.533854 -0.082666
v 0.313854 -0.568208 -0.040646
v 0.322594 -0.532786 -0.056203
v -0.021294 -0.577814 -0.059303
v -0.020885 -0.577162 -0.035432
v -0.023339 -0.540306 -0.051620
v -0.023005 -0.541417 -0.079155
v -0.021294 -0.573922 -0.011774
v -0.023005 -0.536923 -0.024272
v -0.117723 -0.560816 0.006959
v -0.068920 -0.529379 -0.054116
v -0.071476 -0.523546 -0.005528
v -0.070957 -0.589373 0.016703
v -0.070813 -0.595141 -0.025280
v -0.117451 -0.566444 -0.038275
v -0.117525 -0.572445 -0.081353
v -0.071699 -0.531536 -0.102926
v -0.067901 -0.596083 -0.067710
v -0.069639 -0.566544 -0.083826
v -0.022151 -0.559588 -0.069244
v 0.035876 -0.268672 0.012349
v 0.035876 -0.258654 0.134691
v 0.161263 -0.258654 0.134691
v 0.161263 -0.268672 0.012349
v 0.098569 -0.257610 0.158523
v 0.098569 -0.271518 -0.011334
v 0.011407 -0.264564 0.073594
v 0.185732 -0.264564 0.073594
vn -0.9992 0.0390 -0.0032
vn -0.6026 0.1802 0.7774
vn -0.5329 0.3550 0.7681
vn -0.0000 0.2248 0.9744
vn 0.6651 0.1981 0.7200
vn 0.6962 0.3398 0.6323
vn 0.9703 0.2411 -0.0197
vn 0.6651 0.0783 -0.7426
vn 0.6962 0.2325 -0.6792
vn -0.0000 0.0633 -0.9980
vn -0.6026 0.0513 -0.7964
vn -0.5329 0.2254 -0.8156
vn 0.0250 0.9964 -0.0816
vn -0.0075 0.3398 -0.9405
vn -0.0722 -0.0627 -0.9954
vn -0.8457 -0.1241 -0.5190
vn -0.6237 -0.1245 -0.7717
vn 0.9949 -0.0962 -0.0308
vn 0.9411 -0.2427 0.2355
vn 0.7963 -0.0926 -0.5978
vn 0.0558 0.1408 0.9885
vn -0.0814 -0.0661 0.9945
vn 0.5169 -0.1671 0.8396
vn -0.9632 -0.1569 0.2181
vn -0.6144 -0.0764 0.7853
vn -0.6930 0.1543 0.7042
vn 0.0131 -0.1630 -0.9865
vn 0.6506 -0.1518 -0.7441
vn 0.7148 0.0309 0.6987
vn -0.9740 -0.2177 -0.0625
vn 0.7202 0.6915 -0.0566
vn -0.0075 0.4882 0.8727
vn -0.9776 -0.1902 -0.0901
vn -0.9739 0.1828 -0.1344
vn -0.6310 0.0904 0.7705
vn 0.9715 0.2302 -0.0574
vn 0.7072 -0.1198 0.6968
vn 0.6946 0.3420 0.6329
vn 0.6042 0.3521 -0.7148
vn 0.7370 0.6655 -0.1179
vn 0.4439 -0.0610 -0.8940
vn 0.0623 -0.1242 -0.9903
vn -0.7270 0.0316 -0.6859
vn -0.4046 -0.1554 -0.9012
vn -0.0337 -0.3709 0.9281
vn 0.1454 0.2856 0.9473
vn -0.6866 -0.4162 0.5961
vn -0.1035 0.2092 -0.9724
vn -0.0000 -0.9967 0.0816
vn -0.0121 -0.7236 -0.6901
vn 0.1628 -0.7677 -0.6197
vn 0.1727 0.0225 -0.9847
vn 0.1746 0.0054 -0.9846
vn 0.0885 0.9928 -0.0808
vn 0.0019 -0.9977 -0.0680
vn -0.0153 -0.0868 0.9961
vn -0.6609 -0.0985 0.7440
vn -0.0582 0.0201 -0.9981
vn 0.3592 -0.0092 -0.9332
vn 0.4930 -0.6325 -0.5974
vn -0.1490 -0.7560 -0.6374
vn 0.8188 -0.5355 -0.2071
vn 0.9616 0.2117 -0.1747
vn 0.9640 0.2183 0.1521
vn -0.0810 -0.9932 0.0837
vn -0.7529 -0.2940 0.5889
vn 0.0125 0.6643 0.7474
vn 0.0331 -0.0709 0.9969
vn 0.2529 -0.0409 0.9666
vn 0.1543 -0.9849 0.0788
vn 0.2140 -0.9729 0.0880
vn 0.2193 -0.6988 -0.6809
vn 0.7735 -0.5369 0.3369
vn -0.0046 -0.9923 0.1240
vn 0.0201 0.4492 0.8932
vn 0.6346 -0.1169 0.7640
vn 0.0025 0.9951 -0.0991
vn -0.9175 0.3789 0.1208
vn -0.9354 0.2898 0.2026
vn -0.8993 -0.4323 -0.0661
vn 0.9821 0.1487 -0.1154
vn 0.8598 -0.4664 0.2078
vn 0.7062 0.3158 0.6337
vn -0.0942 -0.9924 0.0788
vn -0.0551 -0.7581 -0.6498
vn 0.0408 0.9958 -0.0822
vn -0.9221 -0.3859 0.0292
vn -0.4681 -0.0481 0.8824
vn -0.7190 0.1926 0.6678
vn -0.8395 -0.4218 -0.3426
vn -0.9991 -0.0415 0.0013
vn 0.1228 -0.4705 -0.8738
vn 0.1528 -0.7638 -0.6271
vn 0.1825 -0.0848 0.9795
vn 0.1007 0.6898 0.7170
vn 0.2137 0.5586 0.8014
vn 0.2351 -0.0386 0.9712
vn 0.0161 0.9965 -0.0824
vn 0.1202 -0.9891 0.0854
vn -0.8179 0.3295 0.4717
vn -0.5005 0.0019 -0.8658
vn -0.9539 0.2992 -0.0230
vn -0.7920 -0.3203 -0.5197
vn 0.1731 -0.4640 -0.8688
vn -0.6887 0.7226 -0.0592
vt 0.514666 0.492825
vt 0.205708 0.406879
vt 0.135760 0.898109
vt 0.197148 0.823881
vt 0.251538 0.074454
vt 0.197148 0.406879
vt 0.205705 0.414211
vt 0.198871 0.318890
vt 0.197145 0.414211
vt 0.251538 0.067831
vt 0.197002 0.327174
vt 0.517827 0.493115
vt 0.309274 0.050710
vt 0.124962 0.858949
vt 0.129530 0.849619
vt 0.254409 0.075677
vt 0.199584 0.328585
vt 0.254409 0.067565
vt 0.309547 0.036906
vt 0.201874 0.318439
vt 0.316198 0.044997
vt 0.137973 0.898315
vt 0.516879 0.493031
vt 0.124365 0.858270
vt 0.196573 0.823332
vt 0.128672 0.849475
vt 0.253557 0.075296
vt 0.253557 0.067649
vt 0.198814 0.328150
vt 0.200973 0.318584
vt 0.363686 0.146975
vt 0.126363 0.147006
vt 0.369229 0.859198
vt 0.356014 0.407335
vt 0.367886 0.148335
vt 0.797242 0.067382
vt 0.646623 0.072145
vt 0.358157 0.412671
vt 0.567504 0.074933
vt 0.129380 0.864386
vt 0.123837 0.152164
vt 0.745605 0.404735
vt 0.571859 0.074207
vt 0.250395 0.071530
vt 0.196138 0.410535
vt 0.512644 0.496188
vt 0.206622 0.410535
vt 0.196138 0.316988
vt 0.516835 0.497988
vt 0.199809 0.315280
vt 0.314114 0.049530
vt 0.254294 0.072552
vt 0.514995 0.497287
vt 0.198184 0.315858
vt 0.252510 0.072175
vt 0.797242 0.069802
vt 0.366093 0.146717
vt 0.569845 0.075548
vt 0.745605 0.402330
vt 0.201382 0.823048
vt 0.201382 0.406045
vt 0.133738 0.894840
vt 0.201379 0.412560
vt 0.196138 0.322538
vt 0.201781 0.323951
vt 0.314307 0.039769
vt 0.126942 0.854427
vt 0.199948 0.323614
vt 0.201476 0.819401
vt 0.125029 0.853740
vt 0.137023 0.892180
vt 0.367615 0.861721
vt 0.125008 0.149658
vt 0.130550 0.861881
vt 0.647756 0.073711
vt 0.356609 0.410112
vt 0.201362 0.410531
vt 0.135579 0.047480
vt 0.036906 0.227956
vt 0.140587 0.047741
vt 0.521196 0.325296
vt 0.135387 0.051297
vt 0.602834 0.321675
vt 0.036906 0.410831
vt 0.140395 0.051558
vt 0.233059 0.052210
vt 0.126926 0.147958
vt 0.364168 0.147923
vt 0.038042 0.226929
vt 0.522140 0.325138
vt 0.037496 0.411724
vt 0.444442 0.137252
vt 0.355236 0.408389
vt 0.798119 0.066437
vt 0.228678 0.051660
vt 0.601749 0.320792
vt 0.566901 0.075782
vt 0.357379 0.413725
vt 0.450238 0.137252
vt 0.133671 0.051620
vt 0.124400 0.153116
vt 0.527936 0.325117
vt 0.744708 0.403788
vt 0.133893 0.047212
vt 0.141052 0.049680
vt 0.134918 0.049360
vt 0.798119 0.068857
vt 0.366575 0.147665
vt 0.230991 0.050954
vt 0.744708 0.401383
vt 0.569242 0.076397
vt 0.132792 0.049365
vt 0.138102 0.047182
vt 0.137867 0.051858
vt 0.125571 0.150611
vt 0.525037 0.324373
vt 0.355831 0.411166
vt 0.447341 0.138006
vt 0.137979 0.049522
vt 0.679280 0.230357
vt 0.233059 0.038162
vt 0.038042 0.241001
vt 0.036906 0.242027
vt 0.154400 0.050212
vt 0.680386 0.230684
vt 0.680404 0.229200
vt 0.154865 0.052152
vt 0.153267 0.054393
vt 0.679301 0.226368
vt 0.228678 0.037613
vt 0.680404 0.227230
vt 0.154208 0.054030
vt 0.679271 0.228788
vt 0.230991 0.036906
vt 0.647837 0.304880
vt 0.444765 0.148197
vt 0.646652 0.304136
vt 0.443820 0.147761
vt 0.139516 0.062472
vt 0.646623 0.305609
vt 0.136988 0.062772
vt 0.132792 0.062534
vt 0.450561 0.148197
vt 0.134508 0.062212
vt 0.135643 0.063439
vt 0.647837 0.306813
vt 0.447664 0.148951
vt 0.608619 0.139738
vt 0.138607 0.037312
vt 0.608579 0.142225
vt 0.136106 0.037174
vt 0.325307 0.154552
vt 0.522095 0.314809
vt 0.607409 0.138238
vt 0.608579 0.137252
vt 0.141114 0.037435
vt 0.326406 0.154901
vt 0.527891 0.314789
vt 0.134419 0.036906
vt 0.607409 0.143981
vt 0.524994 0.314821
vt 0.607446 0.141107
vt 0.150437 0.053007
vt 0.037121 0.400689
vt 0.149837 0.053238
vt 0.229216 0.041192
vt 0.037496 0.401258
vt 0.036997 0.238302
vt 0.150559 0.050575
vt 0.150855 0.051810
vt 0.230689 0.040742
vt 0.037720 0.237649
vt 0.232006 0.041542
vt 0.445939 0.143212
vt 0.602246 0.314789
vt 0.445428 0.142975
vt 0.138164 0.057602
vt 0.602834 0.315268
vt 0.135452 0.057461
vt 0.134523 0.057635
vt 0.449078 0.143212
vt 0.136795 0.057764
vt 0.447509 0.143620
vt 0.136443 0.041723
vt 0.137852 0.041817
vt 0.524962 0.319386
vt 0.526595 0.319396
vt 0.135493 0.041572
vt 0.326256 0.150083
vt 0.139265 0.041870
vt 0.522797 0.319497
vt 0.325637 0.149886
vt 0.523329 0.319407
vt 0.608018 0.137724
vt 0.325879 0.154734
vt 0.525042 0.317206
vt 0.325307 0.152469
vt 0.522140 0.317094
vt 0.326406 0.152928
vt 0.140970 0.039593
vt 0.138463 0.039471
vt 0.608052 0.140399
vt 0.608094 0.142952
vt 0.135407 0.037063
vt 0.527936 0.317063
vt 0.134268 0.039174
vt 0.135952 0.039478
vt 0.135181 0.039338
vt 0.135967 0.041647
vt 0.306872 0.047509
vt 0.129296 0.856502
vt 0.572810 0.066437
vt 0.132468 0.850024
vt 0.257178 0.076073
vt 0.364311 0.137671
vt 0.369853 0.849894
vt 0.306872 0.038079
vt 0.257178 0.070662
vt 0.646623 0.066437
vt 0.370007 0.139516
vt 0.311491 0.043698
vt 0.566901 0.067423
vt 0.358157 0.404580
vt 0.257119 0.073975
vt 0.367597 0.137252
vt 0.310079 0.046695
vt 0.570089 0.068325
vt 0.130706 0.853360
vt 0.367615 0.852993
vt 0.310084 0.040145
vt 0.648200 0.068536
vt 0.356100 0.401383
s 1
usemtl frog
f 30/69/1 10/25/2 2/4/3
f 22/55/4 11/28/5 4/10/6
f 29/68/7 12/30/8 3/8/9
f 21/53/10 9/23/11 1/1/12
f 33/77/13 18/47/14 1/2/12
f 103/226/15 98/210/16 5/13/17
f 27/66/18 105/230/19 101/221/20
f 20/52/21 102/224/22 100/218/23
f 104/228/24 99/213/25 6/15/26
f 19/49/27 5/12/17 9/23/11
f 27/65/18 8/20/28 12/30/8
f 20/52/21 7/18/29 11/28/5
f 28/67/30 6/15/26 10/26/2
f 10/27/2 6/16/26 20/52/21
f 12/30/8 8/20/28 19/50/27
f 6/16/26 99/214/25 102/224/22
f 8/21/28 101/221/20 103/226/15
f 26/63/31 3/7/9 18/47/14
f 3/8/9 12/30/8 21/54/10
f 2/5/3 10/27/2 22/55/4
f 17/45/32 4/9/6 26/63/31
f 9/24/11 5/14/17 28/67/30
f 11/29/5 7/17/29 27/65/18
f 98/211/16 104/228/24 28/67/30
f 7/19/29 100/217/23 105/230/19
f 2/6/3 17/45/32 33/77/13
f 4/11/6 11/29/5 29/68/7
f 1/3/12 9/22/11 30/71/1
f 31/73/33 48/115/34 38/87/35
f 32/76/36 14/34/37 39/93/38
f 15/38/39 32/76/36 49/117/40
f 15/39/39 40/97/41 45/111/42
f 16/41/43 41/101/44 48/115/34
f 14/36/37 23/56/45 44/107/46
f 23/57/45 13/31/47 38/88/35
f 24/59/48 45/110/42 41/103/44
f 50/119/49 43/106/50 36/82/51
f 84/187/52 94/205/53 88/196/54
f 72/170/55 53/127/56 52/124/57
f 78/180/58 60/142/59 61/144/60
f 43/106/50 34/78/61 41/104/44
f 40/100/41 36/82/51 43/106/50
f 69/163/62 70/165/63 54/128/64
f 50/119/49 46/113/65 34/78/61
f 35/80/66 46/113/65 50/119/49
f 75/174/67 76/176/68 58/138/69
f 82/185/70 91/201/71 95/207/72
f 37/85/73 42/105/74 50/119/49
f 56/133/75 53/126/56 55/131/76
f 52/125/57 53/126/56 56/133/75
f 73/171/77 74/173/78 51/121/79
f 73/171/77 56/134/75 54/130/64
f 72/170/55 69/163/62 55/132/76
f 71/168/80 52/123/57 51/122/79
f 62/145/81 59/141/82 61/144/60
f 57/135/83 58/137/69 59/140/82
f 76/177/68 79/182/84 59/141/82
f 79/182/84 77/179/85 61/144/60
f 80/183/86 62/147/81 60/143/59
f 80/183/86 75/174/67 57/136/83
f 63/148/87 66/155/88 87/194/89
f 64/150/90 63/148/87 92/202/91
f 97/209/92 81/184/93 95/207/72
f 85/189/94 86/192/95 89/197/96
f 85/190/94 90/200/97 91/201/71
f 86/193/95 83/186/98 88/196/54
f 35/79/66 71/168/80 74/172/78
f 42/105/74 37/85/73 69/163/62
f 44/109/46 73/171/77 70/166/63
f 44/109/46 38/86/35 74/173/78
f 37/84/73 39/91/38 70/167/63
f 42/105/74 72/170/55 71/169/80
f 49/118/40 39/92/38 75/174/67
f 49/118/40 80/183/86 78/181/58
f 47/114/99 36/82/51 77/179/85
f 47/114/99 79/182/84 76/177/68
f 39/96/38 37/83/73 76/178/68
f 40/100/41 78/180/58 77/179/85
f 48/116/34 83/186/98 86/193/95
f 46/113/65 35/80/66 85/190/94
f 38/90/35 86/193/95 85/191/94
f 41/104/44 81/184/93 97/209/92
f 46/113/65 82/185/70 81/184/93
f 48/116/34 41/102/44 84/187/52
f 90/199/97 65/152/100 87/195/89
f 90/200/97 66/156/88 63/149/87
f 94/205/53 67/158/101 68/161/102
f 93/203/103 92/202/91 68/162/102
f 89/198/96 88/196/54 68/161/102
f 96/208/104 95/207/72 64/151/90
f 91/201/71 63/149/87 64/151/90
f 92/202/91 87/194/89 65/154/100
f 96/208/104 94/206/53 84/188/52
f 93/204/103 67/159/101 94/206/53
f 14/37/37 32/75/36 105/231/19
f 98/211/16 16/40/43 31/74/33
f 15/39/39 24/58/48 103/227/15
f 99/215/25 13/31/47 23/57/45
f 104/229/24 31/72/33 13/33/47
f 23/57/45 14/35/37 100/220/23
f 32/76/36 15/38/39 101/223/20
f 103/227/15 24/58/48 16/43/43
f 30/69/1 2/4/3 25/60/105
f 22/55/4 4/10/6 17/44/32
f 29/68/7 3/8/9 26/64/31
f 21/53/10 1/1/12 18/46/14
f 33/77/13 1/2/12 25/61/105
f 103/226/15 5/13/17 19/51/27
f 27/66/18 101/221/20 8/21/28
f 20/52/21 100/218/23 7/18/29
f 104/228/24 6/15/26 28/67/30
f 19/49/27 9/23/11 21/53/10
f 27/65/18 12/30/8 29/68/7
f 20/52/21 11/28/5 22/55/4
f 28/67/30 10/26/2 30/70/1
f 10/27/2 20/52/21 22/55/4
f 12/30/8 19/50/27 21/54/10
f 6/16/26 102/224/22 20/52/21
f 8/21/28 103/226/15 19/51/27
f 26/63/31 18/47/14 33/77/13
f 3/8/9 21/54/10 18/48/14
f 2/5/3 22/55/4 17/44/32
f 17/45/32 26/63/31 33/77/13
f 9/24/11 28/67/30 30/70/1
f 11/29/5 27/65/18 29/68/7
f 98/211/16 28/67/30 5/14/17
f 7/19/29 105/230/19 27/66/18
f 2/6/3 33/77/13 25/61/105
f 4/11/6 29/68/7 26/64/31
f 1/3/12 30/71/1 25/62/105
f 31/73/33 38/87/35 13/32/47
f 32/76/36 39/93/38 49/117/40
f 15/38/39 49/117/40 40/98/41
f 15/39/39 45/111/42 24/58/48
f 16/41/43 48/115/34 31/73/33
f 14/36/37 44/107/46 39/94/38
f 23/57/45 38/88/35 44/108/46
f 24/59/48 41/103/44 16/42/43
f 50/119/49 36/82/51 47/114/99
f 84/187/52 88/196/54 83/186/98
f 72/170/55 52/124/57 71/169/80
f 78/180/58 61/144/60 77/179/85
f 43/106/50 41/104/44 45/112/42
f 40/100/41 43/106/50 45/112/42
f 69/163/62 54/128/64 55/132/76
f 50/119/49 34/78/61 43/106/50
f 35/80/66 50/119/49 42/105/74
f 75/174/67 58/138/69 57/136/83
f 82/185/70 95/207/72 81/184/93
f 37/85/73 50/119/49 47/114/99
f 56/133/75 55/131/76 54/129/64
f 52/125/57 56/133/75 51/120/79
f 73/171/77 51/121/79 56/134/75
f 73/171/77 54/130/64 70/166/63
f 72/170/55 55/132/76 53/127/56
f 71/168/80 51/122/79 74/172/78
f 62/145/81 61/144/60 60/142/59
f 57/135/83 59/140/82 62/146/81
f 76/177/68 59/141/82 58/139/69
f 79/182/84 61/144/60 59/141/82
f 80/183/86 60/143/59 78/181/58
f 80/183/86 57/136/83 62/147/81
f 63/148/87 87/194/89 92/202/91
f 64/150/90 92/202/91 93/203/103
f 97/209/92 95/207/72 96/208/104
f 85/189/94 89/197/96 90/199/97
f 85/190/94 91/201/71 82/185/70
f 86/193/95 88/196/54 89/198/96
f 35/79/66 74/172/78 38/89/35
f 42/105/74 69/163/62 72/170/55
f 44/109/46 70/166/63 39/95/38
f 44/109/46 74/173/78 73/171/77
f 37/84/73 70/167/63 69/164/62
f 42/105/74 71/169/80 35/80/66
f 49/118/40 75/174/67 80/183/86
f 49/118/40 78/181/58 40/99/41
f 47/114/99 77/179/85 79/182/84
f 47/114/99 76/177/68 37/85/73
f 39/96/38 76/178/68 75/175/67
f 40/100/41 77/179/85 36/82/51
f 48/116/34 86/193/95 38/90/35
f 46/113/65 85/190/94 82/185/70
f 38/90/35 85/191/94 35/81/66
f 81/184/93 41/104/44 34/78/61
f 41/104/44 97/209/92 84/188/52
f 46/113/65 81/184/93 34/78/61
f 48/116/34 84/187/52 83/186/98
f 65/152/100 90/199/97 89/197/96
f 90/199/97 87/195/89 66/157/88
f 90/200/97 63/149/87 91/201/71
f 94/205/53 68/161/102 88/196/54
f 93/203/103 68/162/102 67/160/101
f 89/198/96 68/161/102 65/153/100
f 96/208/104 64/151/90 93/204/103
f 91/201/71 64/151/90 95/207/72
f 92/202/91 65/154/100 68/162/102
f 96/208/104 84/188/52 97/209/92
f 93/204/103 94/206/53 96/208/104
f 14/37/37 105/231/19 100/219/23
f 98/211/16 31/74/33 104/228/24
f 15/39/39 103/227/15 101/222/20
f 99/215/25 23/57/45 102/225/22
f 104/229/24 13/33/47 99/216/25
f 23/57/45 100/220/23 102/225/22
f 32/76/36 101/223/20 105/232/19
f 103/227/15 16/43/43 98/212/16
