# Blender 4.0.1
# www.blender.org
mtllib leftfoot.mtl
o leftfoot
v 0.201187 0.900589 -0.068798
v 0.201187 0.912367 0.075049
v 0.354660 0.900589 -0.068798
v 0.354660 0.912367 0.075049
v 0.183940 0.730425 -0.071138
v 0.183940 0.744850 0.105039
v 0.371906 0.744850 0.105039
v 0.371906 0.730425 -0.071138
v 0.189315 0.780958 -0.070204
v 0.189315 0.794559 0.095897
v 0.366531 0.794559 0.095897
v 0.366531 0.780958 -0.070204
v 0.231711 0.379579 0.001629
v 0.324135 0.379579 0.001629
v 0.324135 0.371604 -0.095774
v 0.231711 0.371604 -0.095774
v 0.277923 0.976820 0.086045
v 0.277923 0.962395 -0.090132
v 0.277923 0.727437 -0.107625
v 0.277923 0.747838 0.141526
v 0.277923 0.834040 -0.103114
v 0.277923 0.852287 0.119734
v 0.277923 0.378926 0.018432
v 0.277923 0.368225 -0.112247
v 0.183940 0.969607 -0.002043
v 0.320301 0.969607 -0.002043
v 0.410835 0.737637 0.016950
v 0.145011 0.737637 0.016950
v 0.396803 0.843164 0.008310
v 0.107202 0.843164 0.008310
v 0.215924 0.373575 -0.046907
v 0.339923 0.373575 -0.046907
v 0.277923 0.994829 -0.004109
v 0.249961 0.257075 -0.068343
v 0.249961 0.263982 0.016010
v 0.330002 0.257075 -0.068343
v 0.330002 0.263982 0.016010
v 0.246924 0.329647 -0.006172
v 0.339348 0.329647 -0.006172
v 0.339348 0.321671 -0.103574
v 0.246924 0.321671 -0.103574
v 0.289982 0.262461 0.025677
v 0.289982 0.254002 -0.077634
v 0.293136 0.328993 0.010632
v 0.293136 0.318293 -0.120047
v 0.240966 0.258232 -0.025978
v 0.338997 0.258232 -0.025978
v 0.231136 0.323643 -0.054708
v 0.355136 0.323643 -0.054708
v 0.289982 0.253047 -0.025554
v 0.283380 0.331684 0.229676
v 0.286417 0.266019 0.251858
v 0.326438 0.264499 0.261525
v 0.375804 0.331684 0.229676
v 0.366458 0.266019 0.251858
v 0.329592 0.331031 0.246480
v 0.568404 0.316851 -0.010493
v 0.559058 0.251187 0.011689
v 0.568052 0.245436 -0.030299
v 0.568404 0.308876 -0.107895
v 0.559058 0.244280 -0.072664
v 0.584192 0.310848 -0.059029
v 0.033863 0.243766 -0.024397
v 0.033732 0.242609 -0.066762
v 0.030695 0.315181 -0.004591
v 0.033732 0.249516 0.017591
v 0.030695 0.307205 -0.101993
v 0.031143 0.309177 -0.053127
v 0.349346 0.277270 0.185984
v 0.355299 0.319091 0.171857
v 0.298370 0.277270 0.185984
v 0.323858 0.276302 0.192141
v 0.325867 0.318675 0.182558
v 0.296436 0.319091 0.171857
v 0.464045 0.312271 -0.029920
v 0.458984 0.276713 -0.017908
v 0.458984 0.272972 -0.063587
v 0.464045 0.307953 -0.082666
v 0.463854 0.273599 -0.040646
v 0.472594 0.309021 -0.056203
v 0.128706 0.263993 -0.059303
v 0.129115 0.264645 -0.035432
v 0.126661 0.301501 -0.051620
v 0.126995 0.300390 -0.079155
v 0.128706 0.267885 -0.011774
v 0.126995 0.304884 -0.024272
v 0.032277 0.280991 0.006959
v 0.081080 0.312428 -0.054116
v 0.078524 0.318261 -0.005528
v 0.079043 0.252434 0.016703
v 0.079187 0.246666 -0.025280
v 0.032549 0.275363 -0.038275
v 0.032475 0.269362 -0.081353
v 0.078301 0.310271 -0.102926
v 0.082099 0.245724 -0.067710
v 0.080361 0.275263 -0.083826
v 0.127849 0.282219 -0.069244
v 0.185876 0.573135 0.012349
v 0.185876 0.583153 0.134691
v 0.311263 0.583153 0.134691
v 0.311263 0.573135 0.012349
v 0.248569 0.584197 0.158523
v 0.248569 0.570289 -0.011334
v 0.161407 0.577243 0.073594
v 0.335732 0.577243 0.073594
vn -0.9992 0.0390 -0.0032
vn -0.5329 0.3550 0.7681
vn -0.6026 0.1802 0.7774
vn -0.0000 0.2248 0.9744
vn 0.6962 0.3398 0.6323
vn 0.6651 0.1981 0.7200
vn 0.9703 0.2411 -0.0197
vn 0.6962 0.2325 -0.6792
vn 0.6651 0.0783 -0.7426
vn -0.0000 0.0633 -0.9980
vn -0.5329 0.2254 -0.8156
vn -0.6026 0.0513 -0.7964
vn 0.0250 0.9964 -0.0816
vn -0.0075 0.3398 -0.9405
vn -0.0722 -0.0627 -0.9954
vn -0.6237 -0.1245 -0.7717
vn -0.8457 -0.1241 -0.5190
vn 0.9949 -0.0962 -0.0308
vn 0.7963 -0.0926 -0.5978
vn 0.9411 -0.2427 0.2355
vn 0.0558 0.1408 0.9885
vn 0.5169 -0.1671 0.8396
vn -0.0814 -0.0661 0.9945
vn -0.9632 -0.1569 0.2181
vn -0.6930 0.1543 0.7043
vn -0.6144 -0.0764 0.7853
vn 0.0131 -0.1630 -0.9865
vn 0.6506 -0.1518 -0.7441
vn 0.7148 0.0309 0.6987
vn -0.9740 -0.2177 -0.0625
vn 0.7202 0.6915 -0.0566
vn -0.0075 0.4882 0.8727
vn -0.9776 -0.1902 -0.0901
vn -0.6310 0.0904 0.7705
vn -0.9739 0.1828 -0.1344
vn 0.9714 0.2302 -0.0574
vn 0.6946 0.3420 0.6329
vn 0.7072 -0.1198 0.6968
vn 0.6042 0.3521 -0.7148
vn 0.7370 0.6655 -0.1179
vn 0.0623 -0.1242 -0.9903
vn 0.4439 -0.0610 -0.8940
vn -0.7270 0.0316 -0.6859
vn -0.4046 -0.1554 -0.9012
vn 0.1454 0.2856 0.9473
vn -0.0337 -0.3709 0.9281
vn -0.6866 -0.4162 0.5961
vn -0.1035 0.2092 -0.9724
vn -0.0000 -0.9967 0.0816
vn 0.1628 -0.7677 -0.6197
vn -0.0121 -0.7236 -0.6902
vn 0.1727 0.0225 -0.9847
vn 0.0886 0.9928 -0.0808
vn 0.1746 0.0054 -0.9846
vn 0.0019 -0.9977 -0.0680
vn -0.6609 -0.0985 0.7439
vn -0.0153 -0.0868 0.9961
vn -0.0582 0.0201 -0.9981
vn 0.4930 -0.6325 -0.5974
vn 0.3592 -0.0092 -0.9332
vn -0.1490 -0.7560 -0.6374
vn 0.8188 -0.5355 -0.2071
vn 0.9640 0.2183 0.1521
vn 0.9616 0.2117 -0.1747
vn -0.0813 -0.9931 0.0839
vn -0.7529 -0.2940 0.5889
vn 0.0125 0.6643 0.7474
vn 0.2529 -0.0409 0.9666
vn 0.0331 -0.0709 0.9969
vn 0.1543 -0.9849 0.0788
vn 0.2193 -0.6988 -0.6809
vn 0.2140 -0.9729 0.0880
vn 0.7735 -0.5369 0.3369
vn -0.0046 -0.9923 0.1240
vn 0.0201 0.4492 0.8932
vn 0.6346 -0.1169 0.7640
vn 0.0025 0.9951 -0.0991
vn -0.9354 0.2898 0.2026
vn -0.9175 0.3789 0.1208
vn -0.8993 -0.4323 -0.0661
vn 0.9821 0.1487 -0.1154
vn 0.8598 -0.4664 0.2078
vn 0.7062 0.3158 0.6337
vn -0.0942 -0.9924 0.0788
vn -0.0551 -0.7581 -0.6498
vn 0.0408 0.9958 -0.0822
vn -0.9221 -0.3859 0.0292
vn -0.7190 0.1926 0.6678
vn -0.4681 -0.0481 0.8824
vn -0.8395 -0.4218 -0.3426
vn -0.9991 -0.0414 0.0011
vn 0.1228 -0.4705 -0.8738
vn 0.1528 -0.7638 -0.6271
vn 0.1825 -0.0848 0.9796
vn 0.2137 0.5586 0.8014
vn 0.1007 0.6898 0.7170
vn 0.2351 -0.0386 0.9712
vn 0.0162 0.9965 -0.0824
vn 0.1202 -0.9891 0.0855
vn -0.8179 0.3295 0.4717
vn -0.9539 0.2992 -0.0230
vn -0.5005 0.0019 -0.8658
vn -0.7920 -0.3203 -0.5197
vn 0.1731 -0.4640 -0.8688
vn -0.6887 0.7226 -0.0592
vt 0.201476 0.819401
vt 0.197148 0.823881
vt 0.196573 0.823332
vt 0.252510 0.072175
vt 0.251538 0.067831
vt 0.253557 0.067649
vt 0.199948 0.323614
vt 0.198871 0.318890
vt 0.200973 0.318584
vt 0.514995 0.497287
vt 0.514666 0.492825
vt 0.516879 0.493031
vt 0.201362 0.410531
vt 0.205708 0.406879
vt 0.206622 0.410535
vt 0.310079 0.046695
vt 0.309274 0.050710
vt 0.306872 0.047509
vt 0.314307 0.039769
vt 0.311491 0.043698
vt 0.310084 0.040145
vt 0.254294 0.072552
vt 0.257178 0.070662
vt 0.257119 0.073975
vt 0.130706 0.853360
vt 0.129530 0.849619
vt 0.132468 0.850024
vt 0.516835 0.497988
vt 0.517827 0.493115
vt 0.201781 0.323951
vt 0.201874 0.318439
vt 0.254409 0.067565
vt 0.126942 0.854427
vt 0.128672 0.849475
vt 0.253557 0.075296
vt 0.254409 0.075677
vt 0.199809 0.315280
vt 0.257178 0.076073
vt 0.316198 0.044997
vt 0.201379 0.412560
vt 0.205705 0.414211
vt 0.198184 0.315858
vt 0.251538 0.074454
vt 0.196138 0.410535
vt 0.197145 0.414211
vt 0.124365 0.858270
vt 0.124962 0.858949
vt 0.198814 0.328150
vt 0.199584 0.328585
vt 0.129296 0.856502
vt 0.309547 0.036906
vt 0.306872 0.038079
vt 0.197148 0.406879
vt 0.197002 0.327174
vt 0.135760 0.898109
vt 0.137023 0.892180
vt 0.137973 0.898315
vt 0.125008 0.149658
vt 0.126926 0.147958
vt 0.125571 0.150611
vt 0.356609 0.410112
vt 0.355236 0.408389
vt 0.356014 0.407335
vt 0.358157 0.412671
vt 0.355831 0.411166
vt 0.567504 0.074933
vt 0.569242 0.076397
vt 0.566901 0.075782
vt 0.123837 0.152164
vt 0.124400 0.153116
vt 0.797242 0.067382
vt 0.798119 0.068857
vt 0.797242 0.069802
vt 0.366093 0.146717
vt 0.364168 0.147923
vt 0.363686 0.146975
vt 0.745605 0.402330
vt 0.744708 0.403788
vt 0.744708 0.401383
vt 0.137979 0.049522
vt 0.135387 0.051297
vt 0.134918 0.049360
vt 0.526595 0.319396
vt 0.525042 0.317206
vt 0.527936 0.317063
vt 0.150855 0.051810
vt 0.154400 0.050212
vt 0.154865 0.052152
vt 0.134523 0.057635
vt 0.134508 0.062212
vt 0.132792 0.062534
vt 0.133893 0.047212
vt 0.135579 0.047480
vt 0.133671 0.051620
vt 0.150437 0.053007
vt 0.153267 0.054393
vt 0.149837 0.053238
vt 0.138102 0.047182
vt 0.140587 0.047741
vt 0.445939 0.143212
vt 0.443820 0.147761
vt 0.445428 0.142975
vt 0.137852 0.041817
vt 0.135952 0.039478
vt 0.138463 0.039471
vt 0.140395 0.051558
vt 0.141052 0.049680
vt 0.679271 0.228788
vt 0.680404 0.227230
vt 0.680404 0.229200
vt 0.680386 0.230684
vt 0.230689 0.040742
vt 0.233059 0.038162
vt 0.232006 0.041542
vt 0.228678 0.037613
vt 0.230991 0.036906
vt 0.154208 0.054030
vt 0.036997 0.238302
vt 0.038042 0.241001
vt 0.036906 0.242027
vt 0.135643 0.063439
vt 0.136988 0.062772
vt 0.647837 0.304880
vt 0.646623 0.305609
vt 0.646652 0.304136
vt 0.138164 0.057602
vt 0.136795 0.057764
vt 0.135452 0.057461
vt 0.447509 0.143620
vt 0.450561 0.148197
vt 0.447664 0.148951
vt 0.444765 0.148197
vt 0.608619 0.139738
vt 0.608018 0.137724
vt 0.608579 0.137252
vt 0.608579 0.142225
vt 0.608052 0.140399
vt 0.135967 0.041647
vt 0.136443 0.041723
vt 0.326256 0.150083
vt 0.325307 0.152469
vt 0.325637 0.149886
vt 0.139265 0.041870
vt 0.140970 0.039593
vt 0.523329 0.319407
vt 0.524962 0.319386
vt 0.036906 0.227956
vt 0.037720 0.237649
vt 0.230991 0.050954
vt 0.229216 0.041192
vt 0.233059 0.052210
vt 0.036906 0.410831
vt 0.037496 0.401258
vt 0.037496 0.411724
vt 0.150559 0.050575
vt 0.447341 0.138006
vt 0.444442 0.137252
vt 0.449078 0.143212
vt 0.137867 0.051858
vt 0.601749 0.320792
vt 0.602834 0.315268
vt 0.602834 0.321675
vt 0.525037 0.324373
vt 0.522140 0.325138
vt 0.522797 0.319497
vt 0.527936 0.325117
vt 0.326406 0.152928
vt 0.325879 0.154734
vt 0.325307 0.154552
vt 0.138607 0.037312
vt 0.141114 0.037435
vt 0.524994 0.314821
vt 0.527891 0.314789
vt 0.608094 0.142952
vt 0.607446 0.141107
vt 0.522140 0.317094
vt 0.135181 0.039338
vt 0.136106 0.037174
vt 0.607409 0.138238
vt 0.135493 0.041572
vt 0.134268 0.039174
vt 0.135407 0.037063
vt 0.134419 0.036906
vt 0.646623 0.072145
vt 0.648200 0.068536
vt 0.647756 0.073711
vt 0.130550 0.861881
vt 0.129380 0.864386
vt 0.570089 0.068325
vt 0.569845 0.075548
vt 0.364311 0.137671
vt 0.367615 0.852993
vt 0.369229 0.859198
vt 0.367615 0.861721
vt 0.370007 0.139516
vt 0.367886 0.148335
vt 0.358157 0.404580
vt 0.571859 0.074207
vt 0.201382 0.823048
vt 0.250395 0.071530
vt 0.196138 0.322538
vt 0.512644 0.496188
vt 0.201382 0.406045
vt 0.314114 0.049530
vt 0.125029 0.853740
vt 0.196138 0.316988
vt 0.133738 0.894840
vt 0.126363 0.147006
vt 0.357379 0.413725
vt 0.798119 0.066437
vt 0.366575 0.147665
vt 0.745605 0.404735
vt 0.132792 0.049365
vt 0.679301 0.226368
vt 0.679280 0.230357
vt 0.647837 0.306813
vt 0.139516 0.062472
vt 0.038042 0.226929
vt 0.228678 0.051660
vt 0.037121 0.400689
vt 0.450238 0.137252
vt 0.602246 0.314789
vt 0.521196 0.325296
vt 0.326406 0.154901
vt 0.607409 0.143981
vt 0.522095 0.314809
vt 0.646623 0.066437
vt 0.566901 0.067423
vt 0.367597 0.137252
vt 0.369853 0.849894
vt 0.356100 0.401383
vt 0.572810 0.066437
s 1
usemtl マテリアル.003
f 30/1/1 10/3/3 2/2/2
f 22/4/4 11/6/6 4/5/5
f 29/7/7 12/9/9 3/8/8
f 21/10/10 9/12/12 1/11/11
f 33/13/13 18/15/14 1/14/11
f 103/16/15 98/18/17 5/17/16
f 27/19/18 105/21/20 101/20/19
f 20/22/21 102/24/23 100/23/22
f 104/25/24 99/27/26 6/26/25
f 19/28/27 5/29/16 9/12/12
f 27/30/18 8/31/28 12/9/9
f 20/22/21 7/32/29 11/6/6
f 28/33/30 6/26/25 10/34/3
f 10/35/3 6/36/25 20/22/21
f 12/9/9 8/31/28 19/37/27
f 6/36/25 99/38/26 102/24/23
f 8/39/28 101/20/19 103/16/15
f 26/40/31 3/41/8 18/15/14
f 3/8/8 12/9/9 21/42/10
f 2/43/2 10/35/3 22/4/4
f 17/44/32 4/45/5 26/40/31
f 9/46/12 5/47/16 28/33/30
f 11/48/6 7/49/29 27/30/18
f 98/50/17 104/25/24 28/33/30
f 7/51/29 100/52/22 105/21/20
f 2/53/2 17/44/32 33/13/13
f 4/54/5 11/48/6 29/7/7
f 1/55/11 9/57/12 30/56/1
f 31/58/33 48/60/35 38/59/34
f 32/61/36 14/63/38 39/62/37
f 15/64/39 32/61/36 49/65/40
f 15/66/39 40/68/42 45/67/41
f 16/69/43 41/70/44 48/60/35
f 14/71/38 23/73/46 44/72/45
f 23/74/46 13/76/47 38/75/34
f 24/77/48 45/79/41 41/78/44
f 50/80/49 43/82/51 36/81/50
f 84/83/52 94/85/54 88/84/53
f 72/86/55 53/88/57 52/87/56
f 78/89/58 60/91/60 61/90/59
f 43/82/51 34/93/61 41/92/44
f 40/94/42 36/81/50 43/82/51
f 69/95/62 70/97/64 54/96/63
f 50/80/49 46/98/65 34/93/61
f 35/99/66 46/98/65 50/80/49
f 75/100/67 76/102/69 58/101/68
f 82/103/70 91/105/72 95/104/71
f 37/106/73 42/107/74 50/80/49
f 56/108/75 53/110/57 55/109/76
f 52/111/56 53/110/57 56/108/75
f 73/112/77 74/114/79 51/113/78
f 73/112/77 56/116/75 54/115/63
f 72/86/55 69/95/62 55/117/76
f 71/118/80 52/120/56 51/119/78
f 62/121/81 59/122/82 61/90/59
f 57/123/83 58/125/68 59/124/82
f 76/126/69 79/127/84 59/122/82
f 79/127/84 77/128/85 61/90/59
f 80/129/86 62/131/81 60/130/60
f 80/129/86 75/100/67 57/132/83
f 63/133/87 66/135/89 87/134/88
f 64/136/90 63/133/87 92/137/91
f 97/138/92 81/139/93 95/104/71
f 85/140/94 86/142/96 89/141/95
f 85/143/94 90/144/97 91/105/72
f 86/145/96 83/146/98 88/84/53
f 35/147/66 71/118/80 74/148/79
f 42/107/74 37/106/73 69/95/62
f 44/149/45 73/112/77 70/150/64
f 44/149/45 38/151/34 74/114/79
f 37/152/73 39/154/37 70/153/64
f 42/107/74 72/86/55 71/155/80
f 49/156/40 39/157/37 75/100/67
f 49/156/40 80/129/86 78/158/58
f 47/159/99 36/81/50 77/128/85
f 47/159/99 79/127/84 76/126/69
f 39/160/37 37/162/73 76/161/69
f 40/94/42 78/89/58 77/128/85
f 48/163/35 83/146/98 86/145/96
f 46/98/65 35/99/66 85/143/94
f 38/164/34 86/145/96 85/165/94
f 41/92/44 81/139/93 97/138/92
f 46/98/65 82/103/70 81/139/93
f 48/163/35 41/166/44 84/83/52
f 90/167/97 65/169/100 87/168/88
f 90/144/97 66/171/89 63/170/87
f 94/85/54 67/173/102 68/172/101
f 93/174/103 92/137/91 68/175/101
f 89/176/95 88/84/53 68/172/101
f 96/177/104 95/104/71 64/178/90
f 91/105/72 63/170/87 64/178/90
f 92/137/91 87/134/88 65/179/100
f 96/177/104 94/181/54 84/180/52
f 93/182/103 67/183/102 94/181/54
f 14/184/38 32/186/36 105/185/20
f 98/50/17 16/188/43 31/187/33
f 15/66/39 24/190/48 103/189/15
f 99/191/26 13/76/47 23/74/46
f 104/192/24 31/194/33 13/193/47
f 23/74/46 14/196/38 100/195/22
f 32/61/36 15/64/39 101/197/19
f 103/189/15 24/190/48 16/198/43
f 30/1/1 2/2/2 25/199/105
f 22/4/4 4/5/5 17/200/32
f 29/7/7 3/8/8 26/201/31
f 21/10/10 1/11/11 18/202/14
f 33/13/13 1/14/11 25/203/105
f 103/16/15 5/17/16 19/204/27
f 27/19/18 101/20/19 8/39/28
f 20/22/21 100/23/22 7/32/29
f 104/25/24 6/26/25 28/33/30
f 19/28/27 9/12/12 21/10/10
f 27/30/18 12/9/9 29/7/7
f 20/22/21 11/6/6 22/4/4
f 28/33/30 10/34/3 30/205/1
f 10/35/3 20/22/21 22/4/4
f 12/9/9 19/37/27 21/42/10
f 6/36/25 102/24/23 20/22/21
f 8/39/28 103/16/15 19/204/27
f 26/40/31 18/15/14 33/13/13
f 3/8/8 21/42/10 18/206/14
f 2/43/2 22/4/4 17/200/32
f 17/44/32 26/40/31 33/13/13
f 9/46/12 28/33/30 30/205/1
f 11/48/6 27/30/18 29/7/7
f 98/50/17 28/33/30 5/47/16
f 7/51/29 105/21/20 27/19/18
f 2/53/2 33/13/13 25/203/105
f 4/54/5 29/7/7 26/201/31
f 1/55/11 30/56/1 25/207/105
f 31/58/33 38/59/34 13/208/47
f 32/61/36 39/62/37 49/65/40
f 15/64/39 49/65/40 40/209/42
f 15/66/39 45/67/41 24/190/48
f 16/69/43 48/60/35 31/58/33
f 14/71/38 44/72/45 39/210/37
f 23/74/46 38/75/34 44/211/45
f 24/77/48 41/78/44 16/212/43
f 50/80/49 36/81/50 47/159/99
f 84/83/52 88/84/53 83/146/98
f 72/86/55 52/87/56 71/155/80
f 78/89/58 61/90/59 77/128/85
f 43/82/51 41/92/44 45/213/41
f 40/94/42 43/82/51 45/213/41
f 69/95/62 54/96/63 55/117/76
f 50/80/49 34/93/61 43/82/51
f 35/99/66 50/80/49 42/107/74
f 75/100/67 58/101/68 57/132/83
f 82/103/70 95/104/71 81/139/93
f 37/106/73 50/80/49 47/159/99
f 56/108/75 55/109/76 54/214/63
f 52/111/56 56/108/75 51/215/78
f 73/112/77 51/113/78 56/116/75
f 73/112/77 54/115/63 70/150/64
f 72/86/55 55/117/76 53/88/57
f 71/118/80 51/119/78 74/148/79
f 62/121/81 61/90/59 60/91/60
f 57/123/83 59/124/82 62/216/81
f 76/126/69 59/122/82 58/217/68
f 79/127/84 61/90/59 59/122/82
f 80/129/86 60/130/60 78/158/58
f 80/129/86 57/132/83 62/131/81
f 63/133/87 87/134/88 92/137/91
f 64/136/90 92/137/91 93/174/103
f 97/138/92 95/104/71 96/177/104
f 85/140/94 89/141/95 90/167/97
f 85/143/94 91/105/72 82/103/70
f 86/145/96 88/84/53 89/176/95
f 35/147/66 74/148/79 38/218/34
f 42/107/74 69/95/62 72/86/55
f 44/149/45 70/150/64 39/219/37
f 44/149/45 74/114/79 73/112/77
f 37/152/73 70/153/64 69/220/62
f 42/107/74 71/155/80 35/99/66
f 49/156/40 75/100/67 80/129/86
f 49/156/40 78/158/58 40/221/42
f 47/159/99 77/128/85 79/127/84
f 47/159/99 76/126/69 37/106/73
f 39/160/37 76/161/69 75/222/67
f 40/94/42 77/128/85 36/81/50
f 48/163/35 86/145/96 38/164/34
f 46/98/65 85/143/94 82/103/70
f 38/164/34 85/165/94 35/223/66
f 81/139/93 41/92/44 34/93/61
f 41/92/44 97/138/92 84/180/52
f 46/98/65 81/139/93 34/93/61
f 48/163/35 84/83/52 83/146/98
f 65/169/100 90/167/97 89/141/95
f 90/167/97 87/168/88 66/224/89
f 90/144/97 63/170/87 91/105/72
f 94/85/54 68/172/101 88/84/53
f 93/174/103 68/175/101 67/225/102
f 89/176/95 68/172/101 65/226/100
f 96/177/104 64/178/90 93/182/103
f 91/105/72 64/178/90 95/104/71
f 92/137/91 65/179/100 68/175/101
f 96/177/104 84/180/52 97/138/92
f 93/182/103 94/181/54 96/177/104
f 14/184/38 105/185/20 100/227/22
f 98/50/17 31/187/33 104/25/24
f 15/66/39 103/189/15 101/228/19
f 99/191/26 23/74/46 102/229/23
f 104/192/24 13/193/47 99/230/26
f 23/74/46 100/195/22 102/229/23
f 32/61/36 101/197/19 105/231/20
f 103/189/15 16/198/43 98/232/17
