# Blender 4.0.1
# www.blender.org
mtllib rightfoot.mtl
o rightfoot
v -0.201187 0.900589 -0.068798
v -0.201187 0.912367 0.075049
v -0.354660 0.900589 -0.068798
v -0.354660 0.912367 0.075049
v -0.183940 0.730425 -0.071138
v -0.183940 0.744850 0.105039
v -0.371906 0.744850 0.105039
v -0.371906 0.730425 -0.071138
v -0.189315 0.780958 -0.070204
v -0.189315 0.794559 0.095897
v -0.366531 0.794559 0.095897
v -0.366531 0.780958 -0.070204
v -0.231711 0.379579 0.001629
v -0.324135 0.379579 0.001629
v -0.324135 0.371604 -0.095774
v -0.231711 0.371604 -0.095774
v -0.277923 0.976820 0.086045
v -0.277923 0.962395 -0.090132
v -0.277923 0.727437 -0.107625
v -0.277923 0.747838 0.141526
v -0.277923 0.834040 -0.103114
v -0.277923 0.852287 0.119734
v -0.277923 0.378926 0.018432
v -0.277923 0.368225 -0.112247
v -0.183940 0.969607 -0.002043
v -0.320301 0.969607 -0.002043
v -0.410835 0.737637 0.016950
v -0.145011 0.737637 0.016950
v -0.396803 0.843164 0.008310
v -0.107202 0.843164 0.008310
v -0.215924 0.373575 -0.046907
v -0.339923 0.373575 -0.046907
v -0.277923 0.994829 -0.004109
v -0.249961 0.257075 -0.068343
v -0.249961 0.263982 0.016010
v -0.330002 0.257075 -0.068343
v -0.330002 0.263982 0.016010
v -0.246924 0.329647 -0.006172
v -0.339348 0.329647 -0.006172
v -0.339348 0.321671 -0.103574
v -0.246924 0.321671 -0.103574
v -0.289982 0.262461 0.025677
v -0.289982 0.254002 -0.077634
v -0.293136 0.328993 0.010632
v -0.293136 0.318293 -0.120047
v -0.240966 0.258232 -0.025978
v -0.338997 0.258232 -0.025978
v -0.231136 0.323643 -0.054708
v -0.355136 0.323643 -0.054708
v -0.289982 0.253047 -0.025554
v -0.283380 0.331684 0.229676
v -0.286417 0.266019 0.251858
v -0.326438 0.264499 0.261525
v -0.375804 0.331684 0.229676
v -0.366458 0.266019 0.251858
v -0.329592 0.331031 0.246480
v -0.568404 0.316851 -0.010493
v -0.559058 0.251187 0.011689
v -0.568052 0.245436 -0.030299
v -0.568404 0.308876 -0.107895
v -0.559058 0.244280 -0.072664
v -0.584192 0.310848 -0.059029
v -0.033863 0.243766 -0.024397
v -0.033732 0.242609 -0.066762
v -0.030695 0.315181 -0.004591
v -0.033732 0.249516 0.017591
v -0.030695 0.307205 -0.101993
v -0.031143 0.309177 -0.053127
v -0.349346 0.277270 0.185984
v -0.355299 0.319091 0.171857
v -0.298370 0.277270 0.185984
v -0.323858 0.276302 0.192141
v -0.325867 0.318675 0.182558
v -0.296436 0.319091 0.171857
v -0.464045 0.312271 -0.029920
v -0.458984 0.276713 -0.017908
v -0.458984 0.272972 -0.063587
v -0.464045 0.307953 -0.082666
v -0.463854 0.273599 -0.040646
v -0.472594 0.309021 -0.056203
v -0.128706 0.263993 -0.059303
v -0.129115 0.264645 -0.035432
v -0.126661 0.301501 -0.051620
v -0.126995 0.300390 -0.079155
v -0.128706 0.267885 -0.011774
v -0.126995 0.304884 -0.024272
v -0.032277 0.280991 0.006959
v -0.081080 0.312428 -0.054116
v -0.078524 0.318261 -0.005528
v -0.079043 0.252434 0.016703
v -0.079187 0.246666 -0.025280
v -0.032549 0.275363 -0.038275
v -0.032475 0.269362 -0.081353
v -0.078301 0.310271 -0.102926
v -0.082099 0.245724 -0.067710
v -0.080361 0.275263 -0.083826
v -0.127849 0.282219 -0.069244
v -0.185876 0.573135 0.012349
v -0.185876 0.583153 0.134691
v -0.311263 0.583153 0.134691
v -0.311263 0.573135 0.012349
v -0.248569 0.584197 0.158523
v -0.248569 0.570289 -0.011334
v -0.161407 0.577243 0.073594
v -0.335732 0.577243 0.073594
vn 0.9992 0.0390 -0.0032
vn 0.5329 0.3550 0.7681
vn 0.6026 0.1802 0.7774
vn -0.0000 0.2248 0.9744
vn -0.6962 0.3398 0.6323
vn -0.6651 0.1981 0.7200
vn -0.9703 0.2411 -0.0197
vn -0.6962 0.2325 -0.6792
vn -0.6651 0.0783 -0.7426
vn -0.0000 0.0633 -0.9980
vn 0.5329 0.2254 -0.8156
vn 0.6026 0.0513 -0.7964
vn -0.0250 0.9964 -0.0816
vn 0.0075 0.3398 -0.9405
vn 0.0722 -0.0627 -0.9954
vn 0.6237 -0.1245 -0.7717
vn 0.8457 -0.1241 -0.5190
vn -0.9949 -0.0962 -0.0308
vn -0.7963 -0.0926 -0.5978
vn -0.9411 -0.2427 0.2355
vn -0.0558 0.1408 0.9885
vn -0.5169 -0.1671 0.8396
vn 0.0814 -0.0661 0.9945
vn 0.9632 -0.1569 0.2181
vn 0.6930 0.1543 0.7043
vn 0.6144 -0.0764 0.7853
vn -0.0131 -0.1630 -0.9865
vn -0.6506 -0.1518 -0.7441
vn -0.7148 0.0309 0.6987
vn 0.9740 -0.2177 -0.0625
vn -0.7202 0.6915 -0.0566
vn 0.0075 0.4882 0.8727
vn 0.9776 -0.1902 -0.0901
vn 0.6310 0.0904 0.7705
vn 0.9739 0.1828 -0.1344
vn -0.9714 0.2302 -0.0574
vn -0.6946 0.3420 0.6329
vn -0.7072 -0.1198 0.6968
vn -0.6042 0.3521 -0.7148
vn -0.7370 0.6655 -0.1179
vn -0.0623 -0.1242 -0.9903
vn -0.4439 -0.0610 -0.8940
vn 0.7270 0.0316 -0.6859
vn 0.4046 -0.1554 -0.9012
vn -0.1454 0.2856 0.9473
vn 0.0337 -0.3709 0.9281
vn 0.6866 -0.4162 0.5961
vn 0.1035 0.2092 -0.9724
vn -0.0000 -0.9967 0.0816
vn -0.1628 -0.7677 -0.6197
vn 0.0121 -0.7236 -0.6902
vn -0.1727 0.0225 -0.9847
vn -0.0886 0.9928 -0.0808
vn -0.1746 0.0054 -0.9846
vn -0.0019 -0.9977 -0.0680
vn 0.6609 -0.0985 0.7439
vn 0.0153 -0.0868 0.9961
vn 0.0582 0.0201 -0.9981
vn -0.4930 -0.6325 -0.5974
vn -0.3592 -0.0092 -0.9332
vn 0.1490 -0.7560 -0.6374
vn -0.8188 -0.5355 -0.2071
vn -0.9640 0.2183 0.1521
vn -0.9616 0.2117 -0.1747
vn 0.0813 -0.9931 0.0839
vn 0.7529 -0.2940 0.5889
vn -0.0125 0.6643 0.7474
vn -0.2529 -0.0409 0.9666
vn -0.0331 -0.0709 0.9969
vn -0.1543 -0.9849 0.0788
vn -0.2193 -0.6988 -0.6809
vn -0.2140 -0.9729 0.0880
vn -0.7735 -0.5369 0.3369
vn 0.0046 -0.9923 0.1240
vn -0.0201 0.4492 0.8932
vn -0.6346 -0.1169 0.7640
vn -0.0025 0.9951 -0.0991
vn 0.9354 0.2898 0.2026
vn 0.9175 0.3789 0.1208
vn 0.8993 -0.4323 -0.0661
vn -0.9821 0.1487 -0.1154
vn -0.8598 -0.4664 0.2078
vn -0.7062 0.3158 0.6337
vn 0.0942 -0.9924 0.0788
vn 0.0551 -0.7581 -0.6498
vn -0.0408 0.9958 -0.0822
vn 0.9221 -0.3859 0.0292
vn 0.7190 0.1926 0.6678
vn 0.4681 -0.0481 0.8824
vn 0.8395 -0.4218 -0.3426
vn 0.9991 -0.0414 0.0011
vn -0.1228 -0.4705 -0.8738
vn -0.1528 -0.7638 -0.6271
vn -0.1825 -0.0848 0.9796
vn -0.2137 0.5586 0.8014
vn -0.1007 0.6898 0.7170
vn -0.2351 -0.0386 0.9712
vn -0.0162 0.9965 -0.0824
vn -0.1202 -0.9891 0.0855
vn 0.8179 0.3295 0.4717
vn 0.9539 0.2992 -0.0230
vn 0.5005 0.0019 -0.8658
vn 0.7920 -0.3203 -0.5197
vn -0.1731 -0.4640 -0.8688
vn 0.6887 0.7226 -0.0592
vt 0.116798 0.818947
vt 0.112470 0.823427
vt 0.111895 0.822878
vt 0.488342 0.071200
vt 0.487370 0.066856
vt 0.489389 0.066674
vt 0.279496 0.323124
vt 0.278420 0.318400
vt 0.280522 0.318094
vt 0.198489 0.498415
vt 0.198160 0.493954
vt 0.200373 0.494159
vt 0.116684 0.410077
vt 0.121030 0.406424
vt 0.121944 0.410081
vt 0.282140 0.147040
vt 0.281336 0.151056
vt 0.278933 0.147854
vt 0.286368 0.140114
vt 0.283552 0.144043
vt 0.282145 0.140491
vt 0.490126 0.071577
vt 0.493010 0.069687
vt 0.492951 0.073000
vt 0.048789 0.853360
vt 0.047613 0.849619
vt 0.050552 0.850024
vt 0.200329 0.499116
vt 0.201321 0.494243
vt 0.281330 0.323460
vt 0.281423 0.317949
vt 0.490241 0.066590
vt 0.045026 0.854427
vt 0.046756 0.849475
vt 0.489389 0.074321
vt 0.490241 0.074702
vt 0.279358 0.314789
vt 0.493010 0.075098
vt 0.288260 0.145343
vt 0.116701 0.412106
vt 0.121027 0.413757
vt 0.277733 0.315368
vt 0.487370 0.073479
vt 0.111460 0.410081
vt 0.112467 0.413757
vt 0.042449 0.858270
vt 0.043045 0.858949
vt 0.278363 0.327659
vt 0.279133 0.328095
vt 0.047380 0.856502
vt 0.281608 0.137252
vt 0.278933 0.138425
vt 0.112470 0.406424
vt 0.276551 0.326684
vt 0.198160 0.910956
vt 0.199423 0.905027
vt 0.200373 0.911162
vt 0.043091 0.149658
vt 0.045010 0.147958
vt 0.043655 0.150611
vt 0.391384 0.045635
vt 0.390011 0.043913
vt 0.390789 0.042858
vt 0.392932 0.048195
vt 0.390606 0.046690
vt 0.548022 0.045402
vt 0.549761 0.046866
vt 0.547420 0.046251
vt 0.041921 0.152164
vt 0.042484 0.153116
vt 0.566901 0.229831
vt 0.567779 0.231306
vt 0.566901 0.232251
vt 0.362932 0.235833
vt 0.361007 0.237040
vt 0.360525 0.236092
vt 0.745326 0.487842
vt 0.744428 0.489301
vt 0.744428 0.486896
vt 0.042094 0.049522
vt 0.039502 0.051297
vt 0.039033 0.049360
vt 0.519427 0.405990
vt 0.517874 0.403800
vt 0.520768 0.403657
vt 0.054969 0.051810
vt 0.058515 0.050212
vt 0.058979 0.052152
vt 0.038637 0.057635
vt 0.038623 0.062212
vt 0.036906 0.062534
vt 0.038007 0.047212
vt 0.039694 0.047480
vt 0.037786 0.051620
vt 0.054551 0.053007
vt 0.057381 0.054393
vt 0.053952 0.053238
vt 0.042217 0.047182
vt 0.044702 0.047741
vt 0.442778 0.232328
vt 0.440659 0.236877
vt 0.442267 0.232092
vt 0.041966 0.041817
vt 0.040067 0.039478
vt 0.042578 0.039471
vt 0.044510 0.051558
vt 0.045166 0.049680
vt 0.676647 0.317209
vt 0.677780 0.315651
vt 0.677780 0.317620
vt 0.677762 0.319104
vt 0.202750 0.141087
vt 0.205120 0.138508
vt 0.204068 0.141887
vt 0.200739 0.137958
vt 0.203052 0.137252
vt 0.058323 0.054030
vt 0.200829 0.237742
vt 0.201874 0.240440
vt 0.200739 0.241467
vt 0.039758 0.063439
vt 0.041103 0.062772
vt 0.725391 0.304163
vt 0.724176 0.304893
vt 0.724205 0.303419
vt 0.042278 0.057602
vt 0.040909 0.057764
vt 0.039566 0.057461
vt 0.444348 0.232737
vt 0.447399 0.237314
vt 0.444503 0.238068
vt 0.441603 0.237314
vt 0.605458 0.228855
vt 0.604857 0.226841
vt 0.605418 0.226368
vt 0.605418 0.231342
vt 0.604891 0.229516
vt 0.040082 0.041647
vt 0.040558 0.041723
vt 0.251345 0.150083
vt 0.250395 0.152469
vt 0.250725 0.149886
vt 0.043379 0.041870
vt 0.045084 0.039593
vt 0.516161 0.406001
vt 0.517794 0.405980
vt 0.200739 0.227395
vt 0.201552 0.237088
vt 0.203052 0.151300
vt 0.201277 0.141537
vt 0.205120 0.152555
vt 0.036906 0.325982
vt 0.037496 0.316409
vt 0.037496 0.326876
vt 0.054673 0.050575
vt 0.444180 0.227123
vt 0.441281 0.226368
vt 0.445917 0.232328
vt 0.041982 0.051858
vt 0.594581 0.407386
vt 0.595666 0.401862
vt 0.595666 0.408269
vt 0.517869 0.410967
vt 0.514972 0.411732
vt 0.515629 0.406090
vt 0.520768 0.411711
vt 0.251494 0.152928
vt 0.250967 0.154734
vt 0.250395 0.154552
vt 0.042721 0.037312
vt 0.045228 0.037435
vt 0.517826 0.401415
vt 0.520723 0.401383
vt 0.604933 0.232069
vt 0.604284 0.230224
vt 0.514972 0.403688
vt 0.039296 0.039338
vt 0.040220 0.037174
vt 0.604247 0.227355
vt 0.039607 0.041572
vt 0.038383 0.039174
vt 0.039522 0.037063
vt 0.038534 0.036906
vt 0.591640 0.492603
vt 0.593217 0.488995
vt 0.592773 0.494169
vt 0.048634 0.861881
vt 0.047463 0.864386
vt 0.550607 0.038794
vt 0.550363 0.046017
vt 0.361149 0.226788
vt 0.364454 0.942110
vt 0.366068 0.948315
vt 0.364454 0.950838
vt 0.366846 0.228633
vt 0.364724 0.237451
vt 0.392932 0.040103
vt 0.552378 0.044676
vt 0.116704 0.822594
vt 0.486227 0.070555
vt 0.275687 0.322048
vt 0.196138 0.497316
vt 0.116704 0.405591
vt 0.286175 0.149875
vt 0.043113 0.853740
vt 0.275687 0.316498
vt 0.196138 0.907687
vt 0.044446 0.147006
vt 0.392154 0.049249
vt 0.567779 0.228886
vt 0.363413 0.236781
vt 0.745326 0.490248
vt 0.036906 0.049365
vt 0.676677 0.314789
vt 0.676656 0.318778
vt 0.725391 0.306096
vt 0.043631 0.062472
vt 0.201874 0.226368
vt 0.200739 0.152006
vt 0.037121 0.315840
vt 0.447077 0.226368
vt 0.595078 0.401383
vt 0.514028 0.411890
vt 0.251494 0.154901
vt 0.604247 0.233098
vt 0.514927 0.401403
vt 0.591640 0.486896
vt 0.547420 0.037892
vt 0.364436 0.226368
vt 0.366692 0.939011
vt 0.390875 0.036906
vt 0.553328 0.036906
s 1
usemtl マテリアル.002
f 30/1/1 2/2/2 10/3/3
f 22/4/4 4/5/5 11/6/6
f 29/7/7 3/8/8 12/9/9
f 21/10/10 1/11/11 9/12/12
f 33/13/13 1/14/11 18/15/14
f 103/16/15 5/17/16 98/18/17
f 27/19/18 101/20/19 105/21/20
f 20/22/21 100/23/22 102/24/23
f 104/25/24 6/26/25 99/27/26
f 19/28/27 9/12/12 5/29/16
f 27/30/18 12/9/9 8/31/28
f 20/22/21 11/6/6 7/32/29
f 28/33/30 10/34/3 6/26/25
f 10/35/3 20/22/21 6/36/25
f 12/9/9 19/37/27 8/31/28
f 6/36/25 102/24/23 99/38/26
f 8/39/28 103/16/15 101/20/19
f 26/40/31 18/15/14 3/41/8
f 3/8/8 21/42/10 12/9/9
f 2/43/2 22/4/4 10/35/3
f 17/44/32 26/40/31 4/45/5
f 9/46/12 28/33/30 5/47/16
f 11/48/6 27/30/18 7/49/29
f 98/50/17 28/33/30 104/25/24
f 7/51/29 105/21/20 100/52/22
f 2/53/2 33/13/13 17/44/32
f 4/54/5 29/7/7 11/48/6
f 1/55/11 30/56/1 9/57/12
f 31/58/33 38/59/34 48/60/35
f 32/61/36 39/62/37 14/63/38
f 15/64/39 49/65/40 32/61/36
f 15/66/39 45/67/41 40/68/42
f 16/69/43 48/60/35 41/70/44
f 14/71/38 44/72/45 23/73/46
f 23/74/46 38/75/34 13/76/47
f 24/77/48 41/78/44 45/79/41
f 50/80/49 36/81/50 43/82/51
f 84/83/52 88/84/53 94/85/54
f 72/86/55 52/87/56 53/88/57
f 78/89/58 61/90/59 60/91/60
f 43/82/51 41/92/44 34/93/61
f 40/94/42 43/82/51 36/81/50
f 69/95/62 54/96/63 70/97/64
f 50/80/49 34/93/61 46/98/65
f 35/99/66 50/80/49 46/98/65
f 75/100/67 58/101/68 76/102/69
f 82/103/70 95/104/71 91/105/72
f 37/106/73 50/80/49 42/107/74
f 56/108/75 55/109/76 53/110/57
f 52/111/56 56/108/75 53/110/57
f 73/112/77 51/113/78 74/114/79
f 73/112/77 54/115/63 56/116/75
f 72/86/55 55/117/76 69/95/62
f 71/118/80 51/119/78 52/120/56
f 62/121/81 61/90/59 59/122/82
f 57/123/83 59/124/82 58/125/68
f 76/126/69 59/122/82 79/127/84
f 79/127/84 61/90/59 77/128/85
f 80/129/86 60/130/60 62/131/81
f 80/129/86 57/132/83 75/100/67
f 63/133/87 87/134/88 66/135/89
f 64/136/90 92/137/91 63/133/87
f 97/138/92 95/104/71 81/139/93
f 85/140/94 89/141/95 86/142/96
f 85/143/94 91/105/72 90/144/97
f 86/145/96 88/84/53 83/146/98
f 35/147/66 74/148/79 71/118/80
f 42/107/74 69/95/62 37/106/73
f 44/149/45 70/150/64 73/112/77
f 44/149/45 74/114/79 38/151/34
f 37/152/73 70/153/64 39/154/37
f 42/107/74 71/155/80 72/86/55
f 49/156/40 75/100/67 39/157/37
f 49/156/40 78/158/58 80/129/86
f 47/159/99 77/128/85 36/81/50
f 47/159/99 76/126/69 79/127/84
f 39/160/37 76/161/69 37/162/73
f 40/94/42 77/128/85 78/89/58
f 48/163/35 86/145/96 83/146/98
f 46/98/65 85/143/94 35/99/66
f 38/164/34 85/165/94 86/145/96
f 41/92/44 97/138/92 81/139/93
f 46/98/65 81/139/93 82/103/70
f 48/163/35 84/83/52 41/166/44
f 90/167/97 87/168/88 65/169/100
f 90/144/97 63/170/87 66/171/89
f 94/85/54 68/172/101 67/173/102
f 93/174/103 68/175/101 92/137/91
f 89/176/95 68/172/101 88/84/53
f 96/177/104 64/178/90 95/104/71
f 91/105/72 64/178/90 63/170/87
f 92/137/91 65/179/100 87/134/88
f 96/177/104 84/180/52 94/181/54
f 93/182/103 94/181/54 67/183/102
f 14/184/38 105/185/20 32/186/36
f 98/50/17 31/187/33 16/188/43
f 15/66/39 103/189/15 24/190/48
f 99/191/26 23/74/46 13/76/47
f 104/192/24 13/193/47 31/194/33
f 23/74/46 100/195/22 14/196/38
f 32/61/36 101/197/19 15/64/39
f 103/189/15 16/198/43 24/190/48
f 30/1/1 25/199/105 2/2/2
f 22/4/4 17/200/32 4/5/5
f 29/7/7 26/201/31 3/8/8
f 21/10/10 18/202/14 1/11/11
f 33/13/13 25/203/105 1/14/11
f 103/16/15 19/204/27 5/17/16
f 27/19/18 8/39/28 101/20/19
f 20/22/21 7/32/29 100/23/22
f 104/25/24 28/33/30 6/26/25
f 19/28/27 21/10/10 9/12/12
f 27/30/18 29/7/7 12/9/9
f 20/22/21 22/4/4 11/6/6
f 28/33/30 30/205/1 10/34/3
f 10/35/3 22/4/4 20/22/21
f 12/9/9 21/42/10 19/37/27
f 6/36/25 20/22/21 102/24/23
f 8/39/28 19/204/27 103/16/15
f 26/40/31 33/13/13 18/15/14
f 3/8/8 18/206/14 21/42/10
f 2/43/2 17/200/32 22/4/4
f 17/44/32 33/13/13 26/40/31
f 9/46/12 30/205/1 28/33/30
f 11/48/6 29/7/7 27/30/18
f 98/50/17 5/47/16 28/33/30
f 7/51/29 27/19/18 105/21/20
f 2/53/2 25/203/105 33/13/13
f 4/54/5 26/201/31 29/7/7
f 1/55/11 25/207/105 30/56/1
f 31/58/33 13/208/47 38/59/34
f 32/61/36 49/65/40 39/62/37
f 15/64/39 40/209/42 49/65/40
f 15/66/39 24/190/48 45/67/41
f 16/69/43 31/58/33 48/60/35
f 14/71/38 39/210/37 44/72/45
f 23/74/46 44/211/45 38/75/34
f 24/77/48 16/212/43 41/78/44
f 50/80/49 47/159/99 36/81/50
f 84/83/52 83/146/98 88/84/53
f 72/86/55 71/155/80 52/87/56
f 78/89/58 77/128/85 61/90/59
f 43/82/51 45/213/41 41/92/44
f 40/94/42 45/213/41 43/82/51
f 69/95/62 55/117/76 54/96/63
f 50/80/49 43/82/51 34/93/61
f 35/99/66 42/107/74 50/80/49
f 75/100/67 57/132/83 58/101/68
f 82/103/70 81/139/93 95/104/71
f 37/106/73 47/159/99 50/80/49
f 56/108/75 54/214/63 55/109/76
f 52/111/56 51/215/78 56/108/75
f 73/112/77 56/116/75 51/113/78
f 73/112/77 70/150/64 54/115/63
f 72/86/55 53/88/57 55/117/76
f 71/118/80 74/148/79 51/119/78
f 62/121/81 60/91/60 61/90/59
f 57/123/83 62/216/81 59/124/82
f 76/126/69 58/217/68 59/122/82
f 79/127/84 59/122/82 61/90/59
f 80/129/86 78/158/58 60/130/60
f 80/129/86 62/131/81 57/132/83
f 63/133/87 92/137/91 87/134/88
f 64/136/90 93/174/103 92/137/91
f 97/138/92 96/177/104 95/104/71
f 85/140/94 90/167/97 89/141/95
f 85/143/94 82/103/70 91/105/72
f 86/145/96 89/176/95 88/84/53
f 35/147/66 38/218/34 74/148/79
f 42/107/74 72/86/55 69/95/62
f 44/149/45 39/219/37 70/150/64
f 44/149/45 73/112/77 74/114/79
f 37/152/73 69/220/62 70/153/64
f 42/107/74 35/99/66 71/155/80
f 49/156/40 80/129/86 75/100/67
f 49/156/40 40/221/42 78/158/58
f 47/159/99 79/127/84 77/128/85
f 47/159/99 37/106/73 76/126/69
f 39/160/37 75/222/67 76/161/69
f 40/94/42 36/81/50 77/128/85
f 48/163/35 38/164/34 86/145/96
f 46/98/65 82/103/70 85/143/94
f 38/164/34 35/223/66 85/165/94
f 81/139/93 34/93/61 41/92/44
f 41/92/44 84/180/52 97/138/92
f 46/98/65 34/93/61 81/139/93
f 48/163/35 83/146/98 84/83/52
f 65/169/100 89/141/95 90/167/97
f 90/167/97 66/224/89 87/168/88
f 90/144/97 91/105/72 63/170/87
f 94/85/54 88/84/53 68/172/101
f 93/174/103 67/225/102 68/175/101
f 89/176/95 65/226/100 68/172/101
f 96/177/104 93/182/103 64/178/90
f 91/105/72 95/104/71 64/178/90
f 92/137/91 68/175/101 65/179/100
f 96/177/104 97/138/92 84/180/52
f 93/182/103 96/177/104 94/181/54
f 14/184/38 100/227/22 105/185/20
f 98/50/17 104/25/24 31/187/33
f 15/66/39 101/228/19 103/189/15
f 99/191/26 102/229/23 23/74/46
f 104/192/24 99/230/26 13/193/47
f 23/74/46 102/229/23 100/195/22
f 32/61/36 105/231/20 101/197/19
f 103/189/15 98/232/17 16/198/43
