# Blender 3.3.1
# www.blender.org
mtllib rightfoot.mtl
o rightfoot
v -0.051187 0.058782 -0.068798
v -0.051187 0.070560 0.075049
v -0.204660 0.058782 -0.068798
v -0.204660 0.070560 0.075049
v -0.033940 -0.111382 -0.071138
v -0.033940 -0.096957 0.105039
v -0.221906 -0.096957 0.105039
v -0.221906 -0.111382 -0.071138
v -0.039315 -0.060849 -0.070204
v -0.039315 -0.047248 0.095897
v -0.216531 -0.047248 0.095897
v -0.216531 -0.060849 -0.070204
v -0.081711 -0.462228 0.001629
v -0.174135 -0.462228 0.001629
v -0.174135 -0.470203 -0.095774
v -0.081711 -0.470203 -0.095774
v -0.127923 0.135013 0.086045
v -0.127923 0.120588 -0.090132
v -0.127923 -0.114370 -0.107625
v -0.127923 -0.093969 0.141526
v -0.127923 -0.007767 -0.103114
v -0.127923 0.010480 0.119734
v -0.127923 -0.462881 0.018432
v -0.127923 -0.473582 -0.112247
v -0.033940 0.127800 -0.002043
v -0.170301 0.127800 -0.002043
v -0.260835 -0.104170 0.016950
v 0.004989 -0.104170 0.016950
v -0.246803 0.001357 0.008310
v 0.042798 0.001357 0.008310
v -0.065924 -0.468232 -0.046907
v -0.189923 -0.468232 -0.046907
v -0.127923 0.153022 -0.004109
v -0.099961 -0.584732 -0.068343
v -0.099961 -0.577825 0.016010
v -0.180002 -0.584732 -0.068343
v -0.180002 -0.577825 0.016010
v -0.096924 -0.512160 -0.006172
v -0.189348 -0.512160 -0.006172
v -0.189348 -0.520136 -0.103574
v -0.096924 -0.520136 -0.103574
v -0.139982 -0.579346 0.025677
v -0.139982 -0.587805 -0.077634
v -0.143136 -0.512814 0.010632
v -0.143136 -0.523514 -0.120047
v -0.090966 -0.583575 -0.025978
v -0.188997 -0.583575 -0.025978
v -0.081136 -0.518164 -0.054708
v -0.205136 -0.518164 -0.054708
v -0.139982 -0.588760 -0.025554
v -0.133380 -0.510123 0.229676
v -0.136417 -0.575788 0.251858
v -0.176438 -0.577308 0.261525
v -0.225804 -0.510123 0.229676
v -0.216458 -0.575788 0.251858
v -0.179592 -0.510776 0.246480
v -0.418404 -0.524956 -0.010493
v -0.409058 -0.590620 0.011689
v -0.418052 -0.596371 -0.030299
v -0.418404 -0.532931 -0.107895
v -0.409058 -0.597527 -0.072664
v -0.434192 -0.530959 -0.059029
v 0.116137 -0.598041 -0.024397
v 0.116268 -0.599198 -0.066762
v 0.119305 -0.526626 -0.004591
v 0.116268 -0.592291 0.017591
v 0.119305 -0.534602 -0.101993
v 0.118857 -0.532630 -0.053127
v -0.199346 -0.564537 0.185984
v -0.205299 -0.522716 0.171857
v -0.148370 -0.564537 0.185984
v -0.173858 -0.565505 0.192141
v -0.175867 -0.523132 0.182558
v -0.146436 -0.522716 0.171857
v -0.314045 -0.529536 -0.029920
v -0.308984 -0.565094 -0.017908
v -0.308984 -0.568835 -0.063587
v -0.314045 -0.533854 -0.082666
v -0.313854 -0.568208 -0.040646
v -0.322594 -0.532786 -0.056203
v 0.021294 -0.577814 -0.059303
v 0.020885 -0.577162 -0.035432
v 0.023339 -0.540306 -0.051620
v 0.023005 -0.541417 -0.079155
v 0.021294 -0.573922 -0.011774
v 0.023005 -0.536923 -0.024272
v 0.117723 -0.560816 0.006959
v 0.068920 -0.529379 -0.054116
v 0.071476 -0.523546 -0.005528
v 0.070957 -0.589373 0.016703
v 0.070813 -0.595141 -0.025280
v 0.117451 -0.566444 -0.038275
v 0.117525 -0.572445 -0.081353
v 0.071699 -0.531536 -0.102926
v 0.067901 -0.596083 -0.067710
v 0.069639 -0.566544 -0.083826
v 0.022151 -0.559588 -0.069244
v -0.035876 -0.268672 0.012349
v -0.035876 -0.258654 0.134691
v -0.161263 -0.258654 0.134691
v -0.161263 -0.268672 0.012349
v -0.098569 -0.257610 0.158523
v -0.098569 -0.271518 -0.011334
v -0.011407 -0.264564 0.073594
v -0.185732 -0.264564 0.073594
vn 0.9992 0.0390 -0.0032
vn 0.5329 0.3550 0.7681
vn 0.6026 0.1802 0.7774
vn -0.0000 0.2248 0.9744
vn -0.6962 0.3398 0.6323
vn -0.6651 0.1981 0.7200
vn -0.9703 0.2411 -0.0197
vn -0.6962 0.2325 -0.6792
vn -0.6651 0.0783 -0.7426
vn -0.0000 0.0633 -0.9980
vn 0.5329 0.2254 -0.8156
vn 0.6026 0.0513 -0.7964
vn -0.0250 0.9964 -0.0816
vn 0.0075 0.3398 -0.9405
vn 0.0722 -0.0627 -0.9954
vn 0.6237 -0.1245 -0.7717
vn 0.8457 -0.1241 -0.5190
vn -0.9949 -0.0962 -0.0308
vn -0.7963 -0.0926 -0.5978
vn -0.9411 -0.2427 0.2355
vn -0.0558 0.1408 0.9885
vn -0.5169 -0.1671 0.8396
vn 0.0814 -0.0661 0.9945
vn 0.9632 -0.1569 0.2181
vn 0.6930 0.1543 0.7042
vn 0.6144 -0.0764 0.7853
vn -0.0131 -0.1630 -0.9865
vn -0.6506 -0.1518 -0.7441
vn -0.7148 0.0309 0.6987
vn 0.9740 -0.2177 -0.0625
vn -0.7202 0.6915 -0.0566
vn 0.0075 0.4882 0.8727
vn 0.9776 -0.1902 -0.0901
vn 0.6310 0.0904 0.7705
vn 0.9739 0.1828 -0.1344
vn -0.9715 0.2302 -0.0574
vn -0.6946 0.3420 0.6329
vn -0.7072 -0.1198 0.6968
vn -0.6042 0.3521 -0.7148
vn -0.7370 0.6655 -0.1179
vn -0.0623 -0.1242 -0.9903
vn -0.4439 -0.0610 -0.8940
vn 0.7270 0.0316 -0.6859
vn 0.4046 -0.1554 -0.9012
vn -0.1454 0.2856 0.9473
vn 0.0337 -0.3709 0.9281
vn 0.6866 -0.4162 0.5961
vn 0.1035 0.2092 -0.9724
vn -0.0000 -0.9967 0.0816
vn -0.1628 -0.7677 -0.6197
vn 0.0121 -0.7236 -0.6901
vn -0.1727 0.0225 -0.9847
vn -0.0885 0.9928 -0.0808
vn -0.1746 0.0054 -0.9846
vn -0.0019 -0.9977 -0.0680
vn 0.6610 -0.0985 0.7439
vn 0.0153 -0.0868 0.9961
vn 0.0582 0.0201 -0.9981
vn -0.4930 -0.6325 -0.5974
vn -0.3592 -0.0092 -0.9332
vn 0.1490 -0.7560 -0.6374
vn -0.8188 -0.5355 -0.2071
vn -0.9640 0.2183 0.1521
vn -0.9616 0.2117 -0.1747
vn 0.0810 -0.9932 0.0837
vn 0.7529 -0.2940 0.5889
vn -0.0125 0.6643 0.7474
vn -0.2529 -0.0409 0.9666
vn -0.0331 -0.0709 0.9969
vn -0.1543 -0.9849 0.0788
vn -0.2193 -0.6988 -0.6809
vn -0.2139 -0.9729 0.0880
vn -0.7735 -0.5369 0.3369
vn 0.0046 -0.9923 0.1241
vn -0.0201 0.4492 0.8932
vn -0.6346 -0.1169 0.7640
vn -0.0025 0.9951 -0.0991
vn 0.9354 0.2898 0.2026
vn 0.9175 0.3789 0.1208
vn 0.8993 -0.4323 -0.0661
vn -0.9821 0.1487 -0.1154
vn -0.8598 -0.4664 0.2078
vn -0.7093 0.3168 0.6297
vn 0.0942 -0.9924 0.0788
vn 0.0551 -0.7581 -0.6498
vn -0.0408 0.9958 -0.0822
vn 0.9221 -0.3859 0.0292
vn 0.7190 0.1926 0.6678
vn 0.4681 -0.0481 0.8824
vn 0.8395 -0.4218 -0.3426
vn 0.9991 -0.0414 0.0013
vn -0.1228 -0.4705 -0.8738
vn -0.1528 -0.7638 -0.6271
vn -0.1825 -0.0848 0.9795
vn -0.2137 0.5586 0.8014
vn -0.1007 0.6898 0.7170
vn -0.2351 -0.0386 0.9712
vn -0.0161 0.9965 -0.0824
vn -0.1203 -0.9891 0.0852
vn 0.8179 0.3295 0.4717
vn 0.9539 0.2992 -0.0230
vn 0.5005 0.0019 -0.8658
vn 0.7920 -0.3203 -0.5197
vn -0.1731 -0.4640 -0.8688
vn 0.6887 0.7226 -0.0592
vt 0.198160 0.493954
vt 0.121030 0.406424
vt 0.198160 0.910956
vt 0.112470 0.823427
vt 0.487370 0.073479
vt 0.112470 0.406424
vt 0.121027 0.413757
vt 0.278420 0.318400
vt 0.112467 0.413757
vt 0.487370 0.066856
vt 0.276551 0.326684
vt 0.201321 0.494243
vt 0.281336 0.151056
vt 0.043045 0.858949
vt 0.047613 0.849619
vt 0.490241 0.074702
vt 0.279133 0.328095
vt 0.490241 0.066590
vt 0.281608 0.137252
vt 0.281423 0.317949
vt 0.288260 0.145343
vt 0.200373 0.911162
vt 0.200373 0.494159
vt 0.042449 0.858270
vt 0.111895 0.822878
vt 0.046756 0.849475
vt 0.489389 0.074321
vt 0.489389 0.066674
vt 0.278363 0.327659
vt 0.280522 0.318094
vt 0.360525 0.236092
vt 0.044446 0.147006
vt 0.366068 0.948315
vt 0.390789 0.042858
vt 0.364724 0.237451
vt 0.566901 0.229831
vt 0.591640 0.492603
vt 0.392932 0.048195
vt 0.548022 0.045402
vt 0.047463 0.864386
vt 0.041921 0.152164
vt 0.745326 0.490248
vt 0.552378 0.044676
vt 0.486227 0.070555
vt 0.111460 0.410081
vt 0.196138 0.497316
vt 0.121944 0.410081
vt 0.275687 0.316498
vt 0.200329 0.499116
vt 0.279358 0.314789
vt 0.286175 0.149875
vt 0.490126 0.071577
vt 0.198489 0.498415
vt 0.277733 0.315368
vt 0.488342 0.071200
vt 0.566901 0.232251
vt 0.362932 0.235833
vt 0.550363 0.046017
vt 0.745326 0.487842
vt 0.116704 0.822594
vt 0.116704 0.405591
vt 0.196138 0.907687
vt 0.116701 0.412106
vt 0.275687 0.322048
vt 0.281330 0.323460
vt 0.286368 0.140114
vt 0.045026 0.854427
vt 0.279496 0.323124
vt 0.116798 0.818947
vt 0.043113 0.853740
vt 0.199423 0.905027
vt 0.364454 0.950838
vt 0.043091 0.149658
vt 0.048634 0.861881
vt 0.592773 0.494169
vt 0.391384 0.045635
vt 0.116684 0.410077
vt 0.039694 0.047480
vt 0.200739 0.227395
vt 0.044702 0.047741
vt 0.514028 0.411890
vt 0.039502 0.051297
vt 0.595666 0.408269
vt 0.036906 0.325982
vt 0.044510 0.051558
vt 0.205120 0.152555
vt 0.045010 0.147958
vt 0.361007 0.237040
vt 0.201874 0.226368
vt 0.514972 0.411732
vt 0.037496 0.326876
vt 0.441281 0.226368
vt 0.390011 0.043913
vt 0.567779 0.228886
vt 0.200739 0.152006
vt 0.594581 0.407386
vt 0.547420 0.046251
vt 0.392154 0.049249
vt 0.447077 0.226368
vt 0.037786 0.051620
vt 0.042484 0.153116
vt 0.520768 0.411711
vt 0.744428 0.489301
vt 0.038007 0.047212
vt 0.045166 0.049680
vt 0.039033 0.049360
vt 0.567779 0.231306
vt 0.363413 0.236781
vt 0.203052 0.151300
vt 0.744428 0.486896
vt 0.549761 0.046866
vt 0.036906 0.049365
vt 0.042217 0.047182
vt 0.041982 0.051858
vt 0.043655 0.150611
vt 0.517869 0.410967
vt 0.390606 0.046690
vt 0.444180 0.227123
vt 0.042094 0.049522
vt 0.676656 0.318778
vt 0.205120 0.138508
vt 0.201874 0.240440
vt 0.200739 0.241467
vt 0.058515 0.050212
vt 0.677762 0.319104
vt 0.677780 0.317620
vt 0.058979 0.052152
vt 0.057381 0.054393
vt 0.676677 0.314789
vt 0.200739 0.137958
vt 0.677780 0.315651
vt 0.058323 0.054030
vt 0.676647 0.317209
vt 0.203052 0.137252
vt 0.725391 0.304163
vt 0.441603 0.237314
vt 0.724205 0.303419
vt 0.440659 0.236877
vt 0.043631 0.062472
vt 0.724176 0.304893
vt 0.041103 0.062772
vt 0.036906 0.062534
vt 0.447399 0.237314
vt 0.038623 0.062212
vt 0.039758 0.063439
vt 0.725391 0.306096
vt 0.444503 0.238068
vt 0.605458 0.228855
vt 0.042721 0.037312
vt 0.605418 0.231342
vt 0.040220 0.037174
vt 0.250395 0.154552
vt 0.514927 0.401403
vt 0.604247 0.227355
vt 0.605418 0.226368
vt 0.045228 0.037435
vt 0.251494 0.154901
vt 0.520723 0.401383
vt 0.038534 0.036906
vt 0.604247 0.233098
vt 0.517826 0.401415
vt 0.604284 0.230224
vt 0.054551 0.053007
vt 0.037121 0.315840
vt 0.053952 0.053238
vt 0.201277 0.141537
vt 0.037496 0.316409
vt 0.200829 0.237742
vt 0.054673 0.050575
vt 0.054969 0.051810
vt 0.202750 0.141087
vt 0.201552 0.237088
vt 0.204068 0.141887
vt 0.442778 0.232328
vt 0.595078 0.401383
vt 0.442267 0.232092
vt 0.042278 0.057602
vt 0.595666 0.401862
vt 0.039566 0.057461
vt 0.038637 0.057635
vt 0.445917 0.232328
vt 0.040909 0.057764
vt 0.444348 0.232737
vt 0.040558 0.041723
vt 0.041966 0.041817
vt 0.517794 0.405980
vt 0.519427 0.405990
vt 0.039607 0.041572
vt 0.251345 0.150083
vt 0.043379 0.041870
vt 0.515629 0.406090
vt 0.250725 0.149886
vt 0.516161 0.406001
vt 0.604857 0.226841
vt 0.250967 0.154734
vt 0.517874 0.403800
vt 0.250395 0.152469
vt 0.514972 0.403688
vt 0.251494 0.152928
vt 0.045084 0.039593
vt 0.042578 0.039471
vt 0.604891 0.229516
vt 0.604933 0.232069
vt 0.039522 0.037063
vt 0.520768 0.403657
vt 0.038383 0.039174
vt 0.040067 0.039478
vt 0.039296 0.039338
vt 0.040082 0.041647
vt 0.278933 0.147854
vt 0.047380 0.856502
vt 0.553328 0.036906
vt 0.050552 0.850024
vt 0.493010 0.075098
vt 0.361149 0.226788
vt 0.366692 0.939011
vt 0.278933 0.138425
vt 0.493010 0.069687
vt 0.591640 0.486896
vt 0.366846 0.228633
vt 0.283552 0.144043
vt 0.547420 0.037892
vt 0.392932 0.040103
vt 0.492951 0.073000
vt 0.364436 0.226368
vt 0.282140 0.147040
vt 0.550607 0.038794
vt 0.048789 0.853360
vt 0.364454 0.942110
vt 0.282145 0.140491
vt 0.593217 0.488995
vt 0.390875 0.036906
s 1
usemtl frog
f 30/69/1 2/4/2 10/25/3
f 22/55/4 4/10/5 11/28/6
f 29/68/7 3/8/8 12/30/9
f 21/53/10 1/1/11 9/23/12
f 33/77/13 1/2/11 18/47/14
f 103/226/15 5/13/16 98/210/17
f 27/66/18 101/221/19 105/230/20
f 20/52/21 100/218/22 102/224/23
f 104/228/24 6/15/25 99/213/26
f 19/49/27 9/23/12 5/12/16
f 27/65/18 12/30/9 8/20/28
f 20/52/21 11/28/6 7/18/29
f 28/67/30 10/26/3 6/15/25
f 10/27/3 20/52/21 6/16/25
f 12/30/9 19/50/27 8/20/28
f 6/16/25 102/224/23 99/214/26
f 8/21/28 103/226/15 101/221/19
f 26/63/31 18/47/14 3/7/8
f 3/8/8 21/54/10 12/30/9
f 2/5/2 22/55/4 10/27/3
f 17/45/32 26/63/31 4/9/5
f 9/24/12 28/67/30 5/14/16
f 11/29/6 27/65/18 7/17/29
f 98/211/17 28/67/30 104/228/24
f 7/19/29 105/230/20 100/217/22
f 2/6/2 33/77/13 17/45/32
f 4/11/5 29/68/7 11/29/6
f 1/3/11 30/71/1 9/22/12
f 31/73/33 38/87/34 48/115/35
f 32/76/36 39/93/37 14/34/38
f 15/38/39 49/117/40 32/76/36
f 15/39/39 45/111/41 40/97/42
f 16/41/43 48/115/35 41/101/44
f 14/36/38 44/107/45 23/56/46
f 23/57/46 38/88/34 13/31/47
f 24/59/48 41/103/44 45/110/41
f 50/119/49 36/82/50 43/106/51
f 84/187/52 88/196/53 94/205/54
f 72/170/55 52/124/56 53/127/57
f 78/180/58 61/144/59 60/142/60
f 43/106/51 41/104/44 34/78/61
f 40/100/42 43/106/51 36/82/50
f 69/163/62 54/128/63 70/165/64
f 50/119/49 34/78/61 46/113/65
f 35/80/66 50/119/49 46/113/65
f 75/174/67 58/138/68 76/176/69
f 82/185/70 95/207/71 91/201/72
f 37/85/73 50/119/49 42/105/74
f 56/133/75 55/131/76 53/126/57
f 52/125/56 56/133/75 53/126/57
f 73/171/77 51/121/78 74/173/79
f 73/171/77 54/130/63 56/134/75
f 72/170/55 55/132/76 69/163/62
f 71/168/80 51/122/78 52/123/56
f 62/145/81 61/144/59 59/141/82
f 57/135/83 59/140/82 58/137/68
f 76/177/69 59/141/82 79/182/84
f 79/182/84 61/144/59 77/179/85
f 80/183/86 60/143/60 62/147/81
f 80/183/86 57/136/83 75/174/67
f 63/148/87 87/194/88 66/155/89
f 64/150/90 92/202/91 63/148/87
f 97/209/92 95/207/71 81/184/93
f 85/189/94 89/197/95 86/192/96
f 85/190/94 91/201/72 90/200/97
f 86/193/96 88/196/53 83/186/98
f 35/79/66 74/172/79 71/168/80
f 42/105/74 69/163/62 37/85/73
f 44/109/45 70/166/64 73/171/77
f 44/109/45 74/173/79 38/86/34
f 37/84/73 70/167/64 39/91/37
f 42/105/74 71/169/80 72/170/55
f 49/118/40 75/174/67 39/92/37
f 49/118/40 78/181/58 80/183/86
f 47/114/99 77/179/85 36/82/50
f 47/114/99 76/177/69 79/182/84
f 39/96/37 76/178/69 37/83/73
f 40/100/42 77/179/85 78/180/58
f 48/116/35 86/193/96 83/186/98
f 46/113/65 85/190/94 35/80/66
f 38/90/34 85/191/94 86/193/96
f 41/104/44 97/209/92 81/184/93
f 46/113/65 81/184/93 82/185/70
f 48/116/35 84/187/52 41/102/44
f 90/199/97 87/195/88 65/152/100
f 90/200/97 63/149/87 66/156/89
f 94/205/54 68/161/101 67/158/102
f 93/203/103 68/162/101 92/202/91
f 89/198/95 68/161/101 88/196/53
f 96/208/104 64/151/90 95/207/71
f 91/201/72 64/151/90 63/149/87
f 92/202/91 65/154/100 87/194/88
f 96/208/104 84/188/52 94/206/54
f 93/204/103 94/206/54 67/159/102
f 14/37/38 105/231/20 32/75/36
f 98/211/17 31/74/33 16/40/43
f 15/39/39 103/227/15 24/58/48
f 99/215/26 23/57/46 13/31/47
f 104/229/24 13/33/47 31/72/33
f 23/57/46 100/220/22 14/35/38
f 32/76/36 101/223/19 15/38/39
f 103/227/15 16/43/43 24/58/48
f 30/69/1 25/60/105 2/4/2
f 22/55/4 17/44/32 4/10/5
f 29/68/7 26/64/31 3/8/8
f 21/53/10 18/46/14 1/1/11
f 33/77/13 25/61/105 1/2/11
f 103/226/15 19/51/27 5/13/16
f 27/66/18 8/21/28 101/221/19
f 20/52/21 7/18/29 100/218/22
f 104/228/24 28/67/30 6/15/25
f 19/49/27 21/53/10 9/23/12
f 27/65/18 29/68/7 12/30/9
f 20/52/21 22/55/4 11/28/6
f 28/67/30 30/70/1 10/26/3
f 10/27/3 22/55/4 20/52/21
f 12/30/9 21/54/10 19/50/27
f 6/16/25 20/52/21 102/224/23
f 8/21/28 19/51/27 103/226/15
f 26/63/31 33/77/13 18/47/14
f 3/8/8 18/48/14 21/54/10
f 2/5/2 17/44/32 22/55/4
f 17/45/32 33/77/13 26/63/31
f 9/24/12 30/70/1 28/67/30
f 11/29/6 29/68/7 27/65/18
f 98/211/17 5/14/16 28/67/30
f 7/19/29 27/66/18 105/230/20
f 2/6/2 25/61/105 33/77/13
f 4/11/5 26/64/31 29/68/7
f 1/3/11 25/62/105 30/71/1
f 31/73/33 13/32/47 38/87/34
f 32/76/36 49/117/40 39/93/37
f 15/38/39 40/98/42 49/117/40
f 15/39/39 24/58/48 45/111/41
f 16/41/43 31/73/33 48/115/35
f 14/36/38 39/94/37 44/107/45
f 23/57/46 44/108/45 38/88/34
f 24/59/48 16/42/43 41/103/44
f 50/119/49 47/114/99 36/82/50
f 84/187/52 83/186/98 88/196/53
f 72/170/55 71/169/80 52/124/56
f 78/180/58 77/179/85 61/144/59
f 43/106/51 45/112/41 41/104/44
f 40/100/42 45/112/41 43/106/51
f 69/163/62 55/132/76 54/128/63
f 50/119/49 43/106/51 34/78/61
f 35/80/66 42/105/74 50/119/49
f 75/174/67 57/136/83 58/138/68
f 82/185/70 81/184/93 95/207/71
f 37/85/73 47/114/99 50/119/49
f 56/133/75 54/129/63 55/131/76
f 52/125/56 51/120/78 56/133/75
f 73/171/77 56/134/75 51/121/78
f 73/171/77 70/166/64 54/130/63
f 72/170/55 53/127/57 55/132/76
f 71/168/80 74/172/79 51/122/78
f 62/145/81 60/142/60 61/144/59
f 57/135/83 62/146/81 59/140/82
f 76/177/69 58/139/68 59/141/82
f 79/182/84 59/141/82 61/144/59
f 80/183/86 78/181/58 60/143/60
f 80/183/86 62/147/81 57/136/83
f 63/148/87 92/202/91 87/194/88
f 64/150/90 93/203/103 92/202/91
f 97/209/92 96/208/104 95/207/71
f 85/189/94 90/199/97 89/197/95
f 85/190/94 82/185/70 91/201/72
f 86/193/96 89/198/95 88/196/53
f 35/79/66 38/89/34 74/172/79
f 42/105/74 72/170/55 69/163/62
f 44/109/45 39/95/37 70/166/64
f 44/109/45 73/171/77 74/173/79
f 37/84/73 69/164/62 70/167/64
f 42/105/74 35/80/66 71/169/80
f 49/118/40 80/183/86 75/174/67
f 49/118/40 40/99/42 78/181/58
f 47/114/99 79/182/84 77/179/85
f 47/114/99 37/85/73 76/177/69
f 39/96/37 75/175/67 76/178/69
f 40/100/42 36/82/50 77/179/85
f 48/116/35 38/90/34 86/193/96
f 46/113/65 82/185/70 85/190/94
f 38/90/34 35/81/66 85/191/94
f 81/184/93 34/78/61 41/104/44
f 41/104/44 84/188/52 97/209/92
f 46/113/65 34/78/61 81/184/93
f 48/116/35 83/186/98 84/187/52
f 65/152/100 89/197/95 90/199/97
f 90/199/97 66/157/89 87/195/88
f 90/200/97 91/201/72 63/149/87
f 94/205/54 88/196/53 68/161/101
f 93/203/103 67/160/102 68/162/101
f 89/198/95 65/153/100 68/161/101
f 96/208/104 93/204/103 64/151/90
f 91/201/72 95/207/71 64/151/90
f 92/202/91 68/162/101 65/154/100
f 96/208/104 97/209/92 84/188/52
f 93/204/103 96/208/104 94/206/54
f 14/37/38 100/219/22 105/231/20
f 98/211/17 104/228/24 31/74/33
f 15/39/39 101/222/19 103/227/15
f 99/215/26 102/225/23 23/57/46
f 104/229/24 99/216/26 13/33/47
f 23/57/46 102/225/23 100/220/22
f 32/76/36 105/232/20 101/223/19
f 103/227/15 98/212/17 16/43/43
