# Blender 4.0.1
# www.blender.org
mtllib LeftHand.mtl
o hidariude
v 0.299292 1.110940 0.009861
v 0.311711 1.093410 0.186092
v 0.317702 1.114329 0.008901
v 0.325663 1.095977 0.185365
v 0.332646 0.930492 0.012573
v 0.343467 0.915217 0.166129
v 0.437404 0.932507 0.161229
v 0.431041 0.948602 0.007440
v 0.315170 1.021844 -0.000121
v 0.327589 1.004313 0.176111
v 0.404510 1.018471 0.172098
v 0.396550 1.036822 -0.004366
v 0.359345 0.826121 0.156147
v 0.437574 0.840520 0.152067
v 0.431212 0.856615 -0.001722
v 0.348524 0.841396 0.002591
v 0.261386 1.152596 0.109315
v 0.370370 1.112839 0.105973
v 0.482111 0.949369 0.081837
v 0.338057 0.922855 0.089351
v 0.449217 1.035333 0.092706
v 0.353935 0.833759 0.079369
v 0.482281 0.857381 0.072674
v 0.377267 0.753547 0.001938
v 0.361987 0.765853 -0.005872
v 0.368783 0.736960 0.136502
v 0.355060 0.747024 0.148581
v 0.457523 0.768319 -0.002248
v 0.459401 0.783706 -0.010961
v 0.462796 0.754264 0.131598
v 0.465812 0.767484 0.142811
v 0.381273 0.747892 0.058790
v 0.367384 0.758288 0.070914
v 0.380263 0.745466 0.078842
v 0.495901 0.766749 0.072810
v 0.510496 0.784406 0.063427
v 0.495338 0.768886 0.052840
v 0.465812 0.767484 0.142811
v 0.462796 0.754264 0.131598
v 0.368783 0.736960 0.136502
v 0.355060 0.747024 0.148581
v 0.318687 1.094694 0.185729
v 0.308497 1.112634 0.009381
v 0.381844 0.939547 0.010007
v 0.390436 0.923862 0.163679
v 0.355860 1.029333 -0.002243
v 0.366050 1.011392 0.174105
v 0.398460 0.833320 0.154107
v 0.389868 0.849006 0.000435
v 0.293420 1.158493 0.107644
v 0.415790 0.745612 0.134050
v 0.410436 0.757254 0.145696
v 0.417395 0.760933 -0.000155
v 0.410694 0.774779 -0.008416
v 0.438306 0.758389 0.055815
v 0.438082 0.756107 0.075826
v 0.415790 0.745612 0.134050
v 0.410436 0.757254 0.145696
v 0.287089 1.096938 0.167215
v 0.340968 0.918745 0.130661
v 0.302967 1.007842 0.157233
v 0.356846 0.829649 0.120679
v 0.346315 1.103767 0.148689
v 0.458056 0.940296 0.124553
v 0.425163 1.026260 0.135423
v 0.458227 0.848309 0.115391
v 0.478089 0.760031 0.104440
v 0.486454 0.775301 0.106139
v 0.374086 0.740889 0.109866
v 0.360753 0.752228 0.112702
v 0.282849 1.151902 0.149657
v 0.426088 0.750460 0.107153
v 0.345414 1.113545 0.059975
v 0.457912 0.949006 0.046584
v 0.424261 1.036039 0.046709
v 0.458082 0.857018 0.037422
v 0.275165 1.105735 0.036073
v 0.335493 0.926474 0.052970
v 0.291043 1.016639 0.026092
v 0.351371 0.837378 0.042988
v 0.379375 0.750572 0.031851
v 0.364827 0.761872 0.034529
v 0.477420 0.768618 0.026737
v 0.486284 0.784074 0.028178
v 0.428397 0.759595 0.029294
v 0.279282 1.161189 0.061082
v 0.409489 0.743946 0.167911
v 0.367027 0.736131 0.170126
v 0.376805 0.750132 0.184449
v 0.402527 0.754525 0.179565
v 0.455950 0.762200 0.172818
v 0.458450 0.749995 0.161317
v 0.420145 0.755573 0.174682
v 0.417896 0.742531 0.163432
v 0.528301 0.764321 0.085725
v 0.529803 0.788450 0.083774
v 0.512566 0.778805 0.113869
v 0.519997 0.764095 0.106042
v 0.495665 0.770107 0.162937
v 0.491571 0.753454 0.153816
v 0.506864 0.759222 0.126659
v 0.515753 0.773751 0.135800
v 0.406941 0.722287 0.181073
v 0.381089 0.717529 0.182422
v 0.387042 0.726054 0.191142
v 0.402703 0.728728 0.188169
v 0.451155 0.738439 0.181240
v 0.452414 0.732294 0.175450
v 0.433129 0.735102 0.182179
v 0.431997 0.728536 0.176515
v 0.511374 0.756166 0.159597
v 0.508838 0.745851 0.153947
v 0.518311 0.749423 0.137125
v 0.523817 0.758423 0.142788
v 0.549794 0.770242 0.098264
v 0.550679 0.784466 0.097113
v 0.540518 0.778780 0.114855
v 0.544898 0.770108 0.110241
v 0.245915 1.105735 0.067382
v 0.240057 1.101047 0.109315
v 0.335493 0.926474 0.052970
v 0.338057 0.922855 0.089351
v 0.261793 1.016639 0.057400
v 0.255935 1.011951 0.099333
v 0.266578 1.096938 0.146362
v 0.340968 0.918745 0.130661
v 0.282456 1.007842 0.136380
vn 0.6401 0.3231 -0.6971
vn 0.3050 -0.3887 -0.8694
vn 0.3289 0.2323 -0.9153
vn -0.0700 0.0987 -0.9927
vn -0.1463 -0.6480 -0.7474
vn -0.5010 -0.2275 -0.8350
vn -0.5697 -0.7641 0.3026
vn -0.4555 -0.3144 0.8329
vn -0.7531 -0.5139 0.4107
vn -0.0105 -0.5697 0.8218
vn 0.4016 0.0853 0.9118
vn 0.0480 0.0220 0.9986
vn 0.0700 -0.0987 0.9927
vn 0.6377 0.4047 0.6554
vn 0.0127 0.2085 0.9779
vn 0.2853 -0.8688 0.4047
vn 0.4297 -0.2943 0.8537
vn 0.6968 0.2323 0.6786
vn 0.7440 0.0580 0.6657
vn -0.8045 -0.2133 0.5544
vn -0.5043 -0.1077 0.8568
vn -0.3754 -0.1727 0.9106
vn -0.4840 0.0081 -0.8750
vn 0.7358 0.6734 -0.0721
vn 0.6356 0.1439 -0.7585
vn 0.9897 0.1385 -0.0375
vn -0.8129 -0.1956 0.5486
vn -0.5643 -0.0121 -0.8255
vn 0.6450 0.1977 -0.7381
vn -0.4762 0.0807 0.8756
vn -0.8243 0.0135 0.5659
vn -0.2346 0.9663 0.1055
vn -0.1744 0.9786 0.1096
vn -0.6571 -0.5172 -0.5484
vn -0.9818 -0.1877 0.0279
vn -0.9048 -0.1093 0.4115
vn -0.0472 0.7412 -0.6696
vn -0.0268 0.4775 -0.8782
vn -0.3777 0.7369 0.5606
vn -0.1236 0.8271 0.5483
vn 0.6483 -0.0495 -0.7598
vn 0.7345 0.4000 -0.5482
vn 0.7569 -0.0687 -0.6499
vn -0.8573 -0.1024 -0.5045
vn -0.8569 -0.5130 -0.0502
vn -0.9822 -0.1853 0.0308
vn 0.7055 0.7087 0.0061
vn 0.9822 0.1808 -0.0512
vn -0.8571 -0.1038 -0.5047
vn 0.2534 -0.7432 -0.6192
vn 0.7021 -0.6982 -0.1395
vn -0.2683 -0.9587 -0.0939
vn 0.9005 0.3900 0.1924
vn 0.4620 0.8625 -0.2066
vn -0.7491 -0.4213 -0.5113
vn -0.6321 -0.7684 -0.0998
vn 0.8407 0.3451 0.4173
vn 0.2924 0.9563 0.0032
vn 0.2377 0.9666 0.0959
vn 0.8696 0.4871 0.0803
vn 0.2415 0.9572 0.1594
vn -0.2731 0.9308 0.2428
vn -0.5702 0.7665 0.2956
vn 0.1856 0.8768 0.4436
vn 0.8557 0.5174 -0.0090
vn 0.2425 0.9669 0.0791
vn 0.4336 0.8994 -0.0546
vn 0.7246 0.6495 -0.2305
vn 0.0492 0.9987 0.0132
vn -0.4479 0.5693 0.6894
vn -0.6464 -0.7411 0.1815
vn 0.2695 0.9435 0.1928
vn -0.5282 0.7714 0.3549
vn -0.2504 0.9681 0.0110
vn 0.0047 0.9996 -0.0291
vn -0.0686 0.9976 0.0045
vn -0.0877 0.9946 0.0551
vn 0.2115 0.9720 0.1024
vn 0.2165 0.6222 -0.7523
vn -0.5652 0.8120 -0.1453
vn -0.8127 0.5827 0.0083
vn -0.4934 -0.6382 -0.5909
vn -0.5740 -0.6712 -0.4690
vn -0.0854 -0.7898 0.6074
vn -0.0498 -0.4094 -0.9110
vn -0.3863 0.7846 0.4849
vn -0.3818 -0.8136 0.4386
vn 0.9663 -0.0841 -0.2434
vn 0.6391 0.7684 -0.0333
vn 0.4398 0.8979 -0.0155
vn 0.7337 0.2364 0.6371
vn -0.9414 0.3362 -0.0262
vn -0.5307 0.0941 -0.8423
vn -0.4266 -0.7337 -0.5289
vn 0.4466 -0.5854 -0.6766
vn 0.3081 0.9476 -0.0843
vn -0.5985 0.8011 -0.0069
vn 0.6843 0.7257 -0.0714
vn 0.6034 -0.4808 -0.6362
vn -0.8165 0.5348 0.2178
vn -0.7883 -0.5910 0.1714
vn 0.1985 -0.3802 -0.9034
vn -0.0216 0.8709 -0.4910
vn -0.9982 -0.0352 -0.0483
vn 0.1006 -0.5037 -0.8580
vn 0.3513 0.7960 -0.4929
vn -0.7128 0.6990 0.0574
vn 0.1748 0.2698 -0.9469
vn 0.4279 0.9034 -0.0272
vn 0.2831 0.2565 -0.9241
vn -0.5032 0.1378 -0.8531
vn -0.0849 0.9275 -0.3640
vn -0.4864 0.7404 0.4639
vn -0.4690 0.0832 -0.8793
vn -0.5599 0.5635 -0.6074
vn -0.2832 -0.3492 -0.8932
vn 0.8687 -0.2463 0.4297
vn 0.8863 0.4327 -0.1649
vn 0.3299 0.9431 -0.0413
vn 0.7581 -0.1648 0.6310
vt 0.198541 0.927649
vt 0.199804 0.924405
vt 0.199804 0.927644
vt 0.626796 0.125234
vt 0.623617 0.126288
vt 0.626726 0.123843
vt 0.525653 0.393502
vt 0.529146 0.391922
vt 0.529450 0.393965
vt 0.467361 0.539642
vt 0.467707 0.542768
vt 0.466234 0.542756
vt 0.466199 0.549217
vt 0.467707 0.551877
vt 0.465944 0.551864
vt 0.199509 0.633332
vt 0.198740 0.631457
vt 0.199074 0.631457
vt 0.467683 0.546107
vt 0.467696 0.549229
vt 0.535615 0.393322
vt 0.532426 0.392406
vt 0.535317 0.391661
vt 0.630005 0.124759
vt 0.633172 0.123461
vt 0.633244 0.124876
vt 0.198541 0.930887
vt 0.199804 0.934121
vt 0.198541 0.934126
vt 0.465903 0.546093
vt 0.532723 0.394067
vt 0.629919 0.123060
vt 0.199804 0.930882
vt 0.538094 0.391459
vt 0.538392 0.393120
vt 0.626126 0.457331
vt 0.627699 0.456551
vt 0.627967 0.457731
vt 0.635736 0.121937
vt 0.632848 0.121623
vt 0.635560 0.120948
vt 0.635989 0.124789
vt 0.635886 0.122786
vt 0.628282 0.454959
vt 0.627404 0.453671
vt 0.628825 0.453979
vt 0.198541 0.924410
vt 0.629769 0.122211
vt 0.626402 0.122005
vt 0.629595 0.121222
vt 0.195777 0.930898
vt 0.197071 0.934131
vt 0.195777 0.934136
vt 0.633023 0.122612
vt 0.199412 0.636503
vt 0.198740 0.635022
vt 0.199901 0.635022
vt 0.198499 0.936865
vt 0.199726 0.936857
vt 0.529434 0.396713
vt 0.525926 0.395342
vt 0.529723 0.395805
vt 0.195394 0.927661
vt 0.298332 0.552619
vt 0.298634 0.552109
vt 0.299031 0.552614
vt 0.625652 0.456106
vt 0.625106 0.455629
vt 0.625774 0.455402
vt 0.296309 0.552627
vt 0.297339 0.552115
vt 0.297374 0.552623
vt 0.199706 0.798578
vt 0.199619 0.799513
vt 0.199139 0.798448
vt 0.675795 0.798516
vt 0.676039 0.799667
vt 0.675505 0.799946
vt 0.464348 0.552420
vt 0.465800 0.552432
vt 0.300062 0.552099
vt 0.300083 0.552600
vt 0.538925 0.393963
vt 0.538727 0.392856
vt 0.629812 0.456279
vt 0.627793 0.455841
vt 0.197071 0.936874
vt 0.195777 0.936881
vt 0.959451 0.513553
vt 0.467252 0.552444
vt 0.762230 0.662352
vt 0.761829 0.662035
vt 0.762230 0.661587
vt 0.200085 0.636503
vt 0.201062 0.635022
vt 0.630018 0.455336
vt 0.630246 0.454288
vt 0.633316 0.126291
vt 0.636092 0.126793
vt 0.629746 0.456996
vt 0.629808 0.458132
vt 0.630091 0.126459
vt 0.464761 0.542744
vt 0.464122 0.546078
vt 0.464703 0.549205
vt 0.200278 0.633332
vt 0.199407 0.631457
vt 0.464181 0.551851
vt 0.467028 0.539640
vt 0.626867 0.126626
vt 0.623630 0.126541
vt 0.628197 0.458745
vt 0.629861 0.459107
vt 0.198993 0.637774
vt 0.199246 0.637774
vt 0.300986 0.552589
vt 0.301288 0.552091
vt 0.060171 0.764106
vt 0.060907 0.764861
vt 0.060049 0.764799
vt 0.529186 0.397492
vt 0.525638 0.396250
vt 0.198740 0.636503
vt 0.626576 0.122994
vt 0.626533 0.458383
vt 0.197071 0.930893
vt 0.194339 0.934142
vt 0.194339 0.936887
vt 0.538507 0.391625
vt 0.193532 0.924429
vt 0.193532 0.927668
vt 0.194339 0.930903
vt 0.626547 0.454581
vt 0.535882 0.394818
vt 0.538661 0.394616
vt 0.532991 0.395563
vt 0.320194 0.741181
vt 0.320321 0.741696
vt 0.319633 0.741320
vt 0.357810 0.798448
vt 0.359119 0.799741
vt 0.357810 0.800454
vt 0.320087 0.740499
vt 0.557965 0.581895
vt 0.556777 0.580486
vt 0.557965 0.580192
vt 0.162498 0.740332
vt 0.161847 0.741405
vt 0.161847 0.740666
vt 0.879556 0.039447
vt 0.880381 0.039694
vt 0.879386 0.040017
vt 0.516912 0.800454
vt 0.517966 0.798881
vt 0.517966 0.800179
vt 0.881089 0.355425
vt 0.879620 0.356478
vt 0.879386 0.355425
vt 0.060667 0.765610
vt 0.060160 0.765574
vt 0.220024 0.765521
vt 0.218512 0.764554
vt 0.219788 0.764572
vt 0.624640 0.457157
vt 0.624466 0.456403
vt 0.799796 0.596320
vt 0.798671 0.595761
vt 0.800161 0.595821
vt 0.675887 0.800467
vt 0.880906 0.673296
vt 0.879704 0.671948
vt 0.880906 0.672011
vt 0.625004 0.457965
vt 0.959750 0.355915
vt 0.960431 0.356447
vt 0.959451 0.356447
vt 0.960607 0.039123
vt 0.960372 0.039829
vt 0.960354 0.039258
vt 0.199512 0.800490
vt 0.199139 0.800275
vt 0.959480 0.040059
vt 0.879386 0.831327
vt 0.880560 0.832132
vt 0.879624 0.832132
vt 0.603895 0.661910
vt 0.603667 0.662581
vt 0.603667 0.661928
vt 0.761602 0.661615
vt 0.881209 0.039729
vt 0.881106 0.040017
vt 0.602874 0.662885
vt 0.624851 0.458965
vt 0.624328 0.458446
vt 0.624599 0.458314
vt 0.959637 0.198410
vt 0.959939 0.197835
vt 0.960425 0.198410
vt 0.960635 0.197838
vt 0.960069 0.197480
vt 0.797775 0.595855
vt 0.797471 0.596322
vt 0.797575 0.595826
vt 0.797898 0.596186
vt 0.219339 0.763698
vt 0.623720 0.457151
vt 0.623617 0.456707
vt 0.195394 0.924422
vt 0.197071 0.927654
vt 0.198740 0.633333
vt 0.525350 0.391459
vt 0.467694 0.539645
vt 0.295901 0.552122
vt 0.200232 0.799865
vt 0.676218 0.798448
vt 0.761904 0.662874
vt 0.623643 0.126793
vt 0.060907 0.763688
vt 0.525390 0.397029
vt 0.198740 0.637774
vt 0.320663 0.741611
vt 0.358995 0.798805
vt 0.320663 0.740332
vt 0.556777 0.582024
vt 0.162498 0.741800
vt 0.880585 0.039121
vt 0.516912 0.798448
vt 0.881089 0.356478
vt 0.218250 0.765521
vt 0.798878 0.596322
vt 0.676218 0.800295
vt 0.879386 0.673396
vt 0.625411 0.459017
vt 0.960640 0.355825
vt 0.960652 0.040059
vt 0.959451 0.039121
vt 0.880923 0.831327
vt 0.603895 0.662650
vt 0.761401 0.661841
vt 0.602874 0.661587
vt 0.624676 0.459107
vt 0.959451 0.197835
vt 0.218587 0.763687
vt 0.197071 0.924416
s 1
usemtl マテリアル
f 61/1/1 2/2/2 10/3/3
f 47/4/4 4/5/5 11/6/6
f 73/7/7 12/8/8 75/9/9
f 43/10/10 9/11/11 46/12/12
f 49/13/13 25/14/14 54/15/15
f 86/16/16 1/17/17 43/18/10
f 49/13/13 5/19/18 16/20/19
f 76/21/20 8/22/21 15/23/22
f 45/24/4 14/25/23 48/26/4
f 60/27/24 13/28/25 62/29/26
f 46/12/12 5/19/18 44/30/12
f 75/9/9 8/22/21 74/31/27
f 45/24/4 11/6/6 7/32/28
f 60/27/24 10/3/3 6/33/29
f 76/21/20 29/34/30 84/35/31
f 67/36/32 56/37/33 72/38/33
f 68/39/34 23/40/35 36/41/36
f 52/42/37 14/25/23 38/43/38
f 85/44/33 28/45/39 53/46/40
f 59/47/41 127/1/42 125/47/43
f 64/48/44 21/49/45 19/50/46
f 78/51/47 22/52/48 80/53/48
f 64/48/44 23/40/35 66/54/49
f 71/55/50 17/56/51 50/57/52
f 70/58/53 13/28/25 41/59/54
f 65/60/55 18/61/56 21/62/45
f 78/51/47 123/63/57 121/51/58
f 32/64/59 33/65/60 34/66/61
f 35/67/62 36/68/36 37/69/63
f 24/70/64 82/71/65 81/72/66
f 27/73/67 88/74/68 26/75/69
f 68/76/34 101/77/70 102/78/71
f 28/79/39 54/15/15 53/80/40
f 34/66/61 70/81/53 69/82/72
f 37/83/63 84/35/31 83/84/73
f 32/85/59 56/37/33 55/86/33
f 80/53/48 33/87/60 82/88/65
f 30/89/74 38/89/38 39/89/75
f 57/89/76 39/89/75 51/89/77
f 27/89/67 40/89/78 41/89/54
f 58/89/79 41/89/54 52/89/37
f 31/89/80 52/89/37 38/89/38
f 26/89/69 51/89/77 40/89/78
f 55/86/33 35/67/62 37/69/63
f 24/90/64 54/15/15 25/14/14
f 31/91/80 92/92/81 91/93/82
f 63/94/83 50/57/52 18/95/56
f 81/96/66 53/46/40 24/97/64
f 13/98/25 52/42/37 41/99/54
f 72/38/33 34/100/61 69/101/72
f 6/102/29 47/4/4 45/24/4
f 12/103/8 44/30/12 8/104/21
f 6/102/29 48/26/4 13/98/25
f 15/105/22 44/30/12 49/13/13
f 73/106/7 43/18/10 3/107/84
f 15/105/22 54/15/15 29/108/30
f 3/109/84 46/12/12 12/103/8
f 10/110/3 42/111/85 47/4/4
f 51/112/77 69/101/72 40/113/78
f 42/114/85 63/94/83 4/115/5
f 40/116/78 70/81/53 41/117/54
f 36/118/36 95/119/86 96/120/87
f 11/121/6 63/122/83 65/60/55
f 33/87/60 62/29/26 70/58/53
f 42/114/85 59/123/41 71/55/50
f 7/32/28 66/54/49 14/25/23
f 7/32/28 65/124/55 64/48/44
f 38/43/38 66/54/49 68/39/34
f 39/125/75 72/38/33 51/112/77
f 17/56/51 125/123/43 120/56/88
f 22/52/48 60/27/24 62/29/26
f 20/126/89 121/51/58 122/126/90
f 50/57/52 73/106/7 18/95/56
f 32/85/59 85/44/33 81/96/66
f 16/127/19 82/88/65 25/128/14
f 83/84/73 29/34/30 28/129/39
f 32/64/59 82/71/65 33/65/60
f 1/130/17 79/63/91 9/131/11
f 5/132/18 80/53/48 16/127/19
f 5/132/18 79/63/91 78/51/47
f 55/86/33 83/133/73 85/44/33
f 23/134/35 84/35/31 36/135/36
f 21/62/45 74/31/27 19/136/46
f 23/134/35 74/31/27 76/21/20
f 17/56/51 86/16/16 50/57/52
f 18/61/56 75/9/9 21/62/45
f 87/137/92 106/138/93 90/139/94
f 58/140/79 89/141/95 27/142/67
f 58/143/79 87/137/92 90/139/94
f 26/144/69 87/145/92 57/146/76
f 92/147/81 110/148/96 108/149/97
f 58/150/79 94/151/98 57/152/76
f 58/153/79 91/154/82 93/155/99
f 57/156/76 92/157/81 30/158/74
f 96/120/87 115/159/100 116/160/101
f 68/161/34 96/162/87 97/163/102
f 35/67/62 98/164/103 95/165/86
f 68/166/34 98/167/103 67/168/32
f 101/77/70 114/169/104 102/78/71
f 38/170/38 102/171/71 99/172/105
f 39/125/75 101/173/70 67/36/32
f 38/174/38 100/175/106 39/176/75
f 103/177/107 105/178/108 106/179/93
f 88/74/68 105/180/108 104/181/109
f 89/182/95 106/179/93 105/178/108
f 87/183/92 104/184/109 103/185/107
f 108/186/97 109/187/110 107/188/111
f 92/92/81 107/189/111 91/93/82
f 94/151/98 109/190/110 110/191/96
f 93/192/99 107/188/111 109/187/110
f 112/193/112 114/194/104 113/195/113
f 101/173/70 112/193/112 113/195/113
f 102/196/71 111/197/114 99/198/105
f 100/199/106 111/197/114 112/200/112
f 118/201/115 116/202/101 115/203/100
f 98/167/103 117/204/116 118/201/115
f 96/162/87 117/205/116 97/163/102
f 95/165/86 118/206/115 115/207/100
f 123/63/57 122/126/90 121/51/58
f 119/208/117 124/209/118 123/63/57
f 122/126/90 127/1/42 126/27/119
f 124/209/118 125/47/43 127/1/42
f 77/208/120 123/63/57 79/63/91
f 61/1/1 126/27/119 127/1/42
f 17/56/51 119/210/117 77/210/120
f 60/27/24 122/126/90 126/27/119
f 61/1/1 59/47/41 2/2/2
f 47/4/4 42/111/85 4/5/5
f 73/7/7 3/211/84 12/8/8
f 43/10/10 1/212/17 9/11/11
f 49/13/13 16/20/19 25/14/14
f 86/16/16 77/210/120 1/17/17
f 49/13/13 44/30/12 5/19/18
f 76/21/20 74/31/27 8/22/21
f 45/24/4 7/32/28 14/25/23
f 60/27/24 6/33/29 13/28/25
f 46/12/12 9/11/11 5/19/18
f 75/9/9 12/8/8 8/22/21
f 45/24/4 47/4/4 11/6/6
f 60/27/24 61/1/1 10/3/3
f 76/21/20 15/23/22 29/34/30
f 67/36/32 35/67/62 56/37/33
f 68/39/34 66/54/49 23/40/35
f 52/42/37 48/26/4 14/25/23
f 85/44/33 83/133/73 28/45/39
f 59/47/41 61/1/1 127/1/42
f 64/48/44 65/124/55 21/49/45
f 78/51/47 20/126/89 22/52/48
f 64/48/44 19/50/46 23/40/35
f 71/55/50 59/123/41 17/56/51
f 70/58/53 62/29/26 13/28/25
f 65/60/55 63/122/83 18/61/56
f 78/51/47 79/63/91 123/63/57
f 24/70/64 25/213/14 82/71/65
f 27/73/67 89/214/95 88/74/68
f 68/76/34 67/215/32 101/77/70
f 28/79/39 29/108/30 54/15/15
f 34/66/61 33/65/60 70/81/53
f 37/83/63 36/135/36 84/35/31
f 32/85/59 34/100/61 56/37/33
f 80/53/48 22/52/48 33/87/60
f 30/89/74 31/89/80 38/89/38
f 57/89/76 30/89/74 39/89/75
f 27/89/67 26/89/69 40/89/78
f 58/89/79 27/89/67 41/89/54
f 31/89/80 58/89/79 52/89/37
f 26/89/69 57/89/76 51/89/77
f 55/86/33 56/37/33 35/67/62
f 24/90/64 53/80/40 54/15/15
f 31/91/80 30/216/74 92/92/81
f 63/94/83 71/55/50 50/57/52
f 81/96/66 85/44/33 53/46/40
f 13/98/25 48/26/4 52/42/37
f 72/38/33 56/37/33 34/100/61
f 6/102/29 10/110/3 47/4/4
f 12/103/8 46/12/12 44/30/12
f 6/102/29 45/24/4 48/26/4
f 15/105/22 8/104/21 44/30/12
f 73/106/7 86/16/16 43/18/10
f 15/105/22 49/13/13 54/15/15
f 3/109/84 43/10/10 46/12/12
f 10/110/3 2/217/2 42/111/85
f 51/112/77 72/38/33 69/101/72
f 42/114/85 71/55/50 63/94/83
f 40/116/78 69/82/72 70/81/53
f 36/118/36 35/218/62 95/119/86
f 11/121/6 4/219/5 63/122/83
f 33/87/60 22/52/48 62/29/26
f 42/114/85 2/220/2 59/123/41
f 7/32/28 64/48/44 66/54/49
f 7/32/28 11/6/6 65/124/55
f 38/43/38 14/25/23 66/54/49
f 39/125/75 67/36/32 72/38/33
f 17/56/51 59/123/41 125/123/43
f 22/52/48 20/126/89 60/27/24
f 20/126/89 78/51/47 121/51/58
f 50/57/52 86/16/16 73/106/7
f 32/85/59 55/86/33 85/44/33
f 16/127/19 80/53/48 82/88/65
f 83/84/73 84/35/31 29/34/30
f 32/64/59 81/72/66 82/71/65
f 1/130/17 77/208/120 79/63/91
f 5/132/18 78/51/47 80/53/48
f 5/132/18 9/131/11 79/63/91
f 55/86/33 37/69/63 83/133/73
f 23/134/35 76/21/20 84/35/31
f 21/62/45 75/9/9 74/31/27
f 23/134/35 19/136/46 74/31/27
f 17/56/51 77/210/120 86/16/16
f 18/61/56 73/7/7 75/9/9
f 87/137/92 103/221/107 106/138/93
f 58/140/79 90/222/94 89/141/95
f 58/143/79 57/223/76 87/137/92
f 26/144/69 88/224/68 87/145/92
f 92/147/81 94/225/98 110/148/96
f 58/150/79 93/226/99 94/151/98
f 58/153/79 31/227/80 91/154/82
f 57/156/76 94/228/98 92/157/81
f 96/120/87 95/119/86 115/159/100
f 68/161/34 36/229/36 96/162/87
f 35/67/62 67/36/32 98/164/103
f 68/166/34 97/230/102 98/167/103
f 101/77/70 113/231/113 114/169/104
f 38/170/38 68/232/34 102/171/71
f 39/125/75 100/233/106 101/173/70
f 38/174/38 99/234/105 100/175/106
f 103/177/107 104/235/109 105/178/108
f 88/74/68 89/214/95 105/180/108
f 89/182/95 90/236/94 106/179/93
f 87/183/92 88/237/68 104/184/109
f 108/186/97 110/238/96 109/187/110
f 92/92/81 108/239/97 107/189/111
f 94/151/98 93/226/99 109/190/110
f 93/192/99 91/240/82 107/188/111
f 112/193/112 111/241/114 114/194/104
f 101/173/70 100/233/106 112/193/112
f 102/196/71 114/242/104 111/197/114
f 100/199/106 99/198/105 111/197/114
f 118/201/115 117/204/116 116/202/101
f 98/167/103 97/230/102 117/204/116
f 96/162/87 116/243/101 117/205/116
f 95/165/86 98/164/103 118/206/115
f 123/63/57 124/209/118 122/126/90
f 119/208/117 120/244/88 124/209/118
f 122/126/90 124/209/118 127/1/42
f 124/209/118 120/244/88 125/47/43
f 77/208/120 119/208/117 123/63/57
f 61/1/1 60/27/24 126/27/119
f 17/56/51 120/56/88 119/210/117
f 60/27/24 20/126/89 122/126/90
