# Blender 4.0.1
# www.blender.org
mtllib LeftHand.mtl
o hidariude
v 0.755138 2.716046 -0.399583
v 0.785437 2.673278 0.030358
v 0.800053 2.724313 -0.401926
v 0.819473 2.679542 0.028582
v 0.836509 2.275819 -0.392966
v 0.862910 2.238554 -0.018346
v 1.092080 2.280734 -0.030300
v 1.076558 2.320002 -0.405487
v 0.793874 2.498684 -0.423934
v 0.824173 2.455916 0.006006
v 1.011831 2.490455 -0.003783
v 0.992411 2.535226 -0.434291
v 0.901646 2.021192 -0.042698
v 1.092495 2.056319 -0.052653
v 1.076974 2.095586 -0.427840
v 0.875246 2.058457 -0.417317
v 0.772237 2.691910 -0.156952
v 0.928542 2.720679 -0.165106
v 1.201149 2.321871 -0.223988
v 0.849710 2.257186 -0.205656
v 1.120900 2.531592 -0.197471
v 0.810973 2.474548 -0.181304
v 0.888446 2.039825 -0.230007
v 1.201564 2.097456 -0.246341
v 0.945368 1.844139 -0.418911
v 0.908090 1.874160 -0.437965
v 0.924670 1.803671 -0.090625
v 0.891190 1.828225 -0.061156
v 1.141163 1.880176 -0.429124
v 1.145744 1.917714 -0.450380
v 1.154029 1.845886 -0.102589
v 1.161385 1.878139 -0.075232
v 0.955143 1.830342 -0.280213
v 0.921258 1.855704 -0.250635
v 0.952677 1.824422 -0.231294
v 1.234791 1.876347 -0.246010
v 1.270397 1.919422 -0.268902
v 1.233419 1.881561 -0.294729
v 1.161385 1.878139 -0.075232
v 1.154029 1.845886 -0.102589
v 0.924670 1.803671 -0.090625
v 0.891190 1.828225 -0.061156
v 0.802455 2.676410 0.029470
v 0.777595 2.720179 -0.400754
v 0.956534 2.297910 -0.399227
v 0.977495 2.259644 -0.024323
v 0.893142 2.516955 -0.429113
v 0.918002 2.473186 0.001112
v 0.997071 2.038755 -0.047675
v 0.976110 2.077022 -0.422579
v 0.850389 2.706295 -0.161029
v 1.039350 1.824779 -0.096607
v 1.026287 1.853182 -0.068194
v 1.043266 1.862158 -0.424018
v 1.026917 1.895937 -0.444173
v 1.094281 1.855951 -0.287471
v 1.093734 1.850384 -0.238652
v 1.039350 1.824779 -0.096607
v 1.026287 1.853182 -0.068194
v 0.779339 2.681885 -0.056171
v 0.856812 2.247161 -0.104875
v 0.818075 2.464523 -0.080523
v 0.895548 2.029799 -0.129227
v 0.869858 2.698546 -0.060893
v 1.142465 2.299737 -0.119776
v 1.062216 2.509459 -0.093258
v 1.142880 2.075322 -0.142128
v 1.191338 1.859958 -0.168843
v 1.211744 1.897210 -0.164699
v 0.937608 1.813257 -0.155608
v 0.905080 1.840919 -0.148687
v 0.824598 2.690216 -0.058532
v 1.064473 1.836607 -0.162226
v 0.867658 2.722401 -0.277322
v 1.142112 2.320985 -0.309991
v 1.060016 2.533314 -0.309687
v 1.142527 2.096570 -0.332344
v 0.764134 2.703347 -0.271922
v 0.843455 2.266016 -0.294412
v 0.802871 2.485985 -0.296274
v 0.882191 2.048654 -0.318764
v 0.950511 1.836880 -0.345935
v 0.915018 1.864449 -0.339401
v 1.189704 1.880905 -0.358412
v 1.211331 1.918613 -0.354895
v 1.070108 1.858892 -0.352173
v 0.815896 2.712874 -0.274622
v 1.023977 1.820715 -0.013997
v 0.920387 1.801648 -0.008594
v 0.944240 1.835807 0.026348
v 1.006994 1.846524 0.014434
v 1.137327 1.865249 -0.002027
v 1.143425 1.835472 -0.030086
v 1.049976 1.849080 0.002520
v 1.044488 1.817262 -0.024926
v 1.313836 1.870423 -0.214501
v 1.317500 1.929288 -0.219261
v 1.275448 1.905758 -0.145841
v 1.293576 1.869872 -0.164936
v 1.234215 1.884539 -0.026132
v 1.224229 1.843910 -0.048385
v 1.261538 1.857982 -0.114639
v 1.283224 1.893428 -0.092336
v 1.017763 1.767875 0.018112
v 0.954692 1.756266 0.021402
v 0.969215 1.777064 0.042676
v 1.007422 1.783589 0.035423
v 1.125629 1.807279 0.018520
v 1.128698 1.792288 0.004394
v 1.081652 1.799139 0.020809
v 1.078889 1.783121 0.006992
v 1.272539 1.850528 -0.034282
v 1.266354 1.825362 -0.048066
v 1.289464 1.834078 -0.089105
v 1.302896 1.856034 -0.075290
v 1.366271 1.884866 -0.183912
v 1.368431 1.919569 -0.186718
v 1.343640 1.905698 -0.143434
v 1.354327 1.884541 -0.154692
vn -0.9822 -0.1808 0.0512
vn -0.6274 0.4036 0.6660
vn -0.6450 -0.1977 0.7381
vn 0.0700 -0.0987 0.9927
vn 0.1464 0.6480 0.7474
vn 0.5010 0.2275 0.8350
vn 0.2610 0.9570 -0.1269
vn 0.4555 0.3144 -0.8329
vn 0.7531 0.5139 -0.4107
vn -0.1728 0.7618 -0.6244
vn -0.7036 -0.1391 -0.6968
vn -0.0480 -0.0220 -0.9986
vn -0.0700 0.0987 -0.9927
vn -0.6377 -0.4047 -0.6554
vn -0.0127 -0.2085 -0.9779
vn -0.8178 0.5641 0.1137
vn -0.1744 0.9786 0.1096
vn -0.7552 -0.1479 -0.6386
vn -0.7440 -0.0580 -0.6657
vn 0.8045 0.2133 -0.5544
vn 0.5043 0.1077 -0.8568
vn 0.3754 0.1727 -0.9106
vn 0.4840 -0.0081 0.8750
vn -0.6356 -0.1439 0.7585
vn -0.9897 -0.1385 0.0375
vn 0.8129 0.1956 -0.5486
vn 0.5643 0.0121 0.8255
vn 0.4762 -0.0807 -0.8756
vn 0.8243 -0.0135 -0.5659
vn 0.2346 -0.9663 -0.1055
vn 0.1744 -0.9786 -0.1096
vn 0.6571 0.5172 0.5484
vn 0.9818 0.1877 -0.0279
vn 0.9048 0.1093 -0.4115
vn 0.0521 0.6713 0.7394
vn 0.0211 0.7205 0.6931
vn 0.3777 -0.7369 -0.5606
vn 0.1236 -0.8271 -0.5483
vn 0.8573 0.1024 0.5045
vn 0.8569 0.5130 0.0502
vn 0.9822 0.1853 -0.0308
vn 0.8571 0.1038 0.5047
vn -0.8178 0.5641 0.1138
vn -0.9005 -0.3900 -0.1924
vn -0.6128 0.7413 0.2740
vn 0.7491 0.4213 0.5113
vn 0.4095 0.9052 0.1135
vn -0.2377 -0.9666 -0.0959
vn -0.8696 -0.4871 -0.0803
vn -0.2415 -0.9572 -0.1594
vn 0.2731 -0.9308 -0.2428
vn 0.5702 -0.7665 -0.2956
vn -0.1856 -0.8768 -0.4436
vn -0.8557 -0.5174 0.0090
vn -0.2425 -0.9669 -0.0791
vn -0.4609 0.8856 0.0580
vn -0.7246 -0.6495 0.2305
vn -0.3336 0.9385 -0.0893
vn 0.4479 -0.5693 -0.6894
vn 0.6464 0.7411 -0.1815
vn -0.2695 -0.9435 -0.1928
vn 0.5282 -0.7714 -0.3549
vn 0.6347 0.7723 -0.0279
vn -0.0300 -0.9819 0.1869
vn 0.9788 0.1948 -0.0635
vn 0.8421 0.1036 -0.5294
vn -0.8808 0.2060 -0.4264
vn -0.0444 0.9870 0.1542
vn 0.4096 0.9062 0.1053
vn 0.8127 -0.5827 -0.0083
vn 0.4934 0.6382 0.5909
vn 0.2749 0.8973 0.3454
vn 0.0854 0.7898 -0.6074
vn -0.0738 0.6221 0.7794
vn 0.3863 -0.7846 -0.4849
vn 0.3818 0.8136 -0.4386
vn 0.9414 -0.3362 0.0262
vn 0.5307 -0.0941 0.8423
vn 0.4266 0.7337 0.5289
vn -0.4466 0.5854 0.6766
vn -0.3081 -0.9476 0.0843
vn 0.5985 -0.8011 0.0069
vn -0.6843 -0.7257 0.0714
vn -0.6034 0.4808 0.6362
vn 0.8165 -0.5348 -0.2178
vn 0.7883 0.5910 -0.1714
vn -0.1985 0.3802 0.9034
vn 0.0216 -0.8709 0.4910
vn 0.9982 0.0352 0.0483
vn -0.1006 0.5037 0.8580
vn -0.3513 -0.7960 0.4929
vn 0.7128 -0.6990 -0.0574
vn -0.1748 -0.2698 0.9469
vn -0.4279 -0.9034 0.0272
vn -0.2831 -0.2565 0.9241
vn 0.5032 -0.1378 0.8531
vn 0.0849 -0.9275 0.3640
vn 0.4864 -0.7404 -0.4639
vn 0.4690 -0.0832 0.8793
vn 0.5599 -0.5635 0.6074
vn 0.2832 0.3492 0.8932
vn -0.7081 0.5176 -0.4802
vt 0.198541 0.927649
vt 0.199804 0.924405
vt 0.199804 0.927644
vt 0.626796 0.125234
vt 0.623617 0.126288
vt 0.626726 0.123843
vt 0.525653 0.393502
vt 0.529146 0.391922
vt 0.529450 0.393965
vt 0.467361 0.539642
vt 0.467707 0.542768
vt 0.466234 0.542756
vt 0.466199 0.549217
vt 0.467707 0.551877
vt 0.465944 0.551864
vt 0.198740 0.633333
vt 0.199074 0.631457
vt 0.199509 0.633332
vt 0.467683 0.546107
vt 0.467696 0.549229
vt 0.535615 0.393322
vt 0.532426 0.392406
vt 0.535317 0.391661
vt 0.630005 0.124759
vt 0.633172 0.123461
vt 0.633244 0.124876
vt 0.198541 0.930887
vt 0.199804 0.934121
vt 0.198541 0.934126
vt 0.465903 0.546093
vt 0.532723 0.394067
vt 0.629919 0.123060
vt 0.199804 0.930882
vt 0.538094 0.391459
vt 0.538392 0.393120
vt 0.626126 0.457331
vt 0.627699 0.456551
vt 0.627967 0.457731
vt 0.635736 0.121937
vt 0.632848 0.121623
vt 0.635560 0.120948
vt 0.635989 0.124789
vt 0.635886 0.122786
vt 0.628282 0.454959
vt 0.627404 0.453671
vt 0.628825 0.453979
vt 0.195777 0.930898
vt 0.197071 0.927654
vt 0.197071 0.930893
vt 0.629769 0.122211
vt 0.626402 0.122005
vt 0.629595 0.121222
vt 0.195777 0.934136
vt 0.197071 0.934131
vt 0.633023 0.122612
vt 0.199412 0.636503
vt 0.198740 0.635022
vt 0.199901 0.635022
vt 0.198499 0.936865
vt 0.199726 0.936857
vt 0.529434 0.396713
vt 0.525926 0.395342
vt 0.529723 0.395805
vt 0.195394 0.927661
vt 0.197071 0.924416
vt 0.298332 0.552619
vt 0.298634 0.552109
vt 0.299031 0.552614
vt 0.625652 0.456106
vt 0.625106 0.455629
vt 0.625774 0.455402
vt 0.296309 0.552627
vt 0.297339 0.552115
vt 0.297374 0.552623
vt 0.199706 0.798578
vt 0.199619 0.799513
vt 0.199139 0.798448
vt 0.675795 0.798516
vt 0.676039 0.799667
vt 0.675505 0.799946
vt 0.464348 0.552420
vt 0.465800 0.552432
vt 0.300062 0.552099
vt 0.300083 0.552600
vt 0.538925 0.393963
vt 0.538727 0.392856
vt 0.629812 0.456279
vt 0.627793 0.455841
vt 0.197071 0.936874
vt 0.195777 0.936881
vt 0.959451 0.513553
vt 0.467252 0.552444
vt 0.762230 0.662352
vt 0.761829 0.662035
vt 0.762230 0.661587
vt 0.200085 0.636503
vt 0.201062 0.635022
vt 0.630018 0.455336
vt 0.630246 0.454288
vt 0.633316 0.126291
vt 0.636092 0.126793
vt 0.629746 0.456996
vt 0.629808 0.458132
vt 0.630091 0.126459
vt 0.464761 0.542744
vt 0.464122 0.546078
vt 0.464703 0.549205
vt 0.199407 0.631457
vt 0.200278 0.633332
vt 0.464181 0.551851
vt 0.467028 0.539640
vt 0.626867 0.126626
vt 0.623630 0.126541
vt 0.628197 0.458745
vt 0.629861 0.459107
vt 0.199246 0.637774
vt 0.300986 0.552589
vt 0.301288 0.552091
vt 0.060171 0.764106
vt 0.060907 0.764861
vt 0.060049 0.764799
vt 0.529186 0.397492
vt 0.525638 0.396250
vt 0.198993 0.637774
vt 0.198740 0.636503
vt 0.626576 0.122994
vt 0.626533 0.458383
vt 0.198541 0.924410
vt 0.194339 0.934142
vt 0.194339 0.936887
vt 0.538507 0.391625
vt 0.193532 0.927668
vt 0.195394 0.924422
vt 0.194339 0.930903
vt 0.626547 0.454581
vt 0.535882 0.394818
vt 0.538661 0.394616
vt 0.532991 0.395563
vt 0.320194 0.741181
vt 0.320321 0.741696
vt 0.319633 0.741320
vt 0.357810 0.798448
vt 0.359119 0.799741
vt 0.357810 0.800454
vt 0.320087 0.740499
vt 0.557965 0.581895
vt 0.556777 0.580486
vt 0.557965 0.580192
vt 0.162498 0.740332
vt 0.161847 0.741405
vt 0.161847 0.740666
vt 0.879556 0.039447
vt 0.880381 0.039694
vt 0.879386 0.040017
vt 0.516912 0.800454
vt 0.517966 0.798881
vt 0.517966 0.800179
vt 0.881089 0.355425
vt 0.879620 0.356478
vt 0.879386 0.355425
vt 0.060667 0.765610
vt 0.060160 0.765574
vt 0.220024 0.765521
vt 0.218512 0.764554
vt 0.219788 0.764572
vt 0.624640 0.457157
vt 0.624466 0.456403
vt 0.799796 0.596320
vt 0.798671 0.595761
vt 0.800161 0.595821
vt 0.675887 0.800467
vt 0.880906 0.673296
vt 0.879704 0.671948
vt 0.880906 0.672011
vt 0.625004 0.457965
vt 0.959750 0.355915
vt 0.960431 0.356447
vt 0.959451 0.356447
vt 0.960607 0.039123
vt 0.960372 0.039829
vt 0.960354 0.039258
vt 0.199512 0.800490
vt 0.199139 0.800275
vt 0.959480 0.040059
vt 0.879386 0.831327
vt 0.880560 0.832132
vt 0.879624 0.832132
vt 0.603895 0.661910
vt 0.603667 0.662581
vt 0.603667 0.661928
vt 0.761602 0.661615
vt 0.881209 0.039729
vt 0.881106 0.040017
vt 0.602874 0.662885
vt 0.624851 0.458965
vt 0.624328 0.458446
vt 0.624599 0.458314
vt 0.959637 0.198410
vt 0.959939 0.197835
vt 0.960425 0.198410
vt 0.960635 0.197838
vt 0.960069 0.197480
vt 0.797775 0.595855
vt 0.797471 0.596322
vt 0.797575 0.595826
vt 0.797898 0.596186
vt 0.219339 0.763698
vt 0.623720 0.457151
vt 0.623617 0.456707
vt 0.525350 0.391459
vt 0.467694 0.539645
vt 0.198740 0.631457
vt 0.295901 0.552122
vt 0.200232 0.799865
vt 0.676218 0.798448
vt 0.761904 0.662874
vt 0.623643 0.126793
vt 0.060907 0.763688
vt 0.525390 0.397029
vt 0.198740 0.637774
vt 0.193532 0.924429
vt 0.320663 0.741611
vt 0.358995 0.798805
vt 0.320663 0.740332
vt 0.556777 0.582024
vt 0.162498 0.741800
vt 0.880585 0.039121
vt 0.516912 0.798448
vt 0.881089 0.356478
vt 0.218250 0.765521
vt 0.798878 0.596322
vt 0.676218 0.800295
vt 0.879386 0.673396
vt 0.625411 0.459017
vt 0.960640 0.355825
vt 0.960652 0.040059
vt 0.959451 0.039121
vt 0.880923 0.831327
vt 0.603895 0.662650
vt 0.761401 0.661841
vt 0.602874 0.661587
vt 0.624676 0.459107
vt 0.959451 0.197835
vt 0.218587 0.763687
s 1
usemtl マテリアル
f 62/1/1 10/3/3 2/2/2
f 48/4/4 11/6/6 4/5/5
f 74/7/7 76/9/9 12/8/8
f 44/10/10 47/12/12 9/11/11
f 50/13/13 55/15/15 26/14/14
f 78/16/16 87/18/17 44/17/10
f 50/13/13 16/20/19 5/19/18
f 77/21/20 15/23/22 8/22/21
f 46/24/4 49/26/4 14/25/23
f 61/27/1 63/29/25 13/28/24
f 47/12/12 45/30/12 5/19/18
f 76/9/9 75/31/26 8/22/21
f 46/24/4 7/32/27 11/6/6
f 62/1/1 61/27/1 6/33/3
f 77/21/20 85/35/29 30/34/28
f 68/36/30 73/38/31 57/37/31
f 69/39/32 37/41/34 24/40/33
f 53/42/35 39/43/36 14/25/23
f 86/44/31 54/46/38 29/45/37
f 79/47/1 20/49/1 22/48/1
f 65/50/39 19/52/41 21/51/40
f 81/53/1 23/54/1 20/49/1
f 65/50/39 67/55/42 24/40/33
f 72/56/17 51/58/17 17/57/43
f 71/59/44 42/60/45 13/28/24
f 66/61/46 21/63/40 18/62/47
f 80/64/1 22/48/1 17/65/43
f 33/66/48 35/68/50 34/67/49
f 36/69/51 38/71/52 37/70/34
f 25/72/53 82/74/55 83/73/54
f 28/75/56 27/77/58 89/76/57
f 69/78/32 103/80/60 102/79/59
f 29/81/37 54/82/38 55/15/15
f 35/68/50 70/84/61 71/83/44
f 38/85/52 84/86/62 85/35/29
f 33/87/48 56/88/31 57/37/31
f 81/53/1 83/90/54 34/89/49
f 31/91/63 40/91/64 39/91/36
f 58/91/65 52/91/66 40/91/64
f 28/91/56 42/91/45 41/91/67
f 59/91/68 53/91/35 42/91/45
f 32/91/69 39/91/36 53/91/35
f 27/91/58 41/91/67 52/91/66
f 56/88/31 38/71/52 36/69/51
f 25/92/53 26/14/14 55/15/15
f 32/93/69 92/95/71 93/94/70
f 64/96/72 18/97/47 51/58/17
f 82/98/55 25/99/53 54/46/38
f 13/100/24 42/101/45 53/42/35
f 73/38/31 70/103/61 35/102/50
f 6/104/3 46/24/4 48/4/4
f 12/105/8 8/106/21 45/30/12
f 6/104/3 13/100/24 49/26/4
f 15/107/22 50/13/13 45/30/12
f 87/18/17 74/109/7 3/108/73
f 15/107/22 30/110/28 55/15/15
f 3/111/73 12/105/8 47/12/12
f 10/112/3 48/4/4 43/113/74
f 52/114/66 41/115/67 70/103/61
f 4/116/5 64/96/72 72/56/17
f 41/117/67 42/118/45 71/83/44
f 37/119/34 97/121/76 96/120/75
f 11/122/6 66/61/46 64/123/72
f 34/89/49 71/59/44 63/29/25
f 43/124/74 72/56/17 60/125/16
f 7/32/27 14/25/23 67/55/42
f 7/32/27 65/50/39 66/126/46
f 39/43/36 69/39/32 67/55/42
f 40/127/64 52/114/66 73/38/31
f 22/48/1 20/49/1 61/27/1
f 20/49/1 23/54/1 63/29/25
f 22/48/1 62/1/1 60/128/16
f 51/58/17 18/97/47 74/109/7
f 33/87/48 82/98/55 86/44/31
f 16/129/19 26/130/14 83/90/54
f 84/86/62 29/131/37 30/34/28
f 33/66/48 34/67/49 83/73/54
f 9/132/11 80/64/1 78/133/16
f 5/134/18 16/129/19 81/53/1
f 5/134/18 79/47/1 80/64/1
f 56/88/31 86/44/31 84/135/62
f 24/136/33 37/137/34 85/35/29
f 21/63/40 19/138/41 75/31/26
f 24/136/33 77/21/20 75/31/26
f 17/57/43 51/58/17 87/18/17
f 18/62/47 21/63/40 76/9/9
f 88/139/77 91/141/79 107/140/78
f 59/142/68 28/144/56 90/143/80
f 59/145/68 91/141/79 88/139/77
f 27/146/58 58/148/65 88/147/77
f 93/149/70 109/151/82 111/150/81
f 59/152/68 58/154/65 95/153/83
f 59/155/68 94/157/84 92/156/71
f 58/158/65 31/160/63 93/159/70
f 97/121/76 117/162/86 116/161/85
f 69/163/32 98/165/87 97/164/76
f 36/69/51 96/167/75 99/166/88
f 69/168/32 68/170/30 99/169/88
f 102/79/59 103/80/60 115/171/89
f 39/172/36 100/174/90 103/173/60
f 40/127/64 68/36/30 102/175/59
f 39/176/36 40/178/64 101/177/91
f 104/179/92 107/181/78 106/180/93
f 89/76/57 105/183/94 106/182/93
f 90/184/80 106/180/93 107/181/78
f 88/185/77 104/187/92 105/186/94
f 109/188/82 108/190/96 110/189/95
f 93/94/70 92/95/71 108/191/96
f 95/153/83 111/193/81 110/192/95
f 94/194/84 110/189/95 108/190/96
f 113/195/97 114/197/98 115/196/89
f 102/175/59 114/197/98 113/195/97
f 103/198/60 100/200/90 112/199/99
f 101/201/91 113/202/97 112/199/99
f 119/203/100 116/205/85 117/204/86
f 99/169/88 119/203/100 118/206/101
f 97/164/76 98/165/87 118/207/101
f 96/167/75 116/209/85 119/208/100
f 62/1/1 2/2/2 60/128/16
f 48/4/4 4/5/5 43/113/74
f 74/7/7 12/8/8 3/210/73
f 44/10/10 9/11/11 1/211/102
f 50/13/13 26/14/14 16/20/19
f 78/16/16 44/17/10 1/212/102
f 50/13/13 5/19/18 45/30/12
f 77/21/20 8/22/21 75/31/26
f 46/24/4 14/25/23 7/32/27
f 61/27/1 13/28/24 6/33/3
f 47/12/12 5/19/18 9/11/11
f 76/9/9 8/22/21 12/8/8
f 46/24/4 11/6/6 48/4/4
f 62/1/1 6/33/3 10/3/3
f 77/21/20 30/34/28 15/23/22
f 68/36/30 57/37/31 36/69/51
f 69/39/32 24/40/33 67/55/42
f 53/42/35 14/25/23 49/26/4
f 86/44/31 29/45/37 84/135/62
f 79/47/1 22/48/1 80/64/1
f 65/50/39 21/51/40 66/126/46
f 81/53/1 20/49/1 79/47/1
f 65/50/39 24/40/33 19/52/41
f 72/56/17 17/57/43 60/125/16
f 71/59/44 13/28/24 63/29/25
f 66/61/46 18/62/47 64/123/72
f 80/64/1 17/65/43 78/133/16
f 25/72/53 83/73/54 26/213/14
f 28/75/56 89/76/57 90/214/80
f 69/78/32 102/79/59 68/215/30
f 29/81/37 55/15/15 30/110/28
f 35/68/50 71/83/44 34/67/49
f 38/85/52 85/35/29 37/137/34
f 33/87/48 57/37/31 35/102/50
f 81/53/1 34/89/49 23/54/1
f 31/91/63 39/91/36 32/91/69
f 58/91/65 40/91/64 31/91/63
f 28/91/56 41/91/67 27/91/58
f 59/91/68 42/91/45 28/91/56
f 32/91/69 53/91/35 59/91/68
f 27/91/58 52/91/66 58/91/65
f 56/88/31 36/69/51 57/37/31
f 25/92/53 55/15/15 54/82/38
f 32/93/69 93/94/70 31/216/63
f 64/96/72 51/58/17 72/56/17
f 82/98/55 54/46/38 86/44/31
f 13/100/24 53/42/35 49/26/4
f 73/38/31 35/102/50 57/37/31
f 6/104/3 48/4/4 10/112/3
f 12/105/8 45/30/12 47/12/12
f 6/104/3 49/26/4 46/24/4
f 15/107/22 45/30/12 8/106/21
f 87/18/17 3/108/73 44/17/10
f 15/107/22 55/15/15 50/13/13
f 3/111/73 47/12/12 44/10/10
f 10/112/3 43/113/74 2/217/2
f 52/114/66 70/103/61 73/38/31
f 4/116/5 72/56/17 43/124/74
f 41/117/67 71/83/44 70/84/61
f 37/119/34 96/120/75 36/218/51
f 11/122/6 64/123/72 4/219/5
f 34/89/49 63/29/25 23/54/1
f 43/124/74 60/125/16 2/220/2
f 7/32/27 67/55/42 65/50/39
f 7/32/27 66/126/46 11/6/6
f 39/43/36 67/55/42 14/25/23
f 40/127/64 73/38/31 68/36/30
f 22/48/1 61/27/1 62/1/1
f 20/49/1 63/29/25 61/27/1
f 22/48/1 60/128/16 17/65/43
f 51/58/17 74/109/7 87/18/17
f 33/87/48 86/44/31 56/88/31
f 16/129/19 83/90/54 81/53/1
f 84/86/62 30/34/28 85/35/29
f 33/66/48 83/73/54 82/74/55
f 9/132/11 78/133/16 1/221/102
f 5/134/18 81/53/1 79/47/1
f 5/134/18 80/64/1 9/132/11
f 56/88/31 84/135/62 38/71/52
f 24/136/33 85/35/29 77/21/20
f 21/63/40 75/31/26 76/9/9
f 24/136/33 75/31/26 19/138/41
f 17/57/43 87/18/17 78/16/16
f 18/62/47 76/9/9 74/7/7
f 88/139/77 107/140/78 104/222/92
f 59/142/68 90/143/80 91/223/79
f 59/145/68 88/139/77 58/224/65
f 27/146/58 88/147/77 89/225/57
f 93/149/70 111/150/81 95/226/83
f 59/152/68 95/153/83 94/227/84
f 59/155/68 92/156/71 32/228/69
f 58/158/65 93/159/70 95/229/83
f 97/121/76 116/161/85 96/120/75
f 69/163/32 97/164/76 37/230/34
f 36/69/51 99/166/88 68/36/30
f 69/168/32 99/169/88 98/231/87
f 102/79/59 115/171/89 114/232/98
f 39/172/36 103/173/60 69/233/32
f 40/127/64 102/175/59 101/234/91
f 39/176/36 101/177/91 100/235/90
f 104/179/92 106/180/93 105/236/94
f 89/76/57 106/182/93 90/214/80
f 90/184/80 107/181/78 91/237/79
f 88/185/77 105/186/94 89/238/57
f 109/188/82 110/189/95 111/239/81
f 93/94/70 108/191/96 109/240/82
f 95/153/83 110/192/95 94/227/84
f 94/194/84 108/190/96 92/241/71
f 113/195/97 115/196/89 112/242/99
f 102/175/59 113/195/97 101/234/91
f 103/198/60 112/199/99 115/243/89
f 101/201/91 112/199/99 100/200/90
f 119/203/100 117/204/86 118/206/101
f 99/169/88 118/206/101 98/231/87
f 97/164/76 118/207/101 117/244/86
f 96/167/75 119/208/100 99/166/88
