# Blender 3.3.0
# www.blender.org
mtllib stage3.mtl
o 0
v 6.000000 -2.500000 -7.500000
v 3.500000 5.000000 2.500000
v 6.000000 2.500000 -7.500000
v 3.500000 0.000000 12.500000
v 6.000000 -2.500000 7.500000
v 3.500000 5.000000 12.500000
v 6.000000 2.500000 7.500000
v -6.000000 -2.500000 -7.500000
v -3.500000 5.000000 2.500000
v -6.000000 2.500000 -7.500000
v -3.500000 0.000000 12.500000
v -6.000000 -2.500000 7.500000
v -3.500000 5.000000 12.500000
v -6.000000 2.500000 7.500000
v 3.500000 2.500000 7.500000
v 3.500000 2.500000 2.500000
v 3.500000 0.000000 7.500000
v -3.500000 2.500000 7.500000
v -3.500000 2.500000 2.500000
v -3.500000 0.000000 7.500000
vn -0.0000 1.0000 -0.0000
vn -0.0000 -0.0000 1.0000
vn -0.0000 -0.0000 -1.0000
vn -0.0000 -1.0000 -0.0000
vn 1.0000 -0.0000 -0.0000
vn -1.0000 -0.0000 -0.0000
vt 0.375000 0.000000
vt 0.375000 1.000000
vt 0.125000 0.750000
vt 0.875000 0.750000
vt 0.625000 1.000000
vt 0.600316 0.439932
vt 0.625000 0.000000
vt 0.625000 1.000000
vt 0.875000 0.750000
vt 0.625000 0.750000
vt 0.298771 0.553313
vt 0.375404 0.064932
vt 0.125000 0.500000
vt 0.375000 0.250000
vt 0.875000 0.500000
vt 0.875000 0.750000
vt 0.600316 0.064932
vt 0.625000 0.250000
vt 0.875000 0.500000
vt 0.375000 0.750000
vt 0.625000 0.750000
vt 0.626550 0.750000
vt 0.625000 0.750000
vt 0.625000 0.500000
vt 0.298771 0.714412
vt 0.381790 0.334025
vt 0.375000 0.500000
vt 0.625000 0.500000
vt 0.875000 0.500000
vt 0.625000 0.333897
vt 0.625000 0.500000
vt 0.474241 0.189932
vt 0.625000 0.302083
vt 0.822917 0.500000
vt 0.500000 1.000000
vt 0.475316 0.439932
vt 0.822917 0.583333
vt 0.218222 0.553313
vt 0.375404 0.189932
vt 0.500000 0.302083
vt 0.625000 0.447917
vt 0.677083 0.500000
vt 0.448786 0.513952
vt 0.500000 0.750000
vt 0.677083 0.583333
vt 0.445267 0.749057
vt 0.218222 0.714412
vt 0.500000 0.447917
vt 0.388048 0.513282
s 0
usemtl マテリアル
f 13/28/1 2/4/1 9/21/1
f 4/10/2 13/29/2 11/24/2
f 9/21/3 16/35/3 19/44/3
f 4/11/4 20/47/4 17/38/4
f 6/17/5 17/39/5 15/32/5
f 3/7/5 5/14/5 1/1/5
f 12/27/2 5/14/2 20/48/2
f 14/31/6 8/20/6 12/27/6
f 10/23/3 1/2/3 8/20/3
f 12/27/4 1/3/4 5/13/4
f 16/37/1 3/9/1 10/23/1
f 18/43/6 11/26/6 13/30/6
f 13/28/1 6/15/1 2/4/1
f 4/10/2 6/16/2 13/29/2
f 9/21/3 2/5/3 16/35/3
f 4/11/4 11/25/4 20/47/4
f 15/32/5 16/36/5 2/6/5
f 6/17/5 4/12/5 17/39/5
f 15/32/5 2/6/5 6/17/5
f 3/7/5 7/18/5 5/14/5
f 18/41/2 14/31/2 12/27/2
f 5/14/2 7/18/2 15/33/2
f 5/14/2 15/33/2 17/40/2
f 20/48/2 18/41/2 12/27/2
f 5/14/2 17/40/2 20/48/2
f 14/31/6 10/23/6 8/20/6
f 10/23/3 3/8/3 1/2/3
f 12/27/4 8/20/4 1/3/4
f 16/37/1 15/34/1 7/19/1
f 10/23/1 14/31/1 18/42/1
f 10/23/1 18/42/1 19/45/1
f 16/37/1 7/19/1 3/9/1
f 10/23/1 19/45/1 16/37/1
f 9/22/6 19/46/6 18/43/6
f 18/43/6 20/49/6 11/26/6
f 13/30/6 9/22/6 18/43/6
o 1
v 5.000000 -3.500000 15.200001
v 5.000000 1.500000 15.200001
v 5.000000 -3.500000 27.200001
v 5.000000 1.500000 27.200001
v -5.000000 -3.500000 15.200001
v -5.000000 1.500000 15.200001
v -5.000000 -3.500000 27.200001
v -5.000000 1.500000 27.200001
vn 1.0000 -0.0000 -0.0000
vn -0.0000 -0.0000 1.0000
vn -1.0000 -0.0000 -0.0000
vn -0.0000 -0.0000 -1.0000
vn -0.0000 -1.0000 -0.0000
vn -0.0000 1.0000 -0.0000
vt 0.375000 0.000000
vt 0.375000 1.000000
vt 0.125000 0.750000
vt 0.625000 0.000000
vt 0.625000 1.000000
vt 0.875000 0.750000
vt 0.125000 0.500000
vt 0.375000 0.250000
vt 0.625000 0.250000
vt 0.875000 0.500000
vt 0.375000 0.750000
vt 0.625000 0.750000
vt 0.375000 0.500000
vt 0.625000 0.500000
s 0
usemtl マテリアル
f 22/53/7 23/57/7 21/50/7
f 24/58/8 27/62/8 23/57/8
f 28/63/9 25/60/9 27/62/9
f 26/61/10 21/51/10 25/60/10
f 27/62/11 21/52/11 23/56/11
f 24/59/12 26/61/12 28/63/12
f 22/53/7 24/58/7 23/57/7
f 24/58/8 28/63/8 27/62/8
f 28/63/9 26/61/9 25/60/9
f 26/61/10 22/54/10 21/51/10
f 27/62/11 25/60/11 21/52/11
f 24/59/12 22/55/12 26/61/12
o 2
v 6.199267 -7.496907 30.119947
v 10.098152 -2.498026 35.200291
v 5.998168 9.500366 40.122555
v 6.198935 -2.496908 30.121304
v 5.798800 0.497642 50.118114
v 10.097819 2.501974 35.201645
v 5.798202 9.497642 50.120556
v 5.999300 -7.499632 40.117947
v 9.898185 -2.500751 45.198292
v -5.999433 9.499633 39.882595
v 5.998967 -2.499633 40.119305
v -6.198801 0.496909 49.878155
v 9.897852 2.499249 45.199646
v -6.199400 9.496908 49.880592
v -5.798334 -7.497641 29.879986
v -9.897852 -2.499249 34.800358
v -5.798667 -2.497642 29.881342
v -9.898185 2.500751 34.801712
v -5.998302 -7.500365 39.877987
v -10.097819 -2.501973 44.798355
v -5.998634 -2.500366 39.879345
v -10.098152 2.498027 44.799713
v 6.098951 -2.498271 35.120304
v -5.898651 -2.499004 34.880344
v 5.898784 0.499004 45.119118
v 5.898651 2.499005 45.119659
v -6.098950 2.498271 44.879700
v -6.098817 0.498271 44.879158
v 5.998634 2.500367 40.120655
v -5.998967 2.499634 39.880695
vn 0.9998 0.0001 0.0200
vn -0.0200 -0.0003 0.9998
vn -0.9998 -0.0001 -0.0200
vn 0.0200 0.0003 -0.9998
vn 0.0001 -1.0000 -0.0003
vn -0.0001 1.0000 0.0003
vn -0.3845 -0.9231 -0.0079
vt 0.375000 0.000000
vt 0.375000 1.000000
vt 0.125000 0.750000
vt 0.375000 0.000000
vt 0.375000 1.000000
vt 0.125000 0.750000
vt 0.625000 0.000000
vt 0.625000 1.000000
vt 0.875000 0.750000
vt 0.625000 0.000000
vt 0.625000 1.000000
vt 0.875000 0.750000
vt 0.375000 0.250000
vt 0.125000 0.500000
vt 0.625000 0.000000
vt 0.625000 1.000000
vt 0.875000 0.750000
vt 0.625000 0.250000
vt 0.875000 0.500000
vt 0.125000 0.500000
vt 0.375000 0.250000
vt 0.375000 0.250000
vt 0.125000 0.500000
vt 0.625000 0.750000
vt 0.625000 0.250000
vt 0.175000 0.625000
vt 0.375000 0.500000
vt 0.625000 0.250000
vt 0.875000 0.500000
vt 0.625000 0.500000
vt 0.375000 0.750000
vt 0.375000 0.750000
vt 0.625000 0.750000
vt 0.625000 0.750000
vt 0.375000 0.500000
vt 0.375000 0.500000
vt 0.625000 0.500000
vt 0.325000 0.625000
vt 0.625000 0.500000
vt 0.875000 0.625000
vt 0.625000 0.125000
vt 0.375000 0.950000
vt 0.175000 0.750000
vt 0.625000 0.625000
vt 0.375000 0.800000
vt 0.325000 0.750000
vt 0.125000 0.625000
vt 0.525000 0.300000
vt 0.375000 0.125000
vt 0.625000 0.300000
vt 0.825000 0.500000
vt 0.430556 0.125000
vt 0.625000 0.450000
vt 0.675000 0.500000
vt 0.430556 0.625000
vt 0.525000 0.450000
vt 0.375000 0.625000
vt 0.825000 0.625000
vt 0.430556 0.000000
vt 0.430556 1.000000
vt 0.675000 0.625000
vt 0.430556 0.750000
s 0
usemtl マテリアル
f 39/88/13 29/64/13 32/73/13
f 39/88/14 47/98/14 36/84/14
f 43/94/15 49/100/15 52/107/15
f 45/96/16 29/65/16 43/94/16
f 47/98/17 29/66/17 36/83/17
f 32/75/18 52/107/18 51/103/18
f 34/78/13 37/85/13 30/67/13
f 48/99/14 37/85/14 56/119/14
f 50/102/15 44/95/15 48/99/15
f 44/95/16 34/79/16 51/105/16
f 39/89/17 37/86/17 48/99/17
f 34/80/18 46/97/18 57/121/18
f 31/70/13 33/76/13 54/115/13
f 35/81/14 40/90/14 33/76/14
f 40/90/15 38/87/15 55/118/15
f 38/87/16 57/123/16 58/125/16
f 33/77/17 56/120/17 53/110/17
f 35/82/18 38/87/18 42/93/18
f 32/73/18 51/104/18 39/88/18
f 39/88/13 36/84/13 29/64/13
f 39/88/14 49/100/14 47/98/14
f 52/107/15 45/96/15 43/94/15
f 43/94/15 47/98/15 49/100/15
f 45/96/16 32/74/16 29/65/16
f 47/98/17 43/94/17 29/66/17
f 32/75/18 45/96/18 52/107/18
f 34/78/13 41/91/13 37/85/13
f 56/119/14 55/116/14 50/102/14
f 37/85/14 41/91/14 54/113/14
f 37/85/14 54/113/14 53/111/14
f 56/119/14 50/102/14 48/99/14
f 37/85/14 53/111/14 56/119/14
f 50/102/15 46/97/15 44/95/15
f 51/105/19 52/108/19 44/95/19
f 44/95/16 46/97/16 34/79/16
f 34/79/16 30/68/16 51/105/16
f 39/89/17 51/106/17 30/69/17
f 48/99/17 44/95/17 52/109/17
f 48/99/17 52/109/17 49/101/17
f 39/89/17 30/69/17 37/86/17
f 48/99/17 49/101/17 39/89/17
f 54/114/18 41/92/18 34/80/18
f 46/97/18 50/102/18 55/117/18
f 46/97/18 55/117/18 58/124/18
f 57/121/18 54/114/18 34/80/18
f 46/97/18 58/124/18 57/121/18
f 54/115/13 57/122/13 31/70/13
f 31/70/13 35/81/13 33/76/13
f 33/76/13 53/112/13 54/115/13
f 35/81/14 42/93/14 40/90/14
f 55/118/15 56/120/15 40/90/15
f 40/90/15 42/93/15 38/87/15
f 38/87/15 58/125/15 55/118/15
f 38/87/16 31/71/16 57/123/16
f 33/77/17 40/90/17 56/120/17
f 35/82/18 31/72/18 38/87/18
