# Blender 3.3.0
# www.blender.org
mtllib stageSelect.mtl
o 0
v 15.000000 0.000000 -5.000000
v 15.000000 5.000000 -5.000000
v 15.000000 0.000000 15.000000
v 15.000000 5.000000 15.000000
v -15.000000 0.000000 -5.000000
v -15.000000 5.000000 -5.000000
v -15.000000 0.000000 15.000000
v -15.000000 5.000000 15.000000
v 5.000000 0.050001 10.000000
v 5.000000 12.550001 10.000000
v 5.000000 0.050001 20.000000
v 5.000000 12.550001 20.000000
v -5.000000 0.050001 10.000000
v -5.000000 12.550001 10.000000
v -5.000000 0.050001 20.000000
v -5.000000 12.550001 20.000000
v -5.000000 5.000000 8.000000
v -5.000000 20.000000 8.000000
v -5.000000 5.000000 15.000000
v -5.000000 20.000000 15.000000
v -14.999999 5.000000 8.000000
v -14.999999 20.000000 8.000000
v -14.999999 5.000000 15.000000
v -14.999999 20.000000 15.000000
v 22.399998 15.000000 6.500000
v 22.399998 25.000000 6.500000
v 22.399998 15.000000 13.500000
v 22.399998 25.000000 13.500000
v 13.599999 15.000000 6.500000
v 13.599999 25.000000 6.500000
v 13.599999 15.000000 13.500000
v 13.599999 25.000000 13.500000
v 13.749999 33.000000 3.500000
v 13.749999 37.000000 3.500000
v 13.749999 33.000000 18.500000
v 13.749999 37.000000 18.500000
v -3.750000 33.000000 3.500000
v -3.750000 37.000000 3.500000
v -3.750000 33.000000 18.500000
v -3.750000 37.000000 18.500000
v 14.999999 5.000000 5.000000
v 14.999999 7.500000 5.000000
v 14.999999 5.000000 15.000000
v 14.999999 7.500000 15.000000
v 5.000000 5.000000 5.000000
v 5.000000 7.500000 5.000000
v 5.000000 5.000000 15.000000
v 5.000000 7.500000 15.000000
vn 1.0000 -0.0000 -0.0000
vn -0.0000 -0.0000 1.0000
vn -1.0000 -0.0000 -0.0000
vn -0.0000 -0.0000 -1.0000
vn -0.0000 -1.0000 -0.0000
vn -0.0000 1.0000 -0.0000
vt 0.377301 0.503903
vt 0.380384 0.998440
vt 0.139468 0.735325
vt 0.622895 0.503903
vt 0.621705 0.998440
vt 0.863602 0.743016
vt 0.376001 0.749605
vt 0.139468 0.519745
vt 0.377301 0.749496
vt 0.622895 0.749496
vt 0.626252 0.749605
vt 0.863602 0.512724
vt 0.380384 0.757120
vt 0.375355 0.999393
vt 0.355048 0.735325
vt 0.627085 0.999393
vt 0.621705 0.757120
vt 0.633311 0.743016
vt 0.375355 0.753523
vt 0.376001 0.999857
vt 0.355048 0.519745
vt 0.633311 0.512724
vt 0.626252 0.999857
vt 0.627085 0.753523
vt 0.375831 0.215903
vt 0.375480 0.949461
vt 0.155241 0.729402
vt 0.624909 0.215903
vt 0.624654 0.949673
vt 0.875764 0.751149
vt 0.404596 0.223296
vt 0.155241 0.525726
vt 0.377784 0.451691
vt 0.624909 0.451691
vt 0.616586 0.223296
vt 0.876686 0.500293
vt 0.375509 0.706748
vt 0.375137 0.661477
vt 0.346942 0.729402
vt 0.625346 0.661477
vt 0.624682 0.706960
vt 0.628346 0.751149
vt 0.375137 0.409987
vt 0.404596 0.444298
vt 0.346942 0.525726
vt 0.628346 0.499678
vt 0.616586 0.444298
vt 0.625346 0.409987
vt 0.382293 0.125833
vt 0.374590 0.999300
vt 0.057235 0.928981
vt 0.620526 0.125833
vt 0.626572 0.999209
vt 0.867940 0.748742
vt 0.376173 0.235623
vt 0.057235 0.915632
vt 0.382293 0.356962
vt 0.620526 0.356962
vt 0.626547 0.235623
vt 0.867940 0.503438
vt 0.374489 0.752325
vt 0.373454 0.750845
vt 0.069948 0.928981
vt 0.627402 0.750734
vt 0.626472 0.752233
vt 0.634317 0.748742
vt 0.373344 0.498613
vt 0.376172 0.497901
vt 0.069948 0.915632
vt 0.634317 0.503438
vt 0.626547 0.497901
vt 0.627292 0.498502
vt 0.133977 0.510138
vt 0.377922 0.749250
vt 0.412337 0.824515
vt 0.357365 0.510138
vt 0.377922 0.993515
vt 0.420301 0.509118
vt 0.377519 0.912858
vt 0.412337 0.583478
vt 0.133977 0.749429
vt 0.357365 0.749429
vt 0.377519 0.686553
vt 0.420301 0.745844
vt 0.625664 0.749250
vt 0.630395 0.743903
vt 0.614348 0.824515
vt 0.867059 0.745575
vt 0.625664 0.993515
vt 0.618700 0.509118
vt 0.632316 0.508133
vt 0.625113 0.912858
vt 0.614348 0.583478
vt 0.618700 0.745844
vt 0.625113 0.686553
vt 0.868979 0.509805
vt 0.608826 0.266742
vt 0.612651 0.529706
vt 0.643432 0.741947
vt 0.366990 0.245584
vt 0.401658 0.529706
vt 0.377929 0.743755
vt 0.624443 0.388438
vt 0.643432 0.509009
vt 0.628662 0.040023
vt 0.386826 0.018865
vt 0.379923 0.388438
vt 0.377929 0.507163
vt 0.612651 0.727701
vt 0.621024 0.398299
vt 0.871935 0.741947
vt 0.380173 0.398299
vt 0.401658 0.727701
vt 0.134884 0.743755
vt 0.621024 0.624095
vt 0.624443 0.140100
vt 0.871935 0.509009
vt 0.134884 0.507163
vt 0.379923 0.140100
vt 0.380173 0.624095
vt 0.611190 0.642425
vt 0.374226 0.999763
vt 0.057235 0.534081
vt 0.611190 0.661495
vt 0.626588 0.999763
vt 0.805606 0.728577
vt 0.612107 0.641659
vt 0.057235 0.515011
vt 0.592121 0.642425
vt 0.592121 0.661495
vt 0.612107 0.660729
vt 0.805606 0.531938
vt 0.374048 0.752862
vt 0.410322 0.731903
vt 0.069948 0.534081
vt 0.626015 0.731903
vt 0.626765 0.752862
vt 0.674514 0.728577
vt 0.410322 0.516210
vt 0.599394 0.641659
vt 0.069948 0.515011
vt 0.674514 0.531938
vt 0.599394 0.660729
vt 0.626015 0.516210
s 0
usemtl マテリアル
f 2/4/1 3/9/1 1/1/1
f 4/11/2 7/20/2 3/7/2
f 8/24/3 5/14/3 7/19/3
f 6/17/4 1/2/4 5/13/4
f 7/21/5 1/3/5 3/8/5
f 4/12/6 6/18/6 8/22/6
f 10/28/1 11/33/1 9/25/1
f 12/35/2 15/44/2 11/31/2
f 16/48/3 13/38/3 15/43/3
f 14/41/4 9/26/4 13/37/4
f 15/45/5 9/27/5 11/32/5
f 12/36/6 14/42/6 16/46/6
f 18/52/1 19/57/1 17/49/1
f 20/59/2 23/68/2 19/55/2
f 24/72/3 21/62/3 23/67/3
f 22/65/4 17/50/4 21/61/4
f 23/69/5 17/51/5 19/56/5
f 20/60/6 22/66/6 24/70/6
f 26/76/1 27/81/1 25/73/1
f 28/83/2 31/92/2 27/79/2
f 32/96/3 29/86/3 31/91/3
f 30/89/4 25/74/4 29/85/4
f 31/93/5 25/75/5 27/80/5
f 28/84/6 30/90/6 32/94/6
f 34/100/1 35/105/1 33/97/1
f 36/107/2 39/116/2 35/103/2
f 40/120/3 37/110/3 39/115/3
f 38/113/4 33/98/4 37/109/4
f 39/117/5 33/99/5 35/104/5
f 36/108/6 38/114/6 40/118/6
f 42/124/1 43/129/1 41/121/1
f 44/131/2 47/140/2 43/127/2
f 48/144/3 45/134/3 47/139/3
f 46/137/4 41/122/4 45/133/4
f 47/141/5 41/123/5 43/128/5
f 44/132/6 46/138/6 48/142/6
f 2/4/1 4/10/1 3/9/1
f 4/11/2 8/23/2 7/20/2
f 8/24/3 6/16/3 5/14/3
f 6/17/4 2/5/4 1/2/4
f 7/21/5 5/15/5 1/3/5
f 4/12/6 2/6/6 6/18/6
f 10/28/1 12/34/1 11/33/1
f 12/35/2 16/47/2 15/44/2
f 16/48/3 14/40/3 13/38/3
f 14/41/4 10/29/4 9/26/4
f 15/45/5 13/39/5 9/27/5
f 12/36/6 10/30/6 14/42/6
f 18/52/1 20/58/1 19/57/1
f 20/59/2 24/71/2 23/68/2
f 24/72/3 22/64/3 21/62/3
f 22/65/4 18/53/4 17/50/4
f 23/69/5 21/63/5 17/51/5
f 20/60/6 18/54/6 22/66/6
f 26/76/1 28/82/1 27/81/1
f 28/83/2 32/95/2 31/92/2
f 32/96/3 30/88/3 29/86/3
f 30/89/4 26/77/4 25/74/4
f 31/93/5 29/87/5 25/75/5
f 28/84/6 26/78/6 30/90/6
f 34/100/1 36/106/1 35/105/1
f 36/107/2 40/119/2 39/116/2
f 40/120/3 38/112/3 37/110/3
f 38/113/4 34/101/4 33/98/4
f 39/117/5 37/111/5 33/99/5
f 36/108/6 34/102/6 38/114/6
f 42/124/1 44/130/1 43/129/1
f 44/131/2 48/143/2 47/140/2
f 48/144/3 46/136/3 45/134/3
f 46/137/4 42/125/4 41/122/4
f 47/141/5 45/135/5 41/123/5
f 44/132/6 42/126/6 46/138/6
