# Blender 3.3.0
# www.blender.org
mtllib stage5.mtl
o 0
v 7.500000 -7.500000 -7.500000
v 7.500000 -2.500000 -7.500000
v 7.500000 -7.500000 7.500000
v 7.500000 -2.500000 7.500000
v -7.500000 -7.500000 -7.500000
v -7.500000 -2.500000 -7.500000
v -7.500000 -7.500000 7.500000
v -7.500000 -2.500000 7.500000
vn 1.0000 -0.0000 -0.0000
vn -0.0000 -0.0000 1.0000
vn -1.0000 -0.0000 -0.0000
vn -0.0000 -0.0000 -1.0000
vn -0.0000 -1.0000 -0.0000
vn -0.0000 1.0000 -0.0000
vt 0.375000 0.000000
vt 0.375000 1.000000
vt 0.125000 0.750000
vt 0.625000 0.000000
vt 0.625000 1.000000
vt 0.875000 0.750000
vt 0.125000 0.500000
vt 0.375000 0.250000
vt 0.625000 0.250000
vt 0.875000 0.500000
vt 0.375000 0.750000
vt 0.625000 0.750000
vt 0.375000 0.500000
vt 0.625000 0.500000
s 0
usemtl マテリアル
f 2/4/1 3/8/1 1/1/1
f 4/9/2 7/13/2 3/8/2
f 8/14/3 5/11/3 7/13/3
f 6/12/4 1/2/4 5/11/4
f 7/13/5 1/3/5 3/7/5
f 4/10/6 6/12/6 8/14/6
f 2/4/1 4/9/1 3/8/1
f 4/9/2 8/14/2 7/13/2
f 8/14/3 6/12/3 5/11/3
f 6/12/4 2/5/4 1/2/4
f 7/13/5 5/11/5 1/3/5
f 4/10/6 2/6/6 6/12/6
o 1
v 2.500000 -2.500000 -2.500000
v 2.500000 2.500000 -2.500000
v 2.500000 -2.500000 2.500000
v 2.500000 2.500000 2.500000
v -2.500000 -2.500000 -2.500000
v -2.500000 2.500000 -2.500000
v -2.500000 -2.500000 2.500000
v -2.500000 2.500000 2.500000
vn 1.0000 -0.0000 -0.0000
vn -0.0000 -0.0000 1.0000
vn -1.0000 -0.0000 -0.0000
vn -0.0000 -0.0000 -1.0000
vn -0.0000 -1.0000 -0.0000
vn -0.0000 1.0000 -0.0000
vt 0.625000 0.500000
vt 0.625000 0.750000
vt 0.125000 0.750000
vt 0.875000 0.500000
vt 0.875000 0.750000
vt 0.625000 0.500000
vt 0.125000 0.500000
vt 0.625000 0.750000
vt 0.875000 0.750000
vt 0.875000 0.500000
vt 0.625000 0.500000
vt 0.625000 0.750000
vt 0.375000 0.750000
vt 0.875000 0.750000
vt 0.875000 0.500000
vt 0.625000 0.750000
vt 0.625000 0.500000
vt 0.625000 0.750000
vt 0.375000 0.500000
vt 0.625000 0.500000
vt 0.875000 0.750000
vt 0.875000 0.500000
s 0
usemtl マテリアル
f 10/18/7 11/22/7 9/15/7
f 12/24/8 15/32/8 11/20/8
f 16/36/9 13/26/9 15/31/9
f 14/29/10 9/16/10 13/25/10
f 15/33/11 9/17/11 11/21/11
f 12/24/12 14/30/12 16/34/12
f 10/18/7 12/23/7 11/22/7
f 12/24/8 16/35/8 15/32/8
f 16/36/9 14/28/9 13/26/9
f 14/29/10 10/19/10 9/16/10
f 15/33/11 13/27/11 9/17/11
f 12/24/12 10/19/12 14/30/12
o 2
v 7.071068 11.500000 9.999998
v 7.071068 16.500000 9.999998
v 0.000002 11.500000 17.071068
v 0.000002 16.500000 17.071068
v -0.000002 11.500000 2.928932
v -0.000002 16.500000 2.928932
v -7.071068 11.500000 10.000002
v -7.071068 16.500000 10.000002
vn 0.7071 -0.0000 0.7071
vn -0.7071 -0.0000 0.7071
vn -0.7071 -0.0000 -0.7071
vn 0.7071 -0.0000 -0.7071
vn -0.0000 -1.0000 -0.0000
vn -0.0000 1.0000 -0.0000
vt 0.625000 0.250000
vt 0.625000 0.750000
vt 0.375000 0.250000
vt 0.375000 0.750000
vt 0.625000 0.500000
vt 0.625000 0.000000
vt 0.375000 0.000000
vt 0.375000 0.500000
vt 0.625000 1.000000
vt 0.625000 0.500000
vt 0.875000 0.750000
vt 0.375000 0.500000
vt 0.375000 1.000000
vt 0.125000 0.750000
vt 0.625000 0.750000
vt 0.625000 0.250000
vt 0.875000 0.500000
vt 0.125000 0.500000
vt 0.375000 0.250000
vt 0.375000 0.750000
s 0
usemtl マテリアル
f 18/39/13 19/42/13 17/37/13
f 20/44/14 23/52/14 19/41/14
f 24/56/15 21/46/15 23/51/15
f 22/49/16 17/38/16 21/45/16
f 23/53/17 17/38/17 19/41/17
f 20/44/18 22/50/18 24/54/18
f 18/39/13 20/43/13 19/42/13
f 20/44/14 24/55/14 23/52/14
f 24/56/15 22/48/15 21/46/15
f 22/49/16 18/40/16 17/38/16
f 23/53/17 21/47/17 17/38/17
f 20/44/18 18/40/18 22/50/18
o 3
v 7.500000 19.500000 17.500000
v 7.500000 24.500000 17.500000
v 7.500000 19.500000 32.500000
v 7.500000 24.500000 32.500000
v -7.500000 19.500000 17.500000
v -7.500000 24.500000 17.500000
v -7.500000 19.500000 32.500000
v -7.500000 24.500000 32.500000
vn 1.0000 -0.0000 -0.0000
vn -0.0000 -0.0000 1.0000
vn -1.0000 -0.0000 -0.0000
vn -0.0000 -0.0000 -1.0000
vn -0.0000 -1.0000 -0.0000
vn -0.0000 1.0000 -0.0000
vt 0.375000 0.000000
vt 0.375000 1.000000
vt 0.125000 0.750000
vt 0.625000 0.000000
vt 0.625000 1.000000
vt 0.875000 0.750000
vt 0.125000 0.500000
vt 0.375000 0.250000
vt 0.625000 0.250000
vt 0.875000 0.500000
vt 0.375000 0.750000
vt 0.625000 0.750000
vt 0.375000 0.500000
vt 0.625000 0.500000
s 0
usemtl マテリアル
f 26/60/19 27/64/19 25/57/19
f 28/65/20 31/69/20 27/64/20
f 32/70/21 29/67/21 31/69/21
f 30/68/22 25/58/22 29/67/22
f 31/69/23 25/59/23 27/63/23
f 28/66/24 30/68/24 32/70/24
f 26/60/19 28/65/19 27/64/19
f 28/65/20 32/70/20 31/69/20
f 32/70/21 30/68/21 29/67/21
f 30/68/22 26/61/22 25/58/22
f 31/69/23 29/67/23 25/59/23
f 28/66/24 26/62/24 30/68/24
o 4
v 27.071070 8.500000 -6.464468
v 27.071070 23.500000 -6.464468
v 23.535536 8.500000 -2.928933
v 23.535536 23.500000 -2.928933
v 16.464464 8.500000 -17.071068
v 16.464464 23.500000 -17.071068
v 12.928930 8.500000 -13.535532
v 12.928930 23.500000 -13.535532
vn 0.7071 -0.0000 0.7071
vn -0.7071 -0.0000 0.7071
vn -0.7071 -0.0000 -0.7071
vn 0.7071 -0.0000 -0.7071
vn -0.0000 -1.0000 -0.0000
vn -0.0000 1.0000 -0.0000
vt 0.375000 0.250000
vt 0.125000 0.750000
vt 0.375000 0.750000
vt 0.375000 -0.000000
vt 0.375000 0.750000
vt 0.625000 0.500000
vt 0.625000 0.750000
vt 0.625000 0.250000
vt 0.625000 0.000000
vt 0.875000 0.500000
vt 0.625000 0.750000
vt 0.125000 0.500000
vt 0.375000 0.422490
vt 0.375000 1.000000
vt 0.375000 0.672490
vt 0.375000 0.500000
vt 0.625000 0.422490
vt 0.625000 0.750000
vt 0.625000 1.000000
vt 0.625000 0.500000
vt 0.875000 0.750000
vt 0.625000 0.672490
s 0
usemtl マテリアル
f 34/74/25 35/78/25 33/71/25
f 36/80/26 39/88/26 35/76/26
f 40/92/27 37/83/27 39/87/27
f 38/86/28 33/72/28 37/82/28
f 39/89/29 33/73/29 35/77/29
f 36/81/30 38/86/30 40/90/30
f 34/74/25 36/79/25 35/78/25
f 36/80/26 40/91/26 39/88/26
f 40/92/27 38/85/27 37/83/27
f 38/86/28 34/75/28 33/72/28
f 39/89/29 37/84/29 33/73/29
f 36/81/30 34/75/30 38/86/30
o 5
v 32.500000 -0.500000 -24.500000
v 32.500000 4.500000 -24.500000
v 32.500000 -0.500000 -9.500000
v 32.500000 4.500000 -9.500000
v 17.500000 -0.500000 -24.500000
v 17.500000 4.500000 -24.500000
v 17.500000 -0.500000 -9.500000
v 17.500000 4.500000 -9.500000
vn 1.0000 -0.0000 -0.0000
vn -0.0000 -0.0000 1.0000
vn -1.0000 -0.0000 -0.0000
vn -0.0000 -0.0000 -1.0000
vn -0.0000 -1.0000 -0.0000
vn -0.0000 1.0000 -0.0000
vt 0.375000 0.000000
vt 0.375000 1.000000
vt 0.125000 0.750000
vt 0.625000 0.000000
vt 0.625000 1.000000
vt 0.875000 0.750000
vt 0.125000 0.500000
vt 0.375000 0.250000
vt 0.625000 0.250000
vt 0.875000 0.500000
vt 0.375000 0.750000
vt 0.625000 0.750000
vt 0.375000 0.500000
vt 0.625000 0.500000
s 0
usemtl マテリアル
f 42/96/31 43/100/31 41/93/31
f 44/101/32 47/105/32 43/100/32
f 48/106/33 45/103/33 47/105/33
f 46/104/34 41/94/34 45/103/34
f 47/105/35 41/95/35 43/99/35
f 44/102/36 46/104/36 48/106/36
f 42/96/31 44/101/31 43/100/31
f 44/101/32 48/106/32 47/105/32
f 48/106/33 46/104/33 45/103/33
f 46/104/34 42/97/34 41/94/34
f 47/105/35 45/103/35 41/95/35
f 44/102/36 42/98/36 46/104/36
o 6
v -17.500000 10.000000 2.500000
v -17.500000 25.000000 2.500000
v -17.500000 10.000000 17.500000
v -17.500000 25.000000 17.500000
v -22.500000 10.000000 2.500000
v -22.500000 25.000000 2.500000
v -22.500000 10.000000 17.500000
v -22.500000 25.000000 17.500000
vn 1.0000 -0.0000 -0.0000
vn -0.0000 -0.0000 1.0000
vn -1.0000 -0.0000 -0.0000
vn -0.0000 -0.0000 -1.0000
vn -0.0000 -1.0000 -0.0000
vn -0.0000 1.0000 -0.0000
vt 0.625000 1.000000
vt 0.625000 0.500000
vt 0.875000 0.500000
vt 0.625000 0.750000
vt 0.625000 0.250000
vt 0.625000 0.750000
vt 0.875000 0.750000
vt 0.625000 0.500000
vt 0.375000 1.000000
vt 0.125000 0.750000
vt 0.375000 0.500000
vt 0.375000 0.750000
vt 0.125000 0.500000
vt 0.375000 0.250000
vt 0.375000 0.750000
vt 0.375000 0.500000
s 0
usemtl マテリアル
f 50/109/37 51/112/37 49/108/37
f 52/114/38 55/120/38 51/111/38
f 56/122/39 53/116/39 55/119/39
f 54/118/40 49/107/40 53/115/40
f 55/121/41 49/108/41 51/112/41
f 52/114/42 54/118/42 56/122/42
f 50/109/37 52/113/37 51/112/37
f 52/114/38 56/122/38 55/120/38
f 56/122/39 54/118/39 53/116/39
f 54/118/40 50/110/40 49/107/40
f 55/121/41 53/117/41 49/108/41
f 52/114/42 50/110/42 54/118/42
