# Blender 3.3.0
# www.blender.org
mtllib stage2.mtl
o 0
v 5.000000 -10.000000 7.500000
v 5.027094 0.000000 7.500000
v 5.000000 -10.000000 22.500000
v 5.000000 0.000000 22.500000
v -5.000000 -10.000000 7.500000
v -5.000000 -0.000000 7.500000
v -5.000000 -10.000000 22.500000
v -5.000000 0.000000 22.500000
v 5.000000 -15.000000 -7.500000
v 5.000000 -5.000000 -7.500000
v 5.000000 -15.000000 7.500000
v 5.013547 -5.000000 7.500000
v -5.000000 -15.000000 -7.500000
v -5.000000 -5.000000 -7.500000
v -5.000000 -15.000000 7.500000
v -5.000000 -5.000000 7.500000
v 5.000000 -10.000000 -7.500000
v -5.000000 -10.000000 -7.500000
v 5.000000 -5.000000 22.500000
v -5.000000 -5.000000 22.500000
vn 1.0000 -0.0000 0.0009
vn -0.0000 -0.0000 1.0000
vn -1.0000 -0.0000 -0.0000
vn -0.0000 -1.0000 -0.0000
vn -0.0000 1.0000 -0.0000
vn 1.0000 -0.0000 -0.0000
vn -0.0000 -0.0000 -1.0000
vn 1.0000 -0.0027 0.0018
vn 1.0000 -0.0027 -0.0009
vn 1.0000 -0.0027 0.0009
vt 0.202663 0.742469
vt 0.124239 0.749577
vt 0.501571 0.983315
vt 0.504671 0.249746
vt 0.382206 0.249746
vt 0.624202 0.249746
vt 0.877576 0.499492
vt 0.614854 1.000000
vt 0.124239 0.499831
vt 0.432857 0.539228
vt 0.382206 0.499492
vt 0.624201 0.499492
vt 0.622096 0.480490
vt 0.627829 0.500169
vt 0.499493 0.000000
vt 0.373986 0.749577
vt 0.202663 0.518613
vt 0.505099 0.000000
vt 0.406092 0.499493
vt 0.609845 0.800274
vt 0.877576 0.749915
vt 0.614854 0.749577
vt 0.406092 0.249746
vt 0.373986 0.499831
vt 0.420771 0.736021
vt 0.627829 0.749915
vt 0.622096 0.730236
vt 0.609845 0.550527
vt 0.379798 0.000000
vt 0.124493 0.499831
vt 0.390308 0.735969
vt 0.626444 0.733569
vt 0.624556 0.724123
vt 0.873986 0.502602
vt 0.374239 0.499831
vt 0.314590 0.742469
vt 0.379798 0.249746
vt 0.499328 0.249746
vt 0.626444 0.983315
vt 0.624239 0.502264
vt 0.489981 0.999662
vt 0.507079 0.249746
vt 0.390308 0.486222
vt 0.124493 0.749577
vt 0.380226 0.249746
vt 0.873986 0.752348
vt 0.624366 0.249746
vt 0.624557 0.474377
vt 0.380226 0.000000
vt 0.374239 0.749577
vt 0.314590 0.518613
vt 0.489981 0.749577
vt 0.484971 0.800274
vt 0.624366 0.000000
vt 0.624239 0.752348
vt 0.530965 0.499493
vt 0.501571 0.733569
vt 0.499683 0.724123
vt 0.515182 0.735969
vt 0.504671 0.000000
vt 0.499683 0.474377
vt 0.499493 0.249746
vt 0.515182 0.486222
vt 0.505099 0.249746
vt 0.499328 0.499492
vt 0.497223 0.480490
vt 0.531253 0.545271
vt 0.507079 0.499492
vt 0.484972 0.550527
vt 0.497223 0.730236
vt 0.530965 0.249746
vt 0.519168 0.742064
s 0
usemtl マテリアル
f 12/38/1 4/12/1 19/65/1
f 4/13/2 20/70/2 19/66/2
f 8/28/3 16/53/3 20/69/3
f 7/24/4 1/2/4 3/9/4
f 4/14/5 6/21/5 8/26/5
f 10/32/6 1/3/6 17/57/6
f 16/54/3 18/62/3 5/15/3
f 14/48/7 17/58/7 18/61/7
f 15/50/4 9/30/4 11/35/4
f 16/55/5 10/34/5 14/46/5
f 6/22/7 12/41/7 16/52/7
f 5/17/2 11/36/2 1/1/2
f 18/63/7 9/31/7 13/43/7
f 5/18/3 13/45/3 15/49/3
f 17/60/6 11/37/6 9/29/6
f 20/71/3 5/19/3 7/23/3
f 19/67/2 7/25/2 3/10/2
f 1/5/6 19/68/6 3/11/6
f 12/38/8 2/6/8 4/12/8
f 4/13/2 8/27/2 20/70/2
f 8/28/3 6/20/3 16/53/3
f 7/24/4 5/16/4 1/2/4
f 4/14/5 2/7/5 6/21/5
f 10/32/9 12/39/9 1/3/9
f 16/54/3 14/47/3 18/62/3
f 14/48/7 10/33/7 17/58/7
f 15/50/4 13/44/4 9/30/4
f 16/55/5 12/40/5 10/34/5
f 6/22/7 2/8/7 12/41/7
f 5/17/2 15/51/2 11/36/2
f 18/63/7 17/59/7 9/31/7
f 5/18/3 18/64/3 13/45/3
f 17/60/6 1/4/6 11/37/6
f 20/71/3 16/56/3 5/19/3
f 19/67/2 20/72/2 7/25/2
f 1/5/10 12/42/10 19/68/10
